Space-Mono-Regular_QUADRATIC.ufo
<glyph name="exclam" format="1">
  <advance width="612"/>
  <unicode hex="0021"/>
  <outline>
    <contour>
      <point x="236" y="56" type="qcurve"/>
      <point x="236" y="85"/>
      <point x="277" y="126"/>
      <point x="306" y="126" type="qcurve"/>
      <point x="335" y="126"/>
      <point x="376" y="85"/>
      <point x="376" y="56" type="qcurve"/>
      <point x="376" y="27"/>
      <point x="335" y="-14"/>
      <point x="306" y="-14" type="qcurve"/>
      <point x="277" y="-14"/>
      <point x="236" y="27"/>
    </contour>
    <contour>
      <point x="346" y="700" type="line"/>
      <point x="346" y="186" type="line"/>
      <point x="266" y="186" type="line"/>
      <point x="266" y="700" type="line"/>
    </contour>
  </outline>
</glyph>
<glyph name="quotedbl" format="1">
  <advance width="612"/>
  <unicode hex="0022"/>
  <outline>
    <contour>
      <point x="327" y="644" type="qcurve"/>
      <point x="327" y="673"/>
      <point x="368" y="714"/>
      <point x="397" y="714" type="qcurve"/>
      <point x="426" y="714"/>
      <point x="467" y="673"/>
      <point x="467" y="644" type="qcurve"/>
      <point x="467" y="622"/>
      <point x="443" y="587"/>
      <point x="424" y="579" type="qcurve"/>
      <point x="424" y="468" type="line"/>
      <point x="370" y="468" type="line"/>
      <point x="370" y="579" type="line"/>
      <point x="351" y="587"/>
      <point x="327" y="622"/>
    </contour>
    <contour>
      <point x="145" y="644" type="qcurve"/>
      <point x="145" y="673"/>
      <point x="186" y="714"/>
      <point x="215" y="714" type="qcurve"/>
      <point x="244" y="714"/>
      <point x="285" y="673"/>
      <point x="285" y="644" type="qcurve"/>
      <point x="285" y="622"/>
      <point x="261" y="587"/>
      <point x="242" y="579" type="qcurve"/>
      <point x="242" y="468" type="line"/>
      <point x="188" y="468" type="line"/>
      <point x="188" y="579" type="line"/>
      <point x="169" y="587"/>
      <point x="145" y="622"/>
    </contour>
  </outline>
</glyph>
<glyph name="dollar" format="1">
  <advance width="612"/>
  <unicode hex="0024"/>
  <outline>
    <contour>
      <point x="334" y="608" type="line"/>
      <point x="369" y="602"/>
      <point x="426" y="573"/>
      <point x="466" y="531"/>
      <point x="488" y="480"/>
      <point x="488" y="452" type="qcurve"/>
      <point x="488" y="434" type="line"/>
      <point x="412" y="434" type="line"/>
      <point x="412" y="446" type="line"/>
      <point x="412" y="479"/>
      <point x="369" y="525"/>
      <point x="334" y="534" type="qcurve"/>
      <point x="334" y="391" type="line"/>
      <point x="417" y="381"/>
      <point x="504" y="310"/>
      <point x="504" y="248" type="qcurve"/>
      <point x="504" y="242" type="line"/>
      <point x="504" y="175"/>
      <point x="411" y="94"/>
      <point x="334" y="89" type="qcurve"/>
      <point x="334" y="28" type="line"/>
      <point x="262" y="28" type="line"/>
      <point x="262" y="91" type="line"/>
      <point x="218" y="98"/>
      <point x="155" y="133"/>
      <point x="114" y="182"/>
      <point x="94" y="239"/>
      <point x="94" y="268" type="qcurve"/>
      <point x="94" y="292" type="line"/>
      <point x="170" y="292" type="line"/>
      <point x="170" y="280" type="line"/>
      <point x="170" y="232"/>
      <point x="218" y="174"/>
      <point x="262" y="164" type="qcurve"/>
      <point x="262" y="327" type="line"/>
      <point x="187" y="337"/>
      <point x="108" y="404"/>
      <point x="108" y="464" type="qcurve"/>
      <point x="108" y="470" type="line"/>
      <point x="108" y="502"/>
      <point x="133" y="551"/>
      <point x="175" y="586"/>
      <point x="231" y="607"/>
      <point x="262" y="610" type="qcurve"/>
      <point x="262" y="672" type="line"/>
      <point x="334" y="672" type="line"/>
    </contour>
    <contour>
      <point x="426" y="242" type="qcurve"/>
      <point x="426" y="277"/>
      <point x="382" y="311"/>
      <point x="334" y="319" type="qcurve"/>
      <point x="334" y="161" type="line"/>
      <point x="377" y="166"/>
      <point x="426" y="208"/>
    </contour>
    <contour>
      <point x="186" y="470" type="qcurve"/>
      <point x="186" y="442"/>
      <point x="219" y="407"/>
      <point x="262" y="399" type="qcurve"/>
      <point x="262" y="538" type="line"/>
      <point x="230" y="533"/>
      <point x="186" y="499"/>
    </contour>
  </outline>
</glyph>
<glyph name="ampersand" format="1">
  <advance width="612"/>
  <unicode hex="0026"/>
  <outline>
    <contour>
      <point x="580" y="312" type="line"/>
      <point x="483" y="312" type="line"/>
      <point x="483" y="0" type="line"/>
      <point x="259" y="0" type="line"/>
      <point x="209" y="0"/>
      <point x="131" y="28"/>
      <point x="79" y="77"/>
      <point x="52" y="144"/>
      <point x="52" y="183" type="qcurve"/>
      <point x="52" y="195" type="line"/>
      <point x="52" y="252"/>
      <point x="120" y="331"/>
      <point x="170" y="345" type="qcurve"/>
      <point x="170" y="357" type="line"/>
      <point x="120" y="370"/>
      <point x="52" y="449"/>
      <point x="52" y="506" type="qcurve"/>
      <point x="52" y="518" type="line"/>
      <point x="52" y="557"/>
      <point x="79" y="624"/>
      <point x="131" y="672"/>
      <point x="209" y="700"/>
      <point x="259" y="700" type="qcurve"/>
      <point x="387" y="700" type="line"/>
      <point x="387" y="622" type="line"/>
      <point x="265" y="622" type="line"/>
      <point x="206" y="622"/>
      <point x="132" y="563"/>
      <point x="132" y="512" type="qcurve"/>
      <point x="132" y="506" type="line"/>
      <point x="132" y="452"/>
      <point x="202" y="390"/>
      <point x="262" y="390" type="qcurve"/>
      <point x="399" y="390" type="line"/>
      <point x="399" y="496" type="line"/>
      <point x="483" y="496" type="line"/>
      <point x="483" y="390" type="line"/>
      <point x="580" y="390" type="line"/>
    </contour>
    <contour>
      <point x="399" y="78" type="line"/>
      <point x="399" y="312" type="line"/>
      <point x="262" y="312" type="line"/>
      <point x="202" y="312"/>
      <point x="132" y="249"/>
      <point x="132" y="195" type="qcurve"/>
      <point x="132" y="189" type="line"/>
      <point x="132" y="137"/>
      <point x="206" y="78"/>
      <point x="265" y="78" type="qcurve"/>
    </contour>
  </outline>
</glyph>
<glyph name="asterisk" format="1">
  <advance width="612"/>
  <unicode hex="002A"/>
  <outline>
    <contour>
      <point x="507" y="500" type="line"/>
      <point x="419" y="412" type="line"/>
      <point x="369" y="384" type="line"/>
      <point x="374" y="372" type="line"/>
      <point x="419" y="386" type="line"/>
      <point x="554" y="386" type="line"/>
      <point x="554" y="314" type="line"/>
      <point x="419" y="314" type="line"/>
      <point x="374" y="328" type="line"/>
      <point x="369" y="316" type="line"/>
      <point x="419" y="288" type="line"/>
      <point x="507" y="200" type="line"/>
      <point x="456" y="149" type="line"/>
      <point x="368" y="237" type="line"/>
      <point x="340" y="287" type="line"/>
      <point x="328" y="282" type="line"/>
      <point x="342" y="237" type="line"/>
      <point x="342" y="102" type="line"/>
      <point x="270" y="102" type="line"/>
      <point x="270" y="237" type="line"/>
      <point x="284" y="282" type="line"/>
      <point x="272" y="287" type="line"/>
      <point x="244" y="237" type="line"/>
      <point x="156" y="149" type="line"/>
      <point x="105" y="200" type="line"/>
      <point x="193" y="288" type="line"/>
      <point x="243" y="316" type="line"/>
      <point x="238" y="328" type="line"/>
      <point x="193" y="314" type="line"/>
      <point x="58" y="314" type="line"/>
      <point x="58" y="386" type="line"/>
      <point x="193" y="386" type="line"/>
      <point x="238" y="372" type="line"/>
      <point x="243" y="384" type="line"/>
      <point x="193" y="412" type="line"/>
      <point x="105" y="500" type="line"/>
      <point x="156" y="551" type="line"/>
      <point x="244" y="463" type="line"/>
      <point x="272" y="413" type="line"/>
      <point x="284" y="418" type="line"/>
      <point x="270" y="463" type="line"/>
      <point x="270" y="598" type="line"/>
      <point x="342" y="598" type="line"/>
      <point x="342" y="463" type="line"/>
      <point x="328" y="418" type="line"/>
      <point x="340" y="413" type="line"/>
      <point x="368" y="463" type="line"/>
      <point x="456" y="551" type="line"/>
    </contour>
  </outline>
</glyph>
<glyph name="zero" format="1">
  <advance width="612"/>
  <unicode hex="0030"/>
  <outline>
    <contour>
      <point x="60" y="428" type="line"/>
      <point x="60" y="564"/>
      <point x="190" y="714"/>
      <point x="306" y="714" type="qcurve"/>
      <point x="422" y="714"/>
      <point x="552" y="564"/>
      <point x="552" y="428" type="qcurve"/>
      <point x="552" y="272" type="line"/>
      <point x="552" y="132"/>
      <point x="422" y="-14"/>
      <point x="306" y="-14" type="qcurve"/>
      <point x="190" y="-14"/>
      <point x="60" y="132"/>
      <point x="60" y="272" type="qcurve"/>
    </contour>
    <contour>
      <point x="306" y="62" type="qcurve"/>
      <point x="387" y="62"/>
      <point x="468" y="175"/>
      <point x="468" y="278" type="qcurve"/>
      <point x="468" y="422" type="line"/>
      <point x="468" y="470"/>
      <point x="448" y="549"/>
      <point x="407" y="606"/>
      <point x="346" y="638"/>
      <point x="306" y="638" type="qcurve"/>
      <point x="265" y="638"/>
      <point x="205" y="606"/>
      <point x="164" y="549"/>
      <point x="144" y="470"/>
      <point x="144" y="422" type="qcurve"/>
      <point x="144" y="278" type="line"/>
      <point x="144" y="175"/>
      <point x="225" y="62"/>
    </contour>
    <contour>
      <point x="242" y="350" type="qcurve"/>
      <point x="242" y="376"/>
      <point x="280" y="414"/>
      <point x="306" y="414" type="qcurve"/>
      <point x="332" y="414"/>
      <point x="370" y="376"/>
      <point x="370" y="350" type="qcurve"/>
      <point x="370" y="324"/>
      <point x="332" y="286"/>
      <point x="306" y="286" type="qcurve"/>
      <point x="280" y="286"/>
      <point x="242" y="324"/>
    </contour>
  </outline>
</glyph>
<glyph name="one" format="1">
  <advance width="612"/>
  <unicode hex="0031"/>
  <outline>
    <contour>
      <point x="269" y="78" type="line"/>
      <point x="269" y="663" type="line"/>
      <point x="257" y="663" type="line"/>
      <point x="142" y="400" type="line"/>
      <point x="59" y="400" type="line"/>
      <point x="59" y="406" type="line"/>
      <point x="190" y="700" type="line"/>
      <point x="353" y="700" type="line"/>
      <point x="353" y="78" type="line"/>
      <point x="551" y="78" type="line"/>
      <point x="551" y="0" type="line"/>
      <point x="71" y="0" type="line"/>
      <point x="71" y="78" type="line"/>
    </contour>
  </outline>
</glyph>
<glyph name="two" format="1">
  <advance width="612"/>
  <unicode hex="0032"/>
  <outline>
    <contour>
      <point x="544" y="78" type="line"/>
      <point x="544" y="0" type="line"/>
      <point x="70" y="0" type="line"/>
      <point x="70" y="120" type="line"/>
      <point x="70" y="168"/>
      <point x="102" y="239"/>
      <point x="161" y="290"/>
      <point x="245" y="324"/>
      <point x="298" y="336" type="qcurve"/>
      <point x="387" y="356"/>
      <point x="466" y="430"/>
      <point x="466" y="484" type="qcurve"/>
      <point x="466" y="490" type="line"/>
      <point x="466" y="517"/>
      <point x="448" y="569"/>
      <point x="410" y="611"/>
      <point x="351" y="636"/>
      <point x="310" y="636" type="qcurve"/>
      <point x="233" y="636"/>
      <point x="148" y="542"/>
      <point x="148" y="464" type="qcurve"/>
      <point x="148" y="420" type="line"/>
      <point x="64" y="420" type="line"/>
      <point x="64" y="470" type="line"/>
      <point x="64" y="518"/>
      <point x="96" y="606"/>
      <point x="158" y="674"/>
      <point x="250" y="714"/>
      <point x="310" y="714" type="qcurve"/>
      <point x="371" y="714"/>
      <point x="461" y="677"/>
      <point x="521" y="616"/>
      <point x="550" y="539"/>
      <point x="550" y="499" type="qcurve"/>
      <point x="550" y="481" type="line"/>
      <point x="550" y="401"/>
      <point x="450" y="288"/>
      <point x="340" y="264" type="qcurve"/>
      <point x="244" y="243"/>
      <point x="154" y="174"/>
      <point x="154" y="108" type="qcurve"/>
      <point x="154" y="78" type="line"/>
    </contour>
  </outline>
</glyph>
<glyph name="seven" format="1">
  <advance width="612"/>
  <unicode hex="0037"/>
  <outline>
    <contour>
      <point x="72" y="700" type="line"/>
      <point x="540" y="700" type="line"/>
      <point x="540" y="578" type="line"/>
      <point x="245" y="132" type="line"/>
      <point x="224" y="100"/>
      <point x="202" y="54"/>
      <point x="202" y="30" type="qcurve"/>
      <point x="202" y="0" type="line"/>
      <point x="120" y="0" type="line"/>
      <point x="120" y="36" type="line"/>
      <point x="120" y="54"/>
      <point x="127" y="86"/>
      <point x="142" y="119"/>
      <point x="165" y="156"/>
      <point x="181" y="180" type="qcurve"/>
      <point x="468" y="610" type="line"/>
      <point x="468" y="622" type="line"/>
      <point x="72" y="622" type="line"/>
    </contour>
  </outline>
</glyph>
<glyph name="eight" format="1">
  <advance width="612"/>
  <unicode hex="0038"/>
  <outline>
    <contour>
      <point x="297" y="-14" type="line"/>
      <point x="244" y="-14"/>
      <point x="158" y="15"/>
      <point x="96" y="66"/>
      <point x="63" y="135"/>
      <point x="63" y="176" type="qcurve"/>
      <point x="63" y="188" type="line"/>
      <point x="63" y="224"/>
      <point x="85" y="280"/>
      <point x="121" y="322"/>
      <point x="168" y="350"/>
      <point x="193" y="357" type="qcurve"/>
      <point x="193" y="369" type="line"/>
      <point x="170" y="376"/>
      <point x="130" y="404"/>
      <point x="99" y="442"/>
      <point x="81" y="491"/>
      <point x="81" y="520" type="qcurve"/>
      <point x="81" y="532" type="line"/>
      <point x="81" y="572"/>
      <point x="113" y="639"/>
      <point x="172" y="687"/>
      <point x="253" y="714"/>
      <point x="303" y="714" type="qcurve"/>
      <point x="309" y="714" type="line"/>
      <point x="358" y="714"/>
      <point x="440" y="687"/>
      <point x="499" y="639"/>
      <point x="531" y="572"/>
      <point x="531" y="532" type="qcurve"/>
      <point x="531" y="520" type="line"/>
      <point x="531" y="491"/>
      <point x="513" y="442"/>
      <point x="482" y="404"/>
      <point x="441" y="376"/>
      <point x="419" y="369" type="qcurve"/>
      <point x="419" y="357" type="line"/>
      <point x="444" y="350"/>
      <point x="491" y="322"/>
      <point x="527" y="280"/>
      <point x="549" y="224"/>
      <point x="549" y="188" type="qcurve"/>
      <point x="549" y="176" type="line"/>
      <point x="549" y="135"/>
      <point x="516" y="66"/>
      <point x="454" y="15"/>
      <point x="368" y="-14"/>
      <point x="315" y="-14" type="qcurve"/>
    </contour>
    <contour>
      <point x="312" y="62" type="line"/>
      <point x="380" y="62"/>
      <point x="465" y="132"/>
      <point x="465" y="188" type="qcurve"/>
      <point x="465" y="194" type="line"/>
      <point x="465" y="256"/>
      <point x="378" y="324"/>
      <point x="309" y="324" type="qcurve"/>
      <point x="303" y="324" type="line"/>
      <point x="234" y="324"/>
      <point x="147" y="256"/>
      <point x="147" y="194" type="qcurve"/>
      <point x="147" y="188" type="line"/>
      <point x="147" y="132"/>
      <point x="232" y="62"/>
      <point x="300" y="62" type="qcurve"/>
    </contour>
    <contour>
      <point x="306" y="402" type="qcurve"/>
      <point x="369" y="402"/>
      <point x="447" y="468"/>
      <point x="447" y="518" type="qcurve"/>
      <point x="447" y="524" type="line"/>
      <point x="447" y="575"/>
      <point x="370" y="638"/>
      <point x="306" y="638" type="qcurve"/>
      <point x="242" y="638"/>
      <point x="165" y="575"/>
      <point x="165" y="524" type="qcurve"/>
      <point x="165" y="518" type="line"/>
      <point x="165" y="468"/>
      <point x="243" y="402"/>
    </contour>
  </outline>
</glyph>
<glyph name="nine" format="1">
  <advance width="612"/>
  <unicode hex="0039"/>
  <outline>
    <contour>
      <point x="159" y="204" type="line"/>
      <point x="159" y="139"/>
      <point x="239" y="60"/>
      <point x="310" y="60" type="qcurve"/>
      <point x="344" y="60"/>
      <point x="401" y="84"/>
      <point x="442" y="129"/>
      <point x="465" y="190"/>
      <point x="465" y="228" type="qcurve"/>
      <point x="465" y="332" type="line"/>
      <point x="453" y="332" type="line"/>
      <point x="430" y="288"/>
      <point x="344" y="238"/>
      <point x="287" y="238" type="qcurve"/>
      <point x="238" y="238"/>
      <point x="156" y="268"/>
      <point x="96" y="327"/>
      <point x="63" y="411"/>
      <point x="63" y="465" type="qcurve"/>
      <point x="63" y="477" type="line"/>
      <point x="63" y="529"/>
      <point x="99" y="616"/>
      <point x="164" y="679"/>
      <point x="253" y="714"/>
      <point x="306" y="714" type="qcurve"/>
      <point x="359" y="714"/>
      <point x="448" y="679"/>
      <point x="513" y="617"/>
      <point x="549" y="531"/>
      <point x="549" y="480" type="qcurve"/>
      <point x="549" y="228" type="line"/>
      <point x="549" y="172"/>
      <point x="512" y="83"/>
      <point x="447" y="20"/>
      <point x="359" y="-14"/>
      <point x="308" y="-14" type="qcurve"/>
      <point x="257" y="-14"/>
      <point x="171" y="16"/>
      <point x="109" y="73"/>
      <point x="75" y="154"/>
      <point x="75" y="204" type="qcurve"/>
    </contour>
    <contour>
      <point x="306" y="640" type="qcurve"/>
      <point x="270" y="640"/>
      <point x="211" y="616"/>
      <point x="169" y="572"/>
      <point x="147" y="513"/>
      <point x="147" y="479" type="qcurve"/>
      <point x="147" y="467" type="line"/>
      <point x="147" y="432"/>
      <point x="171" y="375"/>
      <point x="213" y="334"/>
      <point x="271" y="312"/>
      <point x="306" y="312" type="qcurve"/>
      <point x="340" y="312"/>
      <point x="398" y="335"/>
      <point x="441" y="375"/>
      <point x="465" y="431"/>
      <point x="465" y="463" type="qcurve"/>
      <point x="465" y="482" type="line"/>
      <point x="465" y="515"/>
      <point x="443" y="573"/>
      <point x="401" y="616"/>
      <point x="342" y="640"/>
    </contour>
  </outline>
</glyph>
<glyph name="colon" format="1">
  <advance width="612"/>
  <unicode hex="003A"/>
  <outline>
    <contour>
      <point x="236" y="56" type="qcurve"/>
      <point x="236" y="85"/>
      <point x="277" y="126"/>
      <point x="306" y="126" type="qcurve"/>
      <point x="335" y="126"/>
      <point x="376" y="85"/>
      <point x="376" y="56" type="qcurve"/>
      <point x="376" y="27"/>
      <point x="335" y="-14"/>
      <point x="306" y="-14" type="qcurve"/>
      <point x="277" y="-14"/>
      <point x="236" y="27"/>
    </contour>
    <contour>
      <point x="236" y="440" type="qcurve"/>
      <point x="236" y="469"/>
      <point x="277" y="510"/>
      <point x="306" y="510" type="qcurve"/>
      <point x="335" y="510"/>
      <point x="376" y="469"/>
      <point x="376" y="440" type="qcurve"/>
      <point x="376" y="411"/>
      <point x="335" y="370"/>
      <point x="306" y="370" type="qcurve"/>
      <point x="277" y="370"/>
      <point x="236" y="411"/>
    </contour>
  </outline>
</glyph>
<glyph name="semicolon" format="1">
  <advance width="612"/>
  <unicode hex="003B"/>
  <outline>
    <contour>
      <point x="236" y="56" type="qcurve"/>
      <point x="236" y="85"/>
      <point x="277" y="126"/>
      <point x="306" y="126" type="qcurve"/>
      <point x="335" y="126"/>
      <point x="376" y="85"/>
      <point x="376" y="56" type="qcurve"/>
      <point x="376" y="-42" type="line"/>
      <point x="376" y="-76"/>
      <point x="333" y="-120"/>
      <point x="299" y="-120" type="qcurve"/>
      <point x="248" y="-120" type="line"/>
      <point x="248" y="-66" type="line"/>
      <point x="295" y="-66" type="line"/>
      <point x="322" y="-66"/>
      <point x="322" y="-36" type="qcurve"/>
      <point x="322" y="-11" type="line"/>
      <point x="314" y="-14"/>
      <point x="305" y="-14" type="qcurve"/>
      <point x="277" y="-14"/>
      <point x="236" y="27"/>
    </contour>
    <contour>
      <point x="236" y="440" type="qcurve"/>
      <point x="236" y="469"/>
      <point x="277" y="510"/>
      <point x="306" y="510" type="qcurve"/>
      <point x="335" y="510"/>
      <point x="376" y="469"/>
      <point x="376" y="440" type="qcurve"/>
      <point x="376" y="411"/>
      <point x="335" y="370"/>
      <point x="306" y="370" type="qcurve"/>
      <point x="277" y="370"/>
      <point x="236" y="411"/>
    </contour>
  </outline>
</glyph>
<glyph name="C" format="1">
  <advance width="612"/>
  <unicode hex="0043"/>
  <outline>
    <contour>
      <point x="310" y="64" type="qcurve"/>
      <point x="353" y="64"/>
      <point x="414" y="93"/>
      <point x="453" y="142"/>
      <point x="472" y="205"/>
      <point x="472" y="240" type="qcurve"/>
      <point x="472" y="252" type="line"/>
      <point x="556" y="252" type="line"/>
      <point x="556" y="240" type="line"/>
      <point x="556" y="187"/>
      <point x="524" y="94"/>
      <point x="462" y="25"/>
      <point x="370" y="-14"/>
      <point x="310" y="-14" type="qcurve"/>
      <point x="194" y="-14"/>
      <point x="64" y="132"/>
      <point x="64" y="272" type="qcurve"/>
      <point x="64" y="428" type="line"/>
      <point x="64" y="564"/>
      <point x="194" y="714"/>
      <point x="310" y="714" type="qcurve"/>
      <point x="370" y="714"/>
      <point x="462" y="675"/>
      <point x="524" y="606"/>
      <point x="556" y="513"/>
      <point x="556" y="460" type="qcurve"/>
      <point x="556" y="448" type="line"/>
      <point x="472" y="448" type="line"/>
      <point x="472" y="460" type="line"/>
      <point x="471" y="494"/>
      <point x="452" y="558"/>
      <point x="413" y="607"/>
      <point x="353" y="636"/>
      <point x="310" y="636" type="qcurve"/>
      <point x="229" y="636"/>
      <point x="148" y="518"/>
      <point x="148" y="422" type="qcurve"/>
      <point x="148" y="278" type="line"/>
      <point x="148" y="175"/>
      <point x="229" y="64"/>
    </contour>
  </outline>
</glyph>
<glyph name="F" format="1">
  <advance width="612"/>
  <unicode hex="0046"/>
  <outline>
    <contour>
      <point x="95" y="700" type="line"/>
      <point x="525" y="700" type="line"/>
      <point x="525" y="622" type="line"/>
      <point x="179" y="622" type="line"/>
      <point x="179" y="390" type="line"/>
      <point x="519" y="390" type="line"/>
      <point x="519" y="312" type="line"/>
      <point x="179" y="312" type="line"/>
      <point x="179" y="0" type="line"/>
      <point x="95" y="0" type="line"/>
    </contour>
  </outline>
</glyph>
<glyph name="K" format="1">
  <advance width="612"/>
  <unicode hex="004B"/>
  <outline>
    <contour>
      <point x="173" y="0" type="line"/>
      <point x="89" y="0" type="line"/>
      <point x="89" y="700" type="line"/>
      <point x="173" y="700" type="line"/>
      <point x="173" y="390" type="line"/>
      <point x="196" y="390" type="line"/>
      <point x="465" y="700" type="line"/>
      <point x="569" y="700" type="line"/>
      <point x="569" y="694" type="line"/>
      <point x="279" y="356" type="line"/>
      <point x="279" y="344" type="line"/>
      <point x="581" y="6" type="line"/>
      <point x="581" y="0" type="line"/>
      <point x="475" y="0" type="line"/>
      <point x="196" y="312" type="line"/>
      <point x="173" y="312" type="line"/>
    </contour>
  </outline>
</glyph>
<glyph name="M" format="1">
  <advance width="612"/>
  <unicode hex="004D"/>
  <outline>
    <contour>
      <point x="46" y="700" type="line"/>
      <point x="206" y="700" type="line"/>
      <point x="300" y="36" type="line"/>
      <point x="312" y="36" type="line"/>
      <point x="406" y="700" type="line"/>
      <point x="566" y="700" type="line"/>
      <point x="566" y="0" type="line"/>
      <point x="488" y="0" type="line"/>
      <point x="488" y="664" type="line"/>
      <point x="476" y="664" type="line"/>
      <point x="382" y="0" type="line"/>
      <point x="230" y="0" type="line"/>
      <point x="136" y="664" type="line"/>
      <point x="124" y="664" type="line"/>
      <point x="124" y="0" type="line"/>
      <point x="46" y="0" type="line"/>
    </contour>
  </outline>
</glyph>
<glyph name="U" format="1">
  <advance width="612"/>
  <unicode hex="0055"/>
  <outline>
    <contour>
      <point x="150" y="700" type="line"/>
      <point x="150" y="236" type="line"/>
      <point x="150" y="151"/>
      <point x="229" y="64"/>
      <point x="306" y="64" type="qcurve"/>
      <point x="383" y="64"/>
      <point x="462" y="151"/>
      <point x="462" y="236" type="qcurve"/>
      <point x="462" y="700" type="line"/>
      <point x="546" y="700" type="line"/>
      <point x="546" y="236" type="line"/>
      <point x="546" y="114"/>
      <point x="418" y="-14"/>
      <point x="306" y="-14" type="qcurve"/>
      <point x="194" y="-14"/>
      <point x="66" y="114"/>
      <point x="66" y="236" type="qcurve"/>
      <point x="66" y="700" type="line"/>
    </contour>
  </outline>
</glyph>
<glyph name="bracketleft" format="1">
  <advance width="612"/>
  <unicode hex="005B"/>
  <outline>
    <contour>
      <point x="264" y="778" type="line"/>
      <point x="264" y="812"/>
      <point x="307" y="856"/>
      <point x="341" y="856" type="qcurve"/>
      <point x="438" y="856" type="line"/>
      <point x="438" y="784" type="line"/>
      <point x="369" y="784" type="line"/>
      <point x="342" y="784"/>
      <point x="342" y="754" type="qcurve"/>
      <point x="342" y="-54" type="line"/>
      <point x="342" y="-84"/>
      <point x="369" y="-84" type="qcurve"/>
      <point x="438" y="-84" type="line"/>
      <point x="438" y="-156" type="line"/>
      <point x="341" y="-156" type="line"/>
      <point x="307" y="-156"/>
      <point x="264" y="-112"/>
      <point x="264" y="-78" type="qcurve"/>
    </contour>
  </outline>
</glyph>
<glyph name="a" format="1">
  <advance width="612"/>
  <unicode hex="0061"/>
  <outline>
    <contour>
      <point x="447" y="84" type="line"/>
      <point x="435" y="84" type="line"/>
      <point x="411" y="34"/>
      <point x="326" y="-14"/>
      <point x="279" y="-14" type="qcurve"/>
      <point x="230" y="-14"/>
      <point x="146" y="19"/>
      <point x="83" y="84"/>
      <point x="47" y="178"/>
      <point x="47" y="240" type="qcurve"/>
      <point x="47" y="256" type="line"/>
      <point x="47" y="317"/>
      <point x="83" y="411"/>
      <point x="146" y="476"/>
      <point x="230" y="510"/>
      <point x="277" y="510" type="qcurve"/>
      <point x="328" y="510"/>
      <point x="411" y="465"/>
      <point x="435" y="418" type="qcurve"/>
      <point x="447" y="418" type="line"/>
      <point x="447" y="496" type="line"/>
      <point x="525" y="496" type="line"/>
      <point x="525" y="102" type="line"/>
      <point x="525" y="72"/>
      <point x="552" y="72" type="qcurve"/>
      <point x="577" y="72" type="line"/>
      <point x="577" y="0" type="line"/>
      <point x="524" y="0" type="line"/>
      <point x="490" y="0"/>
      <point x="447" y="44"/>
      <point x="447" y="78" type="qcurve"/>
    </contour>
    <contour>
      <point x="287" y="60" type="qcurve"/>
      <point x="322" y="60"/>
      <point x="381" y="86"/>
      <point x="423" y="134"/>
      <point x="447" y="201"/>
      <point x="447" y="242" type="qcurve"/>
      <point x="447" y="254" type="line"/>
      <point x="447" y="294"/>
      <point x="423" y="361"/>
      <point x="380" y="409"/>
      <point x="321" y="436"/>
      <point x="287" y="436" type="qcurve"/>
      <point x="252" y="436"/>
      <point x="194" y="410"/>
      <point x="151" y="363"/>
      <point x="127" y="296"/>
      <point x="127" y="256" type="qcurve"/>
      <point x="127" y="240" type="line"/>
      <point x="127" y="155"/>
      <point x="216" y="60"/>
    </contour>
  </outline>
</glyph>
<glyph name="f" format="1">
  <advance width="612"/>
  <unicode hex="0066"/>
  <outline>
    <contour>
      <point x="82" y="496" type="line"/>
      <point x="235" y="496" type="line"/>
      <point x="235" y="622" type="line"/>
      <point x="235" y="656"/>
      <point x="278" y="700"/>
      <point x="312" y="700" type="qcurve"/>
      <point x="508" y="700" type="line"/>
      <point x="508" y="628" type="line"/>
      <point x="340" y="628" type="line"/>
      <point x="313" y="628"/>
      <point x="313" y="598" type="qcurve"/>
      <point x="313" y="496" type="line"/>
      <point x="520" y="496" type="line"/>
      <point x="520" y="424" type="line"/>
      <point x="313" y="424" type="line"/>
      <point x="313" y="0" type="line"/>
      <point x="235" y="0" type="line"/>
      <point x="235" y="424" type="line"/>
      <point x="82" y="424" type="line"/>
    </contour>
  </outline>
</glyph>
<glyph name="h" format="1">
  <advance width="612"/>
  <unicode hex="0068"/>
  <outline>
    <contour>
      <point x="165" y="0" type="line"/>
      <point x="87" y="0" type="line"/>
      <point x="87" y="700" type="line"/>
      <point x="165" y="700" type="line"/>
      <point x="165" y="406" type="line"/>
      <point x="177" y="406" type="line"/>
      <point x="200" y="454"/>
      <point x="283" y="510"/>
      <point x="343" y="510" type="qcurve"/>
      <point x="424" y="510"/>
      <point x="525" y="403"/>
      <point x="525" y="296" type="qcurve"/>
      <point x="525" y="0" type="line"/>
      <point x="447" y="0" type="line"/>
      <point x="447" y="280" type="line"/>
      <point x="447" y="358"/>
      <point x="377" y="436"/>
      <point x="317" y="436" type="qcurve"/>
      <point x="246" y="436"/>
      <point x="165" y="339"/>
      <point x="165" y="258" type="qcurve"/>
    </contour>
  </outline>
</glyph>
<glyph name="i" format="1">
  <advance width="612"/>
  <unicode hex="0069"/>
  <outline>
    <contour>
      <point x="241" y="644" type="qcurve"/>
      <point x="241" y="673"/>
      <point x="282" y="714"/>
      <point x="311" y="714" type="qcurve"/>
      <point x="340" y="714"/>
      <point x="381" y="673"/>
      <point x="381" y="644" type="qcurve"/>
      <point x="381" y="615"/>
      <point x="340" y="574"/>
      <point x="311" y="574" type="qcurve"/>
      <point x="282" y="574"/>
      <point x="241" y="615"/>
    </contour>
    <contour>
      <point x="99" y="72" type="line"/>
      <point x="273" y="72" type="line"/>
      <point x="273" y="424" type="line"/>
      <point x="117" y="424" type="line"/>
      <point x="117" y="496" type="line"/>
      <point x="351" y="496" type="line"/>
      <point x="351" y="72" type="line"/>
      <point x="513" y="72" type="line"/>
      <point x="513" y="0" type="line"/>
      <point x="99" y="0" type="line"/>
    </contour>
  </outline>
</glyph>
<glyph name="m" format="1">
  <advance width="612"/>
  <unicode hex="006D"/>
  <outline>
    <contour>
      <point x="564" y="0" type="line"/>
      <point x="486" y="0" type="line"/>
      <point x="486" y="356" type="line"/>
      <point x="486" y="391"/>
      <point x="454" y="436"/>
      <point x="419" y="436" type="qcurve"/>
      <point x="386" y="436"/>
      <point x="345" y="387"/>
      <point x="345" y="336" type="qcurve"/>
      <point x="345" y="0" type="line"/>
      <point x="267" y="0" type="line"/>
      <point x="267" y="360" type="line"/>
      <point x="267" y="393"/>
      <point x="231" y="436"/>
      <point x="201" y="436" type="qcurve"/>
      <point x="165" y="436"/>
      <point x="126" y="384"/>
      <point x="126" y="342" type="qcurve"/>
      <point x="126" y="0" type="line"/>
      <point x="48" y="0" type="line"/>
      <point x="48" y="496" type="line"/>
      <point x="126" y="496" type="line"/>
      <point x="126" y="442" type="line"/>
      <point x="138" y="442" type="line"/>
      <point x="151" y="477"/>
      <point x="201" y="510"/>
      <point x="235" y="510" type="qcurve"/>
      <point x="271" y="510"/>
      <point x="318" y="472"/>
      <point x="327" y="442" type="qcurve"/>
      <point x="339" y="442" type="line"/>
      <point x="373" y="510"/>
      <point x="447" y="510" type="qcurve"/>
      <point x="503" y="510"/>
      <point x="564" y="439"/>
      <point x="564" y="382" type="qcurve"/>
    </contour>
  </outline>
</glyph>
<glyph name="o" format="1">
  <advance width="612"/>
  <unicode hex="006F"/>
  <outline>
    <contour>
      <point x="555" y="242" type="line"/>
      <point x="555" y="180"/>
      <point x="514" y="85"/>
      <point x="446" y="20"/>
      <point x="355" y="-14"/>
      <point x="306" y="-14" type="qcurve"/>
      <point x="256" y="-14"/>
      <point x="166" y="20"/>
      <point x="98" y="85"/>
      <point x="57" y="180"/>
      <point x="57" y="242" type="qcurve"/>
      <point x="57" y="254" type="line"/>
      <point x="57" y="315"/>
      <point x="98" y="410"/>
      <point x="167" y="476"/>
      <point x="257" y="510"/>
      <point x="306" y="510" type="qcurve"/>
      <point x="355" y="510"/>
      <point x="445" y="476"/>
      <point x="514" y="410"/>
      <point x="555" y="315"/>
      <point x="555" y="254" type="qcurve"/>
    </contour>
    <contour>
      <point x="306" y="60" type="qcurve"/>
      <point x="342" y="60"/>
      <point x="403" y="85"/>
      <point x="449" y="133"/>
      <point x="475" y="200"/>
      <point x="475" y="242" type="qcurve"/>
      <point x="475" y="254" type="line"/>
      <point x="475" y="294"/>
      <point x="449" y="361"/>
      <point x="403" y="409"/>
      <point x="341" y="436"/>
      <point x="306" y="436" type="qcurve"/>
      <point x="271" y="436"/>
      <point x="209" y="409"/>
      <point x="163" y="361"/>
      <point x="137" y="294"/>
      <point x="137" y="254" type="qcurve"/>
      <point x="137" y="242" type="line"/>
      <point x="137" y="200"/>
      <point x="163" y="133"/>
      <point x="209" y="85"/>
      <point x="270" y="60"/>
    </contour>
  </outline>
</glyph>
<glyph name="p" format="1">
  <advance width="612"/>
  <unicode hex="0070"/>
  <outline>
    <contour>
      <point x="147" y="-200" type="line"/>
      <point x="69" y="-200" type="line"/>
      <point x="69" y="496" type="line"/>
      <point x="147" y="496" type="line"/>
      <point x="147" y="418" type="line"/>
      <point x="159" y="418" type="line"/>
      <point x="185" y="463"/>
      <point x="277" y="510"/>
      <point x="331" y="510" type="qcurve"/>
      <point x="377" y="510"/>
      <point x="459" y="476"/>
      <point x="522" y="412"/>
      <point x="559" y="318"/>
      <point x="559" y="258" type="qcurve"/>
      <point x="559" y="238" type="line"/>
      <point x="559" y="177"/>
      <point x="523" y="83"/>
      <point x="460" y="19"/>
      <point x="376" y="-14"/>
      <point x="329" y="-14" type="qcurve"/>
      <point x="305" y="-14"/>
      <point x="255" y="-3"/>
      <point x="210" y="20"/>
      <point x="172" y="53"/>
      <point x="159" y="76" type="qcurve"/>
      <point x="147" y="76" type="line"/>
    </contour>
    <contour>
      <point x="313" y="60" type="qcurve"/>
      <point x="349" y="60"/>
      <point x="409" y="85"/>
      <point x="454" y="131"/>
      <point x="479" y="197"/>
      <point x="479" y="238" type="qcurve"/>
      <point x="479" y="258" type="line"/>
      <point x="479" y="298"/>
      <point x="454" y="363"/>
      <point x="409" y="410"/>
      <point x="348" y="436"/>
      <point x="313" y="436" type="qcurve"/>
      <point x="278" y="436"/>
      <point x="218" y="409"/>
      <point x="173" y="361"/>
      <point x="147" y="294"/>
      <point x="147" y="254" type="qcurve"/>
      <point x="147" y="242" type="line"/>
      <point x="147" y="201"/>
      <point x="173" y="134"/>
      <point x="218" y="86"/>
      <point x="278" y="60"/>
    </contour>
  </outline>
</glyph>
<glyph name="q" format="1">
  <advance width="612"/>
  <unicode hex="0071"/>
  <outline>
    <contour>
      <point x="467" y="76" type="line"/>
      <point x="455" y="76" type="line"/>
      <point x="442" y="53"/>
      <point x="405" y="20"/>
      <point x="362" y="-3"/>
      <point x="315" y="-14"/>
      <point x="293" y="-14" type="qcurve"/>
      <point x="243" y="-14"/>
      <point x="157" y="20"/>
      <point x="92" y="84"/>
      <point x="55" y="179"/>
      <point x="55" y="240" type="qcurve"/>
      <point x="55" y="256" type="line"/>
      <point x="55" y="316"/>
      <point x="93" y="411"/>
      <point x="157" y="476"/>
      <point x="243" y="510"/>
      <point x="291" y="510" type="qcurve"/>
      <point x="342" y="510"/>
      <point x="429" y="463"/>
      <point x="455" y="418" type="qcurve"/>
      <point x="467" y="418" type="line"/>
      <point x="467" y="496" type="line"/>
      <point x="545" y="496" type="line"/>
      <point x="545" y="-200" type="line"/>
      <point x="467" y="-200" type="line"/>
    </contour>
    <contour>
      <point x="301" y="60" type="qcurve"/>
      <point x="336" y="60"/>
      <point x="396" y="86"/>
      <point x="441" y="134"/>
      <point x="467" y="201"/>
      <point x="467" y="242" type="qcurve"/>
      <point x="467" y="254" type="line"/>
      <point x="467" y="294"/>
      <point x="441" y="361"/>
      <point x="396" y="409"/>
      <point x="335" y="436"/>
      <point x="301" y="436" type="qcurve"/>
      <point x="266" y="436"/>
      <point x="205" y="410"/>
      <point x="160" y="362"/>
      <point x="135" y="296"/>
      <point x="135" y="256" type="qcurve"/>
      <point x="135" y="240" type="line"/>
      <point x="135" y="198"/>
      <point x="160" y="132"/>
      <point x="205" y="85"/>
      <point x="265" y="60"/>
    </contour>
  </outline>
</glyph>
<glyph name="s" format="1">
  <advance width="612"/>
  <unicode hex="0073"/>
  <outline>
    <contour>
      <point x="190" y="368" type="qcurve"/>
      <point x="190" y="332"/>
      <point x="251" y="294"/>
      <point x="332" y="288" type="qcurve"/>
      <point x="419" y="281"/>
      <point x="510" y="212"/>
      <point x="510" y="146" type="qcurve"/>
      <point x="510" y="140" type="line"/>
      <point x="510" y="104"/>
      <point x="481" y="47"/>
      <point x="430" y="7"/>
      <point x="357" y="-14"/>
      <point x="314" y="-14" type="qcurve"/>
      <point x="256" y="-14"/>
      <point x="173" y="17"/>
      <point x="118" y="68"/>
      <point x="90" y="133"/>
      <point x="88" y="166" type="qcurve"/>
      <point x="162" y="184" type="line"/>
      <point x="167" y="127"/>
      <point x="245" y="58"/>
      <point x="310" y="58" type="qcurve"/>
      <point x="365" y="58"/>
      <point x="432" y="101"/>
      <point x="432" y="140" type="qcurve"/>
      <point x="432" y="182"/>
      <point x="366" y="218"/>
      <point x="292" y="223" type="qcurve"/>
      <point x="206" y="229"/>
      <point x="114" y="297"/>
      <point x="114" y="362" type="qcurve"/>
      <point x="114" y="368" type="line"/>
      <point x="114" y="403"/>
      <point x="144" y="456"/>
      <point x="195" y="492"/>
      <point x="259" y="510"/>
      <point x="294" y="510" type="qcurve"/>
      <point x="343" y="510"/>
      <point x="417" y="483"/>
      <point x="467" y="440"/>
      <point x="494" y="384"/>
      <point x="498" y="356" type="qcurve"/>
      <point x="424" y="338" type="line"/>
      <point x="419" y="386"/>
      <point x="352" y="440"/>
      <point x="298" y="440" type="qcurve"/>
      <point x="277" y="440"/>
      <point x="238" y="431"/>
      <point x="208" y="413"/>
      <point x="190" y="386"/>
    </contour>
  </outline>
</glyph>
<glyph name="t" format="1">
  <advance width="612"/>
  <unicode hex="0074"/>
  <outline>
    <contour>
      <point x="70" y="496" type="line"/>
      <point x="226" y="496" type="line"/>
      <point x="226" y="700" type="line"/>
      <point x="304" y="700" type="line"/>
      <point x="304" y="496" type="line"/>
      <point x="496" y="496" type="line"/>
      <point x="496" y="424" type="line"/>
      <point x="304" y="424" type="line"/>
      <point x="304" y="102" type="line"/>
      <point x="304" y="72"/>
      <point x="331" y="72" type="qcurve"/>
      <point x="472" y="72" type="line"/>
      <point x="472" y="0" type="line"/>
      <point x="303" y="0" type="line"/>
      <point x="269" y="0"/>
      <point x="226" y="44"/>
      <point x="226" y="78" type="qcurve"/>
      <point x="226" y="424" type="line"/>
      <point x="70" y="424" type="line"/>
    </contour>
  </outline>
</glyph>
<glyph name="v" format="1">
  <advance width="612"/>
  <unicode hex="0076"/>
  <outline>
    <contour>
      <point x="382" y="0" type="line"/>
      <point x="228" y="0" type="line"/>
      <point x="55" y="496" type="line"/>
      <point x="147" y="496" type="line"/>
      <point x="299" y="36" type="line"/>
      <point x="311" y="36" type="line"/>
      <point x="463" y="496" type="line"/>
      <point x="555" y="496" type="line"/>
    </contour>
  </outline>
</glyph>
<glyph name="bar" format="1">
  <advance width="612"/>
  <unicode hex="007C"/>
  <outline>
    <contour>
      <point x="342" y="-156" type="line"/>
      <point x="270" y="-156" type="line"/>
      <point x="270" y="856" type="line"/>
      <point x="342" y="856" type="line"/>
    </contour>
  </outline>
</glyph>
<glyph name="braceright" format="1">
  <advance width="612"/>
  <unicode hex="007D"/>
  <outline>
    <contour>
      <point x="334" y="433" type="line"/>
      <point x="334" y="404"/>
      <point x="361" y="404" type="qcurve"/>
      <point x="412" y="404" type="line"/>
      <point x="412" y="296" type="line"/>
      <point x="361" y="296" type="line"/>
      <point x="334" y="296"/>
      <point x="334" y="267" type="qcurve"/>
      <point x="334" y="-78" type="line"/>
      <point x="334" y="-112"/>
      <point x="291" y="-156"/>
      <point x="257" y="-156" type="qcurve"/>
      <point x="160" y="-156" type="line"/>
      <point x="160" y="-84" type="line"/>
      <point x="229" y="-84" type="line"/>
      <point x="256" y="-84"/>
      <point x="256" y="-54" type="qcurve"/>
      <point x="256" y="266" type="line"/>
      <point x="256" y="300"/>
      <point x="299" y="344"/>
      <point x="334" y="344" type="qcurve"/>
      <point x="346" y="344" type="line"/>
      <point x="346" y="356" type="line"/>
      <point x="334" y="356" type="line"/>
      <point x="299" y="356"/>
      <point x="256" y="400"/>
      <point x="256" y="434" type="qcurve"/>
      <point x="256" y="754" type="line"/>
      <point x="256" y="784"/>
      <point x="229" y="784" type="qcurve"/>
      <point x="160" y="784" type="line"/>
      <point x="160" y="856" type="line"/>
      <point x="257" y="856" type="line"/>
      <point x="291" y="856"/>
      <point x="334" y="812"/>
      <point x="334" y="778" type="qcurve"/>
    </contour>
  </outline>
</glyph>
<glyph name="cent" format="1">
  <advance width="612"/>
  <unicode hex="00A2"/>
  <outline>
    <contour>
      <point x="351" y="609" type="line"/>
      <point x="432" y="599"/>
      <point x="537" y="497"/>
      <point x="550" y="422" type="qcurve"/>
      <point x="472" y="404" type="line"/>
      <point x="467" y="449"/>
      <point x="407" y="523"/>
      <point x="351" y="534" type="qcurve"/>
      <point x="351" y="165" type="line"/>
      <point x="379" y="170"/>
      <point x="422" y="195"/>
      <point x="452" y="231"/>
      <point x="471" y="273"/>
      <point x="474" y="296" type="qcurve"/>
      <point x="552" y="278" type="line"/>
      <point x="538" y="203"/>
      <point x="434" y="100"/>
      <point x="351" y="90" type="qcurve"/>
      <point x="351" y="28" type="line"/>
      <point x="279" y="28" type="line"/>
      <point x="279" y="90" type="line"/>
      <point x="233" y="96"/>
      <point x="153" y="134"/>
      <point x="94" y="199"/>
      <point x="60" y="287"/>
      <point x="60" y="342" type="qcurve"/>
      <point x="60" y="354" type="line"/>
      <point x="60" y="408"/>
      <point x="94" y="497"/>
      <point x="153" y="563"/>
      <point x="233" y="603"/>
      <point x="279" y="609" type="qcurve"/>
      <point x="279" y="672" type="line"/>
      <point x="351" y="672" type="line"/>
    </contour>
    <contour>
      <point x="140" y="342" type="line"/>
      <point x="140" y="305"/>
      <point x="161" y="245"/>
      <point x="198" y="200"/>
      <point x="249" y="171"/>
      <point x="279" y="165" type="qcurve"/>
      <point x="279" y="534" type="line"/>
      <point x="249" y="528"/>
      <point x="199" y="497"/>
      <point x="161" y="450"/>
      <point x="140" y="389"/>
      <point x="140" y="354" type="qcurve"/>
    </contour>
  </outline>
</glyph>
<glyph name="sterling" format="1">
  <advance width="612"/>
  <unicode hex="00A3"/>
  <outline>
    <contour>
      <point x="248" y="366" type="line"/>
      <point x="338" y="366" type="line"/>
      <point x="338" y="294" type="line"/>
      <point x="248" y="294" type="line"/>
      <point x="248" y="174" type="line"/>
      <point x="490" y="174" type="line"/>
      <point x="490" y="102" type="line"/>
      <point x="110" y="102" type="line"/>
      <point x="110" y="174" type="line"/>
      <point x="170" y="174" type="line"/>
      <point x="170" y="294" type="line"/>
      <point x="110" y="294" type="line"/>
      <point x="110" y="366" type="line"/>
      <point x="170" y="366" type="line"/>
      <point x="170" y="440" type="line"/>
      <point x="170" y="523"/>
      <point x="258" y="612"/>
      <point x="336" y="612" type="qcurve"/>
      <point x="411" y="612"/>
      <point x="502" y="523"/>
      <point x="502" y="440" type="qcurve"/>
      <point x="502" y="416" type="line"/>
      <point x="424" y="416" type="line"/>
      <point x="424" y="440" type="line"/>
      <point x="424" y="491"/>
      <point x="374" y="540"/>
      <point x="336" y="540" type="qcurve"/>
      <point x="298" y="540"/>
      <point x="248" y="491"/>
      <point x="248" y="440" type="qcurve"/>
    </contour>
  </outline>
</glyph>
<glyph name="yen" format="1">
  <advance width="612"/>
  <unicode hex="00A5"/>
  <outline>
    <contour>
      <point x="132" y="366" type="line"/>
      <point x="218" y="366" type="line"/>
      <point x="96" y="598" type="line"/>
      <point x="182" y="598" type="line"/>
      <point x="300" y="366" type="line"/>
      <point x="312" y="366" type="line"/>
      <point x="430" y="598" type="line"/>
      <point x="516" y="598" type="line"/>
      <point x="394" y="366" type="line"/>
      <point x="480" y="366" type="line"/>
      <point x="480" y="294" type="line"/>
      <point x="342" y="294" type="line"/>
      <point x="342" y="258" type="line"/>
      <point x="480" y="258" type="line"/>
      <point x="480" y="186" type="line"/>
      <point x="342" y="186" type="line"/>
      <point x="342" y="102" type="line"/>
      <point x="270" y="102" type="line"/>
      <point x="270" y="186" type="line"/>
      <point x="132" y="186" type="line"/>
      <point x="132" y="258" type="line"/>
      <point x="270" y="258" type="line"/>
      <point x="270" y="294" type="line"/>
      <point x="132" y="294" type="line"/>
    </contour>
  </outline>
</glyph>
<glyph name="section" format="1">
  <advance width="612"/>
  <unicode hex="00A7"/>
  <outline>
    <contour>
      <point x="184" y="494" type="qcurve"/>
      <point x="184" y="510"/>
      <point x="194" y="534"/>
      <point x="202" y="545" type="qcurve"/>
      <point x="195" y="556"/>
      <point x="184" y="586"/>
      <point x="184" y="604" type="qcurve"/>
      <point x="184" y="629"/>
      <point x="204" y="670"/>
      <point x="239" y="699"/>
      <point x="285" y="714"/>
      <point x="312" y="714" type="qcurve"/>
      <point x="343" y="714"/>
      <point x="391" y="695"/>
      <point x="423" y="665"/>
      <point x="439" y="625"/>
      <point x="439" y="604" type="qcurve"/>
      <point x="439" y="588" type="line"/>
      <point x="371" y="588" type="line"/>
      <point x="371" y="594" type="line"/>
      <point x="371" y="615"/>
      <point x="337" y="648"/>
      <point x="308" y="648" type="qcurve"/>
      <point x="282" y="648"/>
      <point x="254" y="624"/>
      <point x="254" y="605" type="qcurve"/>
      <point x="254" y="587"/>
      <point x="289" y="563"/>
      <point x="340" y="554" type="qcurve"/>
      <point x="392" y="545"/>
      <point x="445" y="495"/>
      <point x="445" y="448" type="qcurve"/>
      <point x="445" y="433"/>
      <point x="435" y="408"/>
      <point x="428" y="395" type="qcurve"/>
      <point x="445" y="371"/>
      <point x="445" y="336" type="qcurve"/>
      <point x="445" y="285"/>
      <point x="373" y="218"/>
      <point x="312" y="218" type="qcurve"/>
      <point x="243" y="218"/>
      <point x="172" y="292"/>
      <point x="172" y="347" type="qcurve"/>
      <point x="172" y="359" type="line"/>
      <point x="240" y="359" type="line"/>
      <point x="240" y="353" type="line"/>
      <point x="240" y="325"/>
      <point x="276" y="284"/>
      <point x="314" y="284" type="qcurve"/>
      <point x="349" y="284"/>
      <point x="375" y="314"/>
      <point x="375" y="331" type="qcurve"/>
      <point x="375" y="351"/>
      <point x="342" y="377"/>
      <point x="294" y="386" type="qcurve"/>
      <point x="273" y="390"/>
      <point x="234" y="403"/>
      <point x="203" y="427"/>
      <point x="184" y="465"/>
    </contour>
    <contour>
      <point x="340" y="441" type="qcurve"/>
      <point x="348" y="439"/>
      <point x="367" y="434"/>
      <point x="374" y="432" type="qcurve"/>
      <point x="375" y="434"/>
      <point x="375" y="443"/>
      <point x="375" y="445" type="qcurve"/>
      <point x="375" y="463"/>
      <point x="342" y="490"/>
      <point x="294" y="499" type="qcurve"/>
      <point x="285" y="501"/>
      <point x="265" y="506"/>
      <point x="256" y="509" type="qcurve"/>
      <point x="255" y="507"/>
      <point x="254" y="496"/>
      <point x="254" y="493" type="qcurve"/>
      <point x="254" y="476"/>
      <point x="289" y="450"/>
    </contour>
  </outline>
</glyph>
<glyph name="ordfeminine" format="1">
  <advance width="612"/>
  <unicode hex="00AA"/>
  <outline>
    <contour>
      <point x="373" y="452" type="line"/>
      <point x="363" y="428"/>
      <point x="316" y="406"/>
      <point x="289" y="406" type="qcurve"/>
      <point x="262" y="406"/>
      <point x="214" y="426"/>
      <point x="178" y="464"/>
      <point x="157" y="520"/>
      <point x="157" y="556" type="qcurve"/>
      <point x="157" y="592"/>
      <point x="178" y="647"/>
      <point x="214" y="686"/>
      <point x="263" y="706"/>
      <point x="291" y="706" type="qcurve"/>
      <point x="350" y="706"/>
      <point x="373" y="666" type="qcurve"/>
      <point x="379" y="666" type="line"/>
      <point x="379" y="698" type="line"/>
      <point x="445" y="698" type="line"/>
      <point x="445" y="489" type="line"/>
      <point x="445" y="472"/>
      <point x="461" y="472" type="qcurve"/>
      <point x="475" y="472" type="line"/>
      <point x="475" y="412" type="line"/>
      <point x="427" y="412" type="line"/>
      <point x="407" y="412"/>
      <point x="381" y="432"/>
      <point x="379" y="452" type="qcurve"/>
    </contour>
    <contour>
      <point x="301" y="466" type="qcurve"/>
      <point x="333" y="466"/>
      <point x="379" y="509"/>
      <point x="379" y="556" type="qcurve"/>
      <point x="379" y="601"/>
      <point x="336" y="646"/>
      <point x="301" y="646" type="qcurve"/>
      <point x="265" y="646"/>
      <point x="223" y="595"/>
      <point x="223" y="556" type="qcurve"/>
      <point x="223" y="512"/>
      <point x="265" y="466"/>
    </contour>
  </outline>
</glyph>
<glyph name="registered" format="1">
  <advance width="612"/>
  <unicode hex="00AE"/>
  <outline>
    <contour>
      <point x="58" y="556" type="qcurve"/>
      <point x="58" y="607"/>
      <point x="97" y="698"/>
      <point x="164" y="765"/>
      <point x="255" y="804"/>
      <point x="306" y="804" type="qcurve"/>
      <point x="357" y="804"/>
      <point x="448" y="765"/>
      <point x="515" y="698"/>
      <point x="554" y="607"/>
      <point x="554" y="556" type="qcurve"/>
      <point x="554" y="505"/>
      <point x="515" y="414"/>
      <point x="448" y="347"/>
      <point x="357" y="308"/>
      <point x="306" y="308" type="qcurve"/>
      <point x="255" y="308"/>
      <point x="164" y="347"/>
      <point x="97" y="414"/>
      <point x="58" y="505"/>
    </contour>
    <contour>
      <point x="106" y="556" type="qcurve"/>
      <point x="106" y="514"/>
      <point x="137" y="441"/>
      <point x="191" y="387"/>
      <point x="264" y="356"/>
      <point x="306" y="356" type="qcurve"/>
      <point x="348" y="356"/>
      <point x="421" y="387"/>
      <point x="475" y="441"/>
      <point x="506" y="514"/>
      <point x="506" y="556" type="qcurve"/>
      <point x="506" y="598"/>
      <point x="475" y="671"/>
      <point x="421" y="725"/>
      <point x="348" y="756"/>
      <point x="306" y="756" type="qcurve"/>
      <point x="264" y="756"/>
      <point x="191" y="725"/>
      <point x="137" y="671"/>
      <point x="106" y="598"/>
    </contour>
    <contour>
      <point x="402" y="412" type="line"/>
      <point x="348" y="412" type="line"/>
      <point x="348" y="495" type="line"/>
      <point x="348" y="506"/>
      <point x="335" y="520"/>
      <point x="323" y="520" type="qcurve"/>
      <point x="276" y="520" type="line"/>
      <point x="276" y="412" type="line"/>
      <point x="222" y="412" type="line"/>
      <point x="222" y="700" type="line"/>
      <point x="318" y="700" type="line"/>
      <point x="363" y="700"/>
      <point x="408" y="652"/>
      <point x="408" y="620" type="qcurve"/>
      <point x="408" y="594"/>
      <point x="391" y="559"/>
      <point x="368" y="549" type="qcurve"/>
      <point x="368" y="543" type="line"/>
      <point x="386" y="541"/>
      <point x="402" y="516"/>
      <point x="402" y="502" type="qcurve"/>
    </contour>
    <contour>
      <point x="276" y="568" type="line"/>
      <point x="308" y="568" type="line"/>
      <point x="331" y="568"/>
      <point x="354" y="593"/>
      <point x="354" y="612" type="qcurve"/>
      <point x="354" y="631"/>
      <point x="331" y="653"/>
      <point x="308" y="653" type="qcurve"/>
      <point x="276" y="653" type="line"/>
    </contour>
  </outline>
</glyph>
<glyph name="threesuperior" format="1">
  <advance width="612"/>
  <unicode hex="00B3"/>
  <outline>
    <contour>
      <point x="276" y="542" type="line"/>
      <point x="276" y="618" type="line"/>
      <point x="358" y="646" type="line"/>
      <point x="358" y="652" type="line"/>
      <point x="213" y="652" type="line"/>
      <point x="213" y="700" type="line"/>
      <point x="400" y="700" type="line"/>
      <point x="400" y="616" type="line"/>
      <point x="318" y="588" type="line"/>
      <point x="318" y="582" type="line"/>
      <point x="324" y="582" type="line"/>
      <point x="360" y="582"/>
      <point x="408" y="541"/>
      <point x="408" y="502" type="qcurve"/>
      <point x="408" y="459"/>
      <point x="353" y="406"/>
      <point x="308" y="406" type="qcurve"/>
      <point x="260" y="406"/>
      <point x="204" y="463"/>
      <point x="204" y="502" type="qcurve"/>
      <point x="204" y="518" type="line"/>
      <point x="258" y="518" type="line"/>
      <point x="258" y="504" type="line"/>
      <point x="258" y="481"/>
      <point x="283" y="454"/>
      <point x="306" y="454" type="qcurve"/>
      <point x="329" y="454"/>
      <point x="354" y="478"/>
      <point x="354" y="498" type="qcurve"/>
      <point x="354" y="522"/>
      <point x="325" y="542"/>
      <point x="308" y="542" type="qcurve"/>
    </contour>
  </outline>
</glyph>
<glyph name="mu" format="1">
  <advance width="612"/>
  <unicode hex="00B5"/>
  <outline>
    <contour>
      <point x="447" y="60" type="line"/>
      <point x="435" y="60" type="line"/>
      <point x="424" y="32"/>
      <point x="362" y="-14"/>
      <point x="306" y="-14" type="qcurve"/>
      <point x="250" y="-14"/>
      <point x="188" y="32"/>
      <point x="177" y="60" type="qcurve"/>
      <point x="165" y="60" type="line"/>
      <point x="165" y="-200" type="line"/>
      <point x="87" y="-200" type="line"/>
      <point x="87" y="496" type="line"/>
      <point x="165" y="496" type="line"/>
      <point x="165" y="216" type="line"/>
      <point x="165" y="138"/>
      <point x="246" y="60"/>
      <point x="306" y="60" type="qcurve"/>
      <point x="366" y="60"/>
      <point x="447" y="138"/>
      <point x="447" y="216" type="qcurve"/>
      <point x="447" y="496" type="line"/>
      <point x="525" y="496" type="line"/>
      <point x="525" y="0" type="line"/>
      <point x="447" y="0" type="line"/>
    </contour>
  </outline>
</glyph>
<glyph name="cedilla" format="1">
  <advance width="612"/>
  <unicode hex="00B8"/>
  <outline>
    <contour>
      <point x="281" y="0" type="line"/>
      <point x="266" y="-68" type="line"/>
      <point x="272" y="-68" type="line"/>
      <point x="285" y="-36"/>
      <point x="326" y="-36" type="qcurve"/>
      <point x="361" y="-36"/>
      <point x="402" y="-86"/>
      <point x="402" y="-121" type="qcurve"/>
      <point x="402" y="-163"/>
      <point x="348" y="-212"/>
      <point x="309" y="-212" type="qcurve"/>
      <point x="266" y="-212"/>
      <point x="220" y="-172"/>
      <point x="212" y="-142" type="qcurve"/>
      <point x="260" y="-124" type="line"/>
      <point x="263" y="-139"/>
      <point x="286" y="-164"/>
      <point x="308" y="-164" type="qcurve"/>
      <point x="323" y="-164"/>
      <point x="348" y="-144"/>
      <point x="348" y="-122" type="qcurve"/>
      <point x="348" y="-104"/>
      <point x="327" y="-84"/>
      <point x="313" y="-84" type="qcurve"/>
      <point x="295" y="-84"/>
      <point x="288" y="-98" type="qcurve"/>
      <point x="212" y="-98" type="line"/>
      <point x="212" y="-92" type="line"/>
      <point x="232" y="0" type="line"/>
    </contour>
  </outline>
</glyph>
<glyph name="Eth" format="1">
  <advance width="612"/>
  <unicode hex="00D0"/>
  <outline>
    <contour>
      <point x="73" y="389" type="line"/>
      <point x="133" y="389" type="line"/>
      <point x="133" y="622" type="line"/>
      <point x="73" y="622" type="line"/>
      <point x="73" y="700" type="line"/>
      <point x="303" y="700" type="line"/>
      <point x="433" y="700"/>
      <point x="553" y="576"/>
      <point x="553" y="440" type="qcurve"/>
      <point x="553" y="260" type="line"/>
      <point x="553" y="124"/>
      <point x="433" y="0"/>
      <point x="303" y="0" type="qcurve"/>
      <point x="73" y="0" type="line"/>
      <point x="73" y="78" type="line"/>
      <point x="133" y="78" type="line"/>
      <point x="133" y="311" type="line"/>
      <point x="73" y="311" type="line"/>
    </contour>
    <contour>
      <point x="291" y="78" type="line"/>
      <point x="337" y="78"/>
      <point x="404" y="96"/>
      <point x="448" y="139"/>
      <point x="469" y="211"/>
      <point x="469" y="266" type="qcurve"/>
      <point x="469" y="434" type="line"/>
      <point x="469" y="489"/>
      <point x="448" y="561"/>
      <point x="404" y="604"/>
      <point x="337" y="622"/>
      <point x="291" y="622" type="qcurve"/>
      <point x="217" y="622" type="line"/>
      <point x="217" y="389" type="line"/>
      <point x="325" y="389" type="line"/>
      <point x="325" y="311" type="line"/>
      <point x="217" y="311" type="line"/>
      <point x="217" y="78" type="line"/>
    </contour>
  </outline>
</glyph>
<glyph name="Thorn" format="1">
  <advance width="612"/>
  <unicode hex="00DE"/>
  <outline>
    <contour>
      <point x="169" y="150" type="line"/>
      <point x="169" y="0" type="line"/>
      <point x="85" y="0" type="line"/>
      <point x="85" y="700" type="line"/>
      <point x="169" y="700" type="line"/>
      <point x="169" y="562" type="line"/>
      <point x="335" y="562" type="line"/>
      <point x="389" y="562"/>
      <point x="469" y="531"/>
      <point x="522" y="479"/>
      <point x="549" y="410"/>
      <point x="549" y="372" type="qcurve"/>
      <point x="549" y="342" type="line"/>
      <point x="549" y="304"/>
      <point x="522" y="234"/>
      <point x="468" y="181"/>
      <point x="388" y="150"/>
      <point x="335" y="150" type="qcurve"/>
    </contour>
    <contour>
      <point x="169" y="228" type="line"/>
      <point x="325" y="228" type="line"/>
      <point x="465" y="228"/>
      <point x="465" y="348" type="qcurve"/>
      <point x="465" y="366" type="line"/>
      <point x="465" y="419"/>
      <point x="396" y="484"/>
      <point x="325" y="484" type="qcurve"/>
      <point x="169" y="484" type="line"/>
    </contour>
  </outline>
</glyph>
<glyph name="eth" format="1">
  <advance width="612"/>
  <unicode hex="00F0"/>
  <outline>
    <contour>
      <point x="265" y="616" type="line"/>
      <point x="215" y="634"/>
      <point x="160" y="640" type="qcurve"/>
      <point x="178" y="714" type="line"/>
      <point x="240" y="705"/>
      <point x="298" y="685" type="qcurve"/>
      <point x="316" y="722" type="line"/>
      <point x="379" y="693" type="line"/>
      <point x="361" y="656" type="line"/>
      <point x="412" y="628"/>
      <point x="486" y="546"/>
      <point x="533" y="446"/>
      <point x="555" y="331"/>
      <point x="555" y="271" type="qcurve"/>
      <point x="555" y="199"/>
      <point x="516" y="92"/>
      <point x="448" y="21"/>
      <point x="358" y="-14"/>
      <point x="306" y="-14" type="qcurve"/>
      <point x="256" y="-14"/>
      <point x="166" y="20"/>
      <point x="98" y="85"/>
      <point x="57" y="180"/>
      <point x="57" y="242" type="qcurve"/>
      <point x="57" y="254" type="line"/>
      <point x="57" y="315"/>
      <point x="97" y="410"/>
      <point x="164" y="476"/>
      <point x="249" y="510"/>
      <point x="294" y="510" type="qcurve"/>
      <point x="345" y="510"/>
      <point x="418" y="470"/>
      <point x="436" y="440" type="qcurve"/>
      <point x="448" y="440" type="line"/>
      <point x="434" y="489"/>
      <point x="371" y="562"/>
      <point x="329" y="587" type="qcurve"/>
      <point x="310" y="547" type="line"/>
      <point x="246" y="576" type="line"/>
    </contour>
    <contour>
      <point x="306" y="60" type="qcurve"/>
      <point x="342" y="60"/>
      <point x="403" y="86"/>
      <point x="449" y="135"/>
      <point x="475" y="207"/>
      <point x="475" y="254" type="qcurve"/>
      <point x="475" y="294"/>
      <point x="449" y="361"/>
      <point x="403" y="409"/>
      <point x="341" y="436"/>
      <point x="306" y="436" type="qcurve"/>
      <point x="271" y="436"/>
      <point x="209" y="409"/>
      <point x="163" y="361"/>
      <point x="137" y="294"/>
      <point x="137" y="254" type="qcurve"/>
      <point x="137" y="242" type="line"/>
      <point x="137" y="200"/>
      <point x="163" y="133"/>
      <point x="209" y="85"/>
      <point x="270" y="60"/>
    </contour>
  </outline>
</glyph>
<glyph name="oslash" format="1">
  <advance width="612"/>
  <unicode hex="00F8"/>
  <outline>
    <contour>
      <point x="555" y="242" type="line"/>
      <point x="555" y="180"/>
      <point x="514" y="85"/>
      <point x="446" y="20"/>
      <point x="355" y="-14"/>
      <point x="306" y="-14" type="qcurve"/>
      <point x="280" y="-14"/>
      <point x="261" y="-10" type="qcurve"/>
      <point x="242" y="-68" type="line"/>
      <point x="171" y="-46" type="line"/>
      <point x="190" y="12" type="line"/>
      <point x="131" y="41"/>
      <point x="57" y="157"/>
      <point x="57" y="242" type="qcurve"/>
      <point x="57" y="254" type="line"/>
      <point x="57" y="315"/>
      <point x="98" y="410"/>
      <point x="167" y="476"/>
      <point x="257" y="510"/>
      <point x="306" y="510" type="qcurve"/>
      <point x="317" y="510"/>
      <point x="341" y="508"/>
      <point x="352" y="506" type="qcurve"/>
      <point x="369" y="558" type="line"/>
      <point x="439" y="536" type="line"/>
      <point x="422" y="483" type="line"/>
      <point x="480" y="454"/>
      <point x="555" y="338"/>
      <point x="555" y="254" type="qcurve"/>
    </contour>
    <contour>
      <point x="137" y="242" type="line"/>
      <point x="137" y="188"/>
      <point x="179" y="109"/>
      <point x="214" y="86" type="qcurve"/>
      <point x="328" y="435" type="line"/>
      <point x="323" y="436"/>
      <point x="311" y="436"/>
      <point x="306" y="436" type="qcurve"/>
      <point x="271" y="436"/>
      <point x="209" y="409"/>
      <point x="163" y="361"/>
      <point x="137" y="294"/>
      <point x="137" y="254" type="qcurve"/>
    </contour>
    <contour>
      <point x="306" y="60" type="qcurve"/>
      <point x="342" y="60"/>
      <point x="403" y="85"/>
      <point x="449" y="133"/>
      <point x="475" y="200"/>
      <point x="475" y="242" type="qcurve"/>
      <point x="475" y="254" type="line"/>
      <point x="475" y="306"/>
      <point x="432" y="386"/>
      <point x="397" y="409" type="qcurve"/>
      <point x="284" y="61" type="line"/>
      <point x="289" y="60"/>
      <point x="300" y="60"/>
    </contour>
  </outline>
</glyph>
<glyph name="dcaron" format="1">
  <advance width="612"/>
  <unicode hex="010F"/>
  <outline>
    <contour>
      <point x="340" y="58" type="line"/>
      <point x="328" y="58" type="line"/>
      <point x="317" y="26"/>
      <point x="261" y="-14"/>
      <point x="210" y="-14" type="qcurve"/>
      <point x="170" y="-14"/>
      <point x="102" y="19"/>
      <point x="52" y="83"/>
      <point x="24" y="178"/>
      <point x="24" y="240" type="qcurve"/>
      <point x="24" y="256" type="line"/>
      <point x="24" y="320"/>
      <point x="53" y="415"/>
      <point x="104" y="478"/>
      <point x="172" y="510"/>
      <point x="210" y="510" type="qcurve"/>
      <point x="257" y="510"/>
      <point x="314" y="472"/>
      <point x="328" y="442" type="qcurve"/>
      <point x="340" y="442" type="line"/>
      <point x="340" y="700" type="line"/>
      <point x="418" y="700" type="line"/>
      <point x="418" y="0" type="line"/>
      <point x="340" y="0" type="line"/>
    </contour>
    <contour>
      <point x="220" y="60" type="qcurve"/>
      <point x="254" y="60"/>
      <point x="300" y="88"/>
      <point x="328" y="136"/>
      <point x="340" y="203"/>
      <point x="340" y="242" type="qcurve"/>
      <point x="340" y="254" type="line"/>
      <point x="340" y="291"/>
      <point x="329" y="358"/>
      <point x="302" y="407"/>
      <point x="256" y="436"/>
      <point x="222" y="436" type="qcurve"/>
      <point x="167" y="436"/>
      <point x="104" y="345"/>
      <point x="104" y="256" type="qcurve"/>
      <point x="104" y="240" type="line"/>
      <point x="104" y="152"/>
      <point x="165" y="60"/>
    </contour>
    <contour>
      <point x="454" y="630" type="qcurve"/>
      <point x="454" y="659"/>
      <point x="495" y="700"/>
      <point x="524" y="700" type="qcurve"/>
      <point x="553" y="700"/>
      <point x="594" y="659"/>
      <point x="594" y="630" type="qcurve"/>
      <point x="594" y="532" type="line"/>
      <point x="594" y="498"/>
      <point x="551" y="454"/>
      <point x="517" y="454" type="qcurve"/>
      <point x="466" y="454" type="line"/>
      <point x="466" y="508" type="line"/>
      <point x="513" y="508" type="line"/>
      <point x="540" y="508"/>
      <point x="540" y="538" type="qcurve"/>
      <point x="540" y="563" type="line"/>
      <point x="532" y="560"/>
      <point x="523" y="560" type="qcurve"/>
      <point x="495" y="560"/>
      <point x="454" y="601"/>
    </contour>
  </outline>
</glyph>
<glyph name="dcroat" format="1">
  <advance width="612"/>
  <unicode hex="0111"/>
  <outline>
    <contour>
      <point x="295" y="634" type="line"/>
      <point x="471" y="634" type="line"/>
      <point x="471" y="700" type="line"/>
      <point x="549" y="700" type="line"/>
      <point x="549" y="634" type="line"/>
      <point x="609" y="634" type="line"/>
      <point x="609" y="562" type="line"/>
      <point x="549" y="562" type="line"/>
      <point x="549" y="0" type="line"/>
      <point x="471" y="0" type="line"/>
      <point x="471" y="76" type="line"/>
      <point x="459" y="76" type="line"/>
      <point x="447" y="53"/>
      <point x="410" y="19"/>
      <point x="367" y="-3"/>
      <point x="319" y="-14"/>
      <point x="297" y="-14" type="qcurve"/>
      <point x="247" y="-14"/>
      <point x="161" y="20"/>
      <point x="96" y="84"/>
      <point x="59" y="179"/>
      <point x="59" y="240" type="qcurve"/>
      <point x="59" y="256" type="line"/>
      <point x="59" y="316"/>
      <point x="97" y="411"/>
      <point x="161" y="476"/>
      <point x="247" y="510"/>
      <point x="295" y="510" type="qcurve"/>
      <point x="346" y="510"/>
      <point x="435" y="465"/>
      <point x="459" y="418" type="qcurve"/>
      <point x="471" y="418" type="line"/>
      <point x="471" y="562" type="line"/>
      <point x="295" y="562" type="line"/>
    </contour>
    <contour>
      <point x="305" y="60" type="qcurve"/>
      <point x="340" y="60"/>
      <point x="400" y="86"/>
      <point x="445" y="134"/>
      <point x="471" y="201"/>
      <point x="471" y="242" type="qcurve"/>
      <point x="471" y="254" type="line"/>
      <point x="471" y="294"/>
      <point x="445" y="361"/>
      <point x="400" y="409"/>
      <point x="339" y="436"/>
      <point x="305" y="436" type="qcurve"/>
      <point x="270" y="436"/>
      <point x="209" y="410"/>
      <point x="164" y="362"/>
      <point x="139" y="296"/>
      <point x="139" y="256" type="qcurve"/>
      <point x="139" y="240" type="line"/>
      <point x="139" y="198"/>
      <point x="164" y="132"/>
      <point x="209" y="85"/>
      <point x="269" y="60"/>
    </contour>
  </outline>
</glyph>
<glyph name="eogonek" format="1">
  <advance width="612"/>
  <unicode hex="0119"/>
  <outline>
    <contour>
      <point x="143" y="224" type="line"/>
      <point x="146" y="150"/>
      <point x="232" y="60"/>
      <point x="309" y="60" type="qcurve"/>
      <point x="344" y="60"/>
      <point x="396" y="76"/>
      <point x="433" y="104"/>
      <point x="456" y="141"/>
      <point x="463" y="162" type="qcurve"/>
      <point x="537" y="142" type="line"/>
      <point x="517" y="79"/>
      <point x="420" y="-4"/>
      <point x="339" y="-12" type="qcurve"/>
      <point x="326" y="-68" type="line"/>
      <point x="325" y="-73"/>
      <point x="325" y="-76" type="qcurve"/>
      <point x="325" y="-98"/>
      <point x="348" y="-98" type="qcurve"/>
      <point x="390" y="-98" type="line"/>
      <point x="390" y="-164" type="line"/>
      <point x="334" y="-164" type="line"/>
      <point x="305" y="-164"/>
      <point x="256" y="-127"/>
      <point x="256" y="-90" type="qcurve"/>
      <point x="256" y="-81"/>
      <point x="259" y="-66" type="qcurve"/>
      <point x="271" y="-12" type="line"/>
      <point x="225" y="-6"/>
      <point x="149" y="36"/>
      <point x="95" y="102"/>
      <point x="65" y="190"/>
      <point x="65" y="242" type="qcurve"/>
      <point x="65" y="266" type="line"/>
      <point x="65" y="318"/>
      <point x="102" y="408"/>
      <point x="168" y="473"/>
      <point x="257" y="510"/>
      <point x="309" y="510" type="qcurve"/>
      <point x="370" y="510"/>
      <point x="459" y="465"/>
      <point x="516" y="399"/>
      <point x="543" y="321"/>
      <point x="543" y="288" type="qcurve"/>
      <point x="543" y="224" type="line"/>
    </contour>
    <contour>
      <point x="309" y="436" type="qcurve"/>
      <point x="276" y="436"/>
      <point x="219" y="415"/>
      <point x="176" y="377"/>
      <point x="149" y="326"/>
      <point x="145" y="296" type="qcurve"/>
      <point x="465" y="296" type="line"/>
      <point x="463" y="328"/>
      <point x="436" y="380"/>
      <point x="393" y="416"/>
      <point x="338" y="436"/>
    </contour>
  </outline>
</glyph>
<glyph name="Hbar" format="1">
  <advance width="612"/>
  <unicode hex="0126"/>
  <outline>
    <contour>
      <point x="73" y="496" type="line"/>
      <point x="13" y="496" type="line"/>
      <point x="13" y="574" type="line"/>
      <point x="73" y="574" type="line"/>
      <point x="73" y="700" type="line"/>
      <point x="157" y="700" type="line"/>
      <point x="157" y="574" type="line"/>
      <point x="455" y="574" type="line"/>
      <point x="455" y="700" type="line"/>
      <point x="539" y="700" type="line"/>
      <point x="539" y="574" type="line"/>
      <point x="599" y="574" type="line"/>
      <point x="599" y="496" type="line"/>
      <point x="539" y="496" type="line"/>
      <point x="539" y="0" type="line"/>
      <point x="455" y="0" type="line"/>
      <point x="455" y="312" type="line"/>
      <point x="157" y="312" type="line"/>
      <point x="157" y="0" type="line"/>
      <point x="73" y="0" type="line"/>
    </contour>
    <contour>
      <point x="455" y="390" type="line"/>
      <point x="455" y="496" type="line"/>
      <point x="157" y="496" type="line"/>
      <point x="157" y="390" type="line"/>
    </contour>
  </outline>
</glyph>
<glyph name="iogonek" format="1">
  <advance width="612"/>
  <unicode hex="012F"/>
  <outline>
    <contour>
      <point x="99" y="72" type="line"/>
      <point x="273" y="72" type="line"/>
      <point x="273" y="424" type="line"/>
      <point x="117" y="424" type="line"/>
      <point x="117" y="496" type="line"/>
      <point x="351" y="496" type="line"/>
      <point x="351" y="72" type="line"/>
      <point x="513" y="72" type="line"/>
      <point x="513" y="0" type="line"/>
      <point x="497" y="-68" type="line"/>
      <point x="496" y="-73"/>
      <point x="496" y="-76" type="qcurve"/>
      <point x="496" y="-98"/>
      <point x="519" y="-98" type="qcurve"/>
      <point x="561" y="-98" type="line"/>
      <point x="561" y="-164" type="line"/>
      <point x="505" y="-164" type="line"/>
      <point x="475" y="-164"/>
      <point x="427" y="-127"/>
      <point x="427" y="-90" type="qcurve"/>
      <point x="427" y="-81"/>
      <point x="430" y="-66" type="qcurve"/>
      <point x="444" y="0" type="line"/>
      <point x="99" y="0" type="line"/>
    </contour>
    <contour>
      <point x="241" y="644" type="qcurve"/>
      <point x="241" y="673"/>
      <point x="282" y="714"/>
      <point x="311" y="714" type="qcurve"/>
      <point x="340" y="714"/>
      <point x="381" y="673"/>
      <point x="381" y="644" type="qcurve"/>
      <point x="381" y="615"/>
      <point x="340" y="574"/>
      <point x="311" y="574" type="qcurve"/>
      <point x="282" y="574"/>
      <point x="241" y="615"/>
    </contour>
  </outline>
</glyph>
<glyph name="ij" format="1">
  <advance width="612"/>
  <unicode hex="0133"/>
  <outline>
    <contour>
      <point x="416" y="644" type="qcurve"/>
      <point x="416" y="673"/>
      <point x="457" y="714"/>
      <point x="486" y="714" type="qcurve"/>
      <point x="515" y="714"/>
      <point x="556" y="673"/>
      <point x="556" y="644" type="qcurve"/>
      <point x="556" y="615"/>
      <point x="515" y="574"/>
      <point x="486" y="574" type="qcurve"/>
      <point x="457" y="574"/>
      <point x="416" y="615"/>
    </contour>
    <contour>
      <point x="56" y="644" type="qcurve"/>
      <point x="56" y="673"/>
      <point x="97" y="714"/>
      <point x="126" y="714" type="qcurve"/>
      <point x="155" y="714"/>
      <point x="196" y="673"/>
      <point x="196" y="644" type="qcurve"/>
      <point x="196" y="615"/>
      <point x="155" y="574"/>
      <point x="126" y="574" type="qcurve"/>
      <point x="97" y="574"/>
      <point x="56" y="615"/>
    </contour>
    <contour>
      <point x="447" y="90" type="line"/>
      <point x="435" y="90" type="line"/>
      <point x="411" y="42"/>
      <point x="333" y="-14"/>
      <point x="273" y="-14" type="qcurve"/>
      <point x="232" y="-14"/>
      <point x="163" y="13"/>
      <point x="114" y="67"/>
      <point x="87" y="147"/>
      <point x="87" y="200" type="qcurve"/>
      <point x="87" y="496" type="line"/>
      <point x="165" y="496" type="line"/>
      <point x="165" y="210" type="line"/>
      <point x="165" y="132"/>
      <point x="229" y="60"/>
      <point x="295" y="60" type="qcurve"/>
      <point x="366" y="60"/>
      <point x="447" y="157"/>
      <point x="447" y="238" type="qcurve"/>
      <point x="447" y="496" type="line"/>
      <point x="525" y="496" type="line"/>
      <point x="525" y="-122" type="line"/>
      <point x="525" y="-156"/>
      <point x="482" y="-200"/>
      <point x="448" y="-200" type="qcurve"/>
      <point x="225" y="-200" type="line"/>
      <point x="225" y="-128" type="line"/>
      <point x="420" y="-128" type="line"/>
      <point x="447" y="-128"/>
      <point x="447" y="-98" type="qcurve"/>
    </contour>
  </outline>
</glyph>
<glyph name="jcircumflex" format="1">
  <advance width="612"/>
  <unicode hex="0135"/>
  <outline>
    <contour>
      <point x="158" y="496" type="line"/>
      <point x="434" y="496" type="line"/>
      <point x="434" y="-122" type="line"/>
      <point x="434" y="-156"/>
      <point x="391" y="-200"/>
      <point x="357" y="-200" type="qcurve"/>
      <point x="134" y="-200" type="line"/>
      <point x="134" y="-128" type="line"/>
      <point x="329" y="-128" type="line"/>
      <point x="356" y="-128"/>
      <point x="356" y="-98" type="qcurve"/>
      <point x="356" y="424" type="line"/>
      <point x="158" y="424" type="line"/>
    </contour>
    <component base="circumflex" xOffset="-10"/>
  </outline>
</glyph>
<glyph name="napostrophe" format="1">
  <advance width="612"/>
  <unicode hex="0149"/>
  <outline>
    <contour>
      <point x="75" y="750" type="qcurve"/>
      <point x="75" y="779"/>
      <point x="116" y="820"/>
      <point x="145" y="820" type="qcurve"/>
      <point x="174" y="820"/>
      <point x="215" y="779"/>
      <point x="215" y="750" type="qcurve"/>
      <point x="215" y="652" type="line"/>
      <point x="215" y="618"/>
      <point x="172" y="574"/>
      <point x="138" y="574" type="qcurve"/>
      <point x="87" y="574" type="line"/>
      <point x="87" y="628" type="line"/>
      <point x="134" y="628" type="line"/>
      <point x="161" y="628"/>
      <point x="161" y="658" type="qcurve"/>
      <point x="161" y="683" type="line"/>
      <point x="153" y="680"/>
      <point x="144" y="680" type="qcurve"/>
      <point x="116" y="680"/>
      <point x="75" y="721"/>
    </contour>
    <component base="n"/>
  </outline>
</glyph>
<glyph name="OE" format="1">
  <advance width="612"/>
  <unicode hex="0152"/>
  <outline>
    <contour>
      <point x="300" y="0" type="line"/>
      <point x="184" y="0"/>
      <point x="54" y="146"/>
      <point x="54" y="286" type="qcurve"/>
      <point x="54" y="414" type="line"/>
      <point x="54" y="550"/>
      <point x="184" y="700"/>
      <point x="300" y="700" type="qcurve"/>
      <point x="540" y="700" type="line"/>
      <point x="540" y="622" type="line"/>
      <point x="384" y="622" type="line"/>
      <point x="384" y="390" type="line"/>
      <point x="534" y="390" type="line"/>
      <point x="534" y="312" type="line"/>
      <point x="384" y="312" type="line"/>
      <point x="384" y="78" type="line"/>
      <point x="546" y="78" type="line"/>
      <point x="546" y="0" type="line"/>
    </contour>
    <contour>
      <point x="300" y="622" type="line"/>
      <point x="219" y="622"/>
      <point x="138" y="504"/>
      <point x="138" y="408" type="qcurve"/>
      <point x="138" y="292" type="line"/>
      <point x="138" y="189"/>
      <point x="219" y="78"/>
      <point x="300" y="78" type="qcurve"/>
    </contour>
  </outline>
</glyph>
<glyph name="longs" format="1">
  <advance width="612"/>
  <unicode hex="017F"/>
  <outline>
    <contour>
      <point x="180" y="496" type="line"/>
      <point x="240" y="496" type="line"/>
      <point x="240" y="622" type="line"/>
      <point x="240" y="656"/>
      <point x="283" y="700"/>
      <point x="317" y="700" type="qcurve"/>
      <point x="513" y="700" type="line"/>
      <point x="513" y="628" type="line"/>
      <point x="345" y="628" type="line"/>
      <point x="318" y="628"/>
      <point x="318" y="598" type="qcurve"/>
      <point x="318" y="0" type="line"/>
      <point x="240" y="0" type="line"/>
      <point x="240" y="424" type="line"/>
      <point x="180" y="424" type="line"/>
    </contour>
  </outline>
</glyph>
<glyph name="florin" format="1">
  <advance width="612"/>
  <unicode hex="0192"/>
  <outline>
    <contour>
      <point x="267" y="438" type="line"/>
      <point x="267" y="520" type="line"/>
      <point x="267" y="554"/>
      <point x="310" y="598"/>
      <point x="344" y="598" type="qcurve"/>
      <point x="486" y="598" type="line"/>
      <point x="486" y="526" type="line"/>
      <point x="372" y="526" type="line"/>
      <point x="345" y="526"/>
      <point x="345" y="496" type="qcurve"/>
      <point x="345" y="438" type="line"/>
      <point x="435" y="438" type="line"/>
      <point x="435" y="366" type="line"/>
      <point x="345" y="366" type="line"/>
      <point x="345" y="180" type="line"/>
      <point x="345" y="146"/>
      <point x="302" y="102"/>
      <point x="268" y="102" type="qcurve"/>
      <point x="126" y="102" type="line"/>
      <point x="126" y="174" type="line"/>
      <point x="240" y="174" type="line"/>
      <point x="267" y="174"/>
      <point x="267" y="204" type="qcurve"/>
      <point x="267" y="366" type="line"/>
      <point x="177" y="366" type="line"/>
      <point x="177" y="438" type="line"/>
    </contour>
  </outline>
</glyph>
<glyph name="uni01A0" format="1">
  <advance width="612"/>
  <unicode hex="01A0"/>
  <outline>
    <contour>
      <point x="38" y="476" type="line"/>
      <point x="38" y="589"/>
      <point x="144" y="714"/>
      <point x="242" y="714" type="qcurve"/>
      <point x="333" y="714"/>
      <point x="437" y="606"/>
      <point x="445" y="508" type="qcurve"/>
      <point x="512" y="508" type="line"/>
      <point x="539" y="508"/>
      <point x="539" y="538" type="qcurve"/>
      <point x="539" y="563" type="line"/>
      <point x="531" y="560"/>
      <point x="522" y="560" type="qcurve"/>
      <point x="494" y="560"/>
      <point x="453" y="601"/>
      <point x="453" y="630" type="qcurve"/>
      <point x="453" y="659"/>
      <point x="494" y="700"/>
      <point x="523" y="700" type="qcurve"/>
      <point x="552" y="700"/>
      <point x="593" y="659"/>
      <point x="593" y="630" type="qcurve"/>
      <point x="593" y="532" type="line"/>
      <point x="593" y="498"/>
      <point x="550" y="454"/>
      <point x="516" y="454" type="qcurve"/>
      <point x="446" y="454" type="line"/>
      <point x="446" y="218" type="line"/>
      <point x="446" y="102"/>
      <point x="339" y="-14"/>
      <point x="242" y="-14" type="qcurve"/>
      <point x="145" y="-14"/>
      <point x="38" y="102"/>
      <point x="38" y="218" type="qcurve"/>
    </contour>
    <contour>
      <point x="242" y="62" type="qcurve"/>
      <point x="304" y="62"/>
      <point x="362" y="141"/>
      <point x="362" y="224" type="qcurve"/>
      <point x="362" y="476" type="line"/>
      <point x="362" y="553"/>
      <point x="305" y="638"/>
      <point x="242" y="638" type="qcurve"/>
      <point x="179" y="638"/>
      <point x="122" y="553"/>
      <point x="122" y="476" type="qcurve"/>
      <point x="122" y="224" type="line"/>
      <point x="122" y="141"/>
      <point x="180" y="62"/>
    </contour>
  </outline>
</glyph>
<glyph name="uni01EA" format="1">
  <advance width="612"/>
  <unicode hex="01EA"/>
  <outline>
    <contour>
      <point x="60" y="428" type="line"/>
      <point x="60" y="564"/>
      <point x="190" y="714"/>
      <point x="306" y="714" type="qcurve"/>
      <point x="422" y="714"/>
      <point x="552" y="564"/>
      <point x="552" y="428" type="qcurve"/>
      <point x="552" y="272" type="line"/>
      <point x="552" y="141"/>
      <point x="439" y="-3"/>
      <point x="338" y="-12" type="qcurve"/>
      <point x="325" y="-68" type="line"/>
      <point x="324" y="-73"/>
      <point x="324" y="-76" type="qcurve"/>
      <point x="324" y="-98"/>
      <point x="347" y="-98" type="qcurve"/>
      <point x="389" y="-98" type="line"/>
      <point x="389" y="-164" type="line"/>
      <point x="333" y="-164" type="line"/>
      <point x="304" y="-164"/>
      <point x="255" y="-127"/>
      <point x="255" y="-90" type="qcurve"/>
      <point x="255" y="-81"/>
      <point x="258" y="-66" type="qcurve"/>
      <point x="270" y="-12" type="line"/>
      <point x="170" y="-1"/>
      <point x="60" y="143"/>
      <point x="60" y="272" type="qcurve"/>
    </contour>
    <contour>
      <point x="306" y="64" type="qcurve"/>
      <point x="387" y="64"/>
      <point x="468" y="175"/>
      <point x="468" y="278" type="qcurve"/>
      <point x="468" y="422" type="line"/>
      <point x="468" y="518"/>
      <point x="387" y="636"/>
      <point x="306" y="636" type="qcurve"/>
      <point x="225" y="636"/>
      <point x="144" y="518"/>
      <point x="144" y="422" type="qcurve"/>
      <point x="144" y="278" type="line"/>
      <point x="144" y="175"/>
      <point x="225" y="64"/>
    </contour>
  </outline>
</glyph>
<glyph name="uni01EB" format="1">
  <advance width="612"/>
  <unicode hex="01EB"/>
  <outline>
    <contour>
      <point x="555" y="242" type="line"/>
      <point x="555" y="186"/>
      <point x="521" y="96"/>
      <point x="462" y="32"/>
      <point x="383" y="-7"/>
      <point x="339" y="-12" type="qcurve"/>
      <point x="326" y="-68" type="line"/>
      <point x="325" y="-73"/>
      <point x="325" y="-76" type="qcurve"/>
      <point x="325" y="-98"/>
      <point x="348" y="-98" type="qcurve"/>
      <point x="390" y="-98" type="line"/>
      <point x="390" y="-164" type="line"/>
      <point x="334" y="-164" type="line"/>
      <point x="305" y="-164"/>
      <point x="256" y="-127"/>
      <point x="256" y="-90" type="qcurve"/>
      <point x="256" y="-81"/>
      <point x="259" y="-66" type="qcurve"/>
      <point x="271" y="-12" type="line"/>
      <point x="227" y="-6"/>
      <point x="149" y="32"/>
      <point x="91" y="97"/>
      <point x="57" y="186"/>
      <point x="57" y="242" type="qcurve"/>
      <point x="57" y="254" type="line"/>
      <point x="57" y="315"/>
      <point x="98" y="410"/>
      <point x="167" y="476"/>
      <point x="257" y="510"/>
      <point x="306" y="510" type="qcurve"/>
      <point x="355" y="510"/>
      <point x="445" y="476"/>
      <point x="514" y="410"/>
      <point x="555" y="315"/>
      <point x="555" y="254" type="qcurve"/>
    </contour>
    <contour>
      <point x="306" y="60" type="qcurve"/>
      <point x="342" y="60"/>
      <point x="403" y="85"/>
      <point x="449" y="133"/>
      <point x="475" y="200"/>
      <point x="475" y="242" type="qcurve"/>
      <point x="475" y="254" type="line"/>
      <point x="475" y="294"/>
      <point x="449" y="361"/>
      <point x="403" y="409"/>
      <point x="341" y="436"/>
      <point x="306" y="436" type="qcurve"/>
      <point x="271" y="436"/>
      <point x="209" y="409"/>
      <point x="163" y="361"/>
      <point x="137" y="294"/>
      <point x="137" y="254" type="qcurve"/>
      <point x="137" y="242" type="line"/>
      <point x="137" y="200"/>
      <point x="163" y="133"/>
      <point x="209" y="85"/>
      <point x="270" y="60"/>
    </contour>
  </outline>
</glyph>
<glyph name="uni0237" format="1">
  <advance width="612"/>
  <unicode hex="0237"/>
  <outline>
    <contour>
      <point x="141" y="496" type="line"/>
      <point x="417" y="496" type="line"/>
      <point x="417" y="-122" type="line"/>
      <point x="417" y="-156"/>
      <point x="374" y="-200"/>
      <point x="340" y="-200" type="qcurve"/>
      <point x="117" y="-200" type="line"/>
      <point x="117" y="-128" type="line"/>
      <point x="312" y="-128" type="line"/>
      <point x="339" y="-128"/>
      <point x="339" y="-98" type="qcurve"/>
      <point x="339" y="424" type="line"/>
      <point x="141" y="424" type="line"/>
    </contour>
  </outline>
</glyph>
<glyph name="uni0243" format="1">
  <advance width="612"/>
  <unicode hex="0243"/>
  <outline>
    <contour>
      <point x="57" y="234" type="line"/>
      <point x="117" y="234" type="line"/>
      <point x="117" y="622" type="line"/>
      <point x="57" y="622" type="line"/>
      <point x="57" y="700" type="line"/>
      <point x="340" y="700" type="line"/>
      <point x="390" y="700"/>
      <point x="467" y="672"/>
      <point x="520" y="624"/>
      <point x="547" y="557"/>
      <point x="547" y="518" type="qcurve"/>
      <point x="547" y="506" type="line"/>
      <point x="547" y="477"/>
      <point x="529" y="429"/>
      <point x="497" y="391"/>
      <point x="454" y="364"/>
      <point x="429" y="357" type="qcurve"/>
      <point x="429" y="345" type="line"/>
      <point x="479" y="331"/>
      <point x="547" y="252"/>
      <point x="547" y="195" type="qcurve"/>
      <point x="547" y="183" type="line"/>
      <point x="547" y="144"/>
      <point x="520" y="77"/>
      <point x="467" y="28"/>
      <point x="390" y="0"/>
      <point x="340" y="0" type="qcurve"/>
      <point x="57" y="0" type="line"/>
      <point x="57" y="78" type="line"/>
      <point x="117" y="78" type="line"/>
      <point x="117" y="156" type="line"/>
      <point x="57" y="156" type="line"/>
    </contour>
    <contour>
      <point x="201" y="390" type="line"/>
      <point x="337" y="390" type="line"/>
      <point x="397" y="390"/>
      <point x="467" y="452"/>
      <point x="467" y="506" type="qcurve"/>
      <point x="467" y="512" type="line"/>
      <point x="467" y="563"/>
      <point x="393" y="622"/>
      <point x="334" y="622" type="qcurve"/>
      <point x="201" y="622" type="line"/>
    </contour>
    <contour>
      <point x="201" y="234" type="line"/>
      <point x="309" y="234" type="line"/>
      <point x="309" y="156" type="line"/>
      <point x="201" y="156" type="line"/>
      <point x="201" y="78" type="line"/>
      <point x="334" y="78" type="line"/>
      <point x="393" y="78"/>
      <point x="467" y="137"/>
      <point x="467" y="189" type="qcurve"/>
      <point x="467" y="195" type="line"/>
      <point x="467" y="249"/>
      <point x="397" y="312"/>
      <point x="337" y="312" type="qcurve"/>
      <point x="201" y="312" type="line"/>
    </contour>
  </outline>
</glyph>
<glyph name="uni0259" format="1">
  <advance width="612"/>
  <unicode hex="0259"/>
  <outline>
    <contour>
      <point x="466" y="272" type="line"/>
      <point x="463" y="346"/>
      <point x="374" y="436"/>
      <point x="299" y="436" type="qcurve"/>
      <point x="266" y="436"/>
      <point x="216" y="418"/>
      <point x="180" y="389"/>
      <point x="155" y="351"/>
      <point x="147" y="332" type="qcurve"/>
      <point x="77" y="362" type="line"/>
      <point x="107" y="431"/>
      <point x="218" y="510"/>
      <point x="300" y="510" type="qcurve"/>
      <point x="352" y="510"/>
      <point x="442" y="474"/>
      <point x="507" y="408"/>
      <point x="544" y="314"/>
      <point x="544" y="256" type="qcurve"/>
      <point x="544" y="232" type="line"/>
      <point x="544" y="179"/>
      <point x="507" y="89"/>
      <point x="442" y="23"/>
      <point x="353" y="-14"/>
      <point x="300" y="-14" type="qcurve"/>
      <point x="238" y="-14"/>
      <point x="150" y="31"/>
      <point x="93" y="99"/>
      <point x="66" y="179"/>
      <point x="66" y="214" type="qcurve"/>
      <point x="66" y="272" type="line"/>
    </contour>
    <contour>
      <point x="300" y="60" type="qcurve"/>
      <point x="333" y="60"/>
      <point x="390" y="81"/>
      <point x="433" y="119"/>
      <point x="460" y="170"/>
      <point x="464" y="200" type="qcurve"/>
      <point x="144" y="200" type="line"/>
      <point x="145" y="168"/>
      <point x="173" y="116"/>
      <point x="216" y="80"/>
      <point x="271" y="60"/>
    </contour>
  </outline>
</glyph>
<glyph name="uni0287" format="1">
  <advance width="612"/>
  <unicode hex="0287"/>
  <outline>
    <contour>
      <point x="528" y="0" type="line"/>
      <point x="372" y="0" type="line"/>
      <point x="372" y="-200" type="line"/>
      <point x="294" y="-200" type="line"/>
      <point x="294" y="0" type="line"/>
      <point x="102" y="0" type="line"/>
      <point x="102" y="72" type="line"/>
      <point x="294" y="72" type="line"/>
      <point x="294" y="394" type="line"/>
      <point x="294" y="424"/>
      <point x="267" y="424" type="qcurve"/>
      <point x="126" y="424" type="line"/>
      <point x="126" y="496" type="line"/>
      <point x="295" y="496" type="line"/>
      <point x="329" y="496"/>
      <point x="372" y="452"/>
      <point x="372" y="418" type="qcurve"/>
      <point x="372" y="72" type="line"/>
      <point x="528" y="72" type="line"/>
    </contour>
  </outline>
</glyph>
<glyph name="uni029E" format="1">
  <advance width="612"/>
  <unicode hex="029E"/>
  <outline>
    <contour>
      <point x="397" y="206" type="line"/>
      <point x="380" y="206" type="line"/>
      <point x="191" y="0" type="line"/>
      <point x="95" y="0" type="line"/>
      <point x="95" y="6" type="line"/>
      <point x="301" y="233" type="line"/>
      <point x="301" y="251" type="line"/>
      <point x="71" y="490" type="line"/>
      <point x="71" y="496" type="line"/>
      <point x="167" y="496" type="line"/>
      <point x="378" y="278" type="line"/>
      <point x="397" y="278" type="line"/>
      <point x="397" y="496" type="line"/>
      <point x="475" y="496" type="line"/>
      <point x="475" y="-200" type="line"/>
      <point x="397" y="-200" type="line"/>
    </contour>
  </outline>
</glyph>
<glyph name="dotaccent" format="1">
  <advance width="612"/>
  <unicode hex="02D9"/>
  <outline>
    <contour>
      <point x="236" y="644" type="qcurve"/>
      <point x="236" y="673"/>
      <point x="277" y="714"/>
      <point x="306" y="714" type="qcurve"/>
      <point x="335" y="714"/>
      <point x="376" y="673"/>
      <point x="376" y="644" type="qcurve"/>
      <point x="376" y="615"/>
      <point x="335" y="574"/>
      <point x="306" y="574" type="qcurve"/>
      <point x="277" y="574"/>
      <point x="236" y="615"/>
    </contour>
  </outline>
</glyph>
<glyph name="ogonek" format="1">
  <advance width="612"/>
  <unicode hex="02DB"/>
  <outline>
    <contour>
      <point x="349" y="30" type="line"/>
      <point x="326" y="-68" type="line"/>
      <point x="325" y="-73"/>
      <point x="325" y="-76" type="qcurve"/>
      <point x="325" y="-98"/>
      <point x="348" y="-98" type="qcurve"/>
      <point x="390" y="-98" type="line"/>
      <point x="390" y="-164" type="line"/>
      <point x="334" y="-164" type="line"/>
      <point x="305" y="-164"/>
      <point x="256" y="-127"/>
      <point x="256" y="-90" type="qcurve"/>
      <point x="256" y="-81"/>
      <point x="259" y="-66" type="qcurve"/>
      <point x="280" y="30" type="line"/>
    </contour>
  </outline>
</glyph>
<glyph name="uni031B" format="1">
  <advance width="612"/>
  <unicode hex="031B"/>
  <outline>
    <contour>
      <point x="254" y="630" type="qcurve"/>
      <point x="254" y="659"/>
      <point x="295" y="700"/>
      <point x="324" y="700" type="qcurve"/>
      <point x="353" y="700"/>
      <point x="394" y="659"/>
      <point x="394" y="630" type="qcurve"/>
      <point x="394" y="532" type="line"/>
      <point x="394" y="498"/>
      <point x="351" y="454"/>
      <point x="317" y="454" type="qcurve"/>
      <point x="218" y="454" type="line"/>
      <point x="218" y="508" type="line"/>
      <point x="313" y="508" type="line"/>
      <point x="340" y="508"/>
      <point x="340" y="538" type="qcurve"/>
      <point x="340" y="563" type="line"/>
      <point x="332" y="560"/>
      <point x="323" y="560" type="qcurve"/>
      <point x="295" y="560"/>
      <point x="254" y="601"/>
    </contour>
  </outline>
</glyph>
<glyph name="pi" format="1">
  <advance width="612"/>
  <unicode hex="03C0"/>
  <outline>
    <contour>
      <point x="140" y="0" type="line"/>
      <point x="140" y="424" type="line"/>
      <point x="68" y="424" type="line"/>
      <point x="68" y="496" type="line"/>
      <point x="546" y="496" type="line"/>
      <point x="546" y="424" type="line"/>
      <point x="474" y="424" type="line"/>
      <point x="474" y="102" type="line"/>
      <point x="474" y="72"/>
      <point x="501" y="72" type="qcurve"/>
      <point x="546" y="72" type="line"/>
      <point x="546" y="0" type="line"/>
      <point x="473" y="0" type="line"/>
      <point x="439" y="0"/>
      <point x="396" y="44"/>
      <point x="396" y="78" type="qcurve"/>
      <point x="396" y="424" type="line"/>
      <point x="218" y="424" type="line"/>
      <point x="218" y="0" type="line"/>
    </contour>
  </outline>
</glyph>
<glyph name="uni1E9E" format="1">
  <advance width="612"/>
  <unicode hex="1E9E"/>
  <outline>
    <contour>
      <point x="249" y="348" type="line"/>
      <point x="249" y="466" type="line"/>
      <point x="441" y="610" type="line"/>
      <point x="441" y="622" type="line"/>
      <point x="303" y="622" type="line"/>
      <point x="248" y="622"/>
      <point x="180" y="561"/>
      <point x="180" y="496" type="qcurve"/>
      <point x="180" y="0" type="line"/>
      <point x="96" y="0" type="line"/>
      <point x="96" y="418" type="line"/>
      <point x="36" y="418" type="line"/>
      <point x="36" y="496" type="line"/>
      <point x="96" y="496" type="line"/>
      <point x="96" y="545"/>
      <point x="125" y="622"/>
      <point x="178" y="673"/>
      <point x="252" y="700"/>
      <point x="297" y="700" type="qcurve"/>
      <point x="513" y="700" type="line"/>
      <point x="513" y="570" type="line"/>
      <point x="321" y="426" type="line"/>
      <point x="321" y="414" type="line"/>
      <point x="361" y="414" type="line"/>
      <point x="402" y="414"/>
      <point x="476" y="389"/>
      <point x="533" y="340"/>
      <point x="567" y="268"/>
      <point x="567" y="222" type="qcurve"/>
      <point x="567" y="210" type="line"/>
      <point x="567" y="166"/>
      <point x="531" y="90"/>
      <point x="467" y="33"/>
      <point x="380" y="0"/>
      <point x="329" y="0" type="qcurve"/>
      <point x="249" y="0" type="line"/>
      <point x="249" y="78" type="line"/>
      <point x="327" y="78" type="line"/>
      <point x="360" y="78"/>
      <point x="417" y="99"/>
      <point x="459" y="135"/>
      <point x="483" y="185"/>
      <point x="483" y="215" type="qcurve"/>
      <point x="483" y="221" type="line"/>
      <point x="483" y="251"/>
      <point x="462" y="298"/>
      <point x="424" y="331"/>
      <point x="373" y="348"/>
      <point x="343" y="348" type="qcurve"/>
    </contour>
  </outline>
</glyph>
<glyph name="uni1EA2" format="1">
  <advance width="612"/>
  <unicode hex="1EA2"/>
  <outline>
    <contour>
      <point x="272" y="750" type="line"/>
      <point x="252" y="842" type="line"/>
      <point x="252" y="848" type="line"/>
      <point x="328" y="848" type="line"/>
      <point x="335" y="834"/>
      <point x="353" y="834" type="qcurve"/>
      <point x="367" y="834"/>
      <point x="388" y="854"/>
      <point x="388" y="872" type="qcurve"/>
      <point x="388" y="894"/>
      <point x="363" y="914"/>
      <point x="348" y="914" type="qcurve"/>
      <point x="326" y="914"/>
      <point x="303" y="889"/>
      <point x="300" y="874" type="qcurve"/>
      <point x="252" y="892" type="line"/>
      <point x="260" y="922"/>
      <point x="306" y="962"/>
      <point x="349" y="962" type="qcurve"/>
      <point x="388" y="962"/>
      <point x="442" y="913"/>
      <point x="442" y="871" type="qcurve"/>
      <point x="442" y="836"/>
      <point x="401" y="786"/>
      <point x="366" y="786" type="qcurve"/>
      <point x="325" y="786"/>
      <point x="312" y="818" type="qcurve"/>
      <point x="306" y="818" type="line"/>
      <point x="321" y="750" type="line"/>
    </contour>
    <component base="A"/>
  </outline>
</glyph>
<glyph name="uni1EA9" format="1">
  <advance width="612"/>
  <unicode hex="1EA9"/>
  <outline>
    <contour>
      <point x="396" y="658" type="line"/>
      <point x="376" y="750" type="line"/>
      <point x="376" y="756" type="line"/>
      <point x="452" y="756" type="line"/>
      <point x="459" y="742"/>
      <point x="477" y="742" type="qcurve"/>
      <point x="491" y="742"/>
      <point x="512" y="762"/>
      <point x="512" y="780" type="qcurve"/>
      <point x="512" y="802"/>
      <point x="487" y="822"/>
      <point x="472" y="822" type="qcurve"/>
      <point x="450" y="822"/>
      <point x="427" y="797"/>
      <point x="424" y="782" type="qcurve"/>
      <point x="376" y="800" type="line"/>
      <point x="384" y="830"/>
      <point x="430" y="870"/>
      <point x="473" y="870" type="qcurve"/>
      <point x="512" y="870"/>
      <point x="566" y="821"/>
      <point x="566" y="779" type="qcurve"/>
      <point x="566" y="744"/>
      <point x="525" y="694"/>
      <point x="490" y="694" type="qcurve"/>
      <point x="449" y="694"/>
      <point x="436" y="726" type="qcurve"/>
      <point x="430" y="726" type="line"/>
      <point x="445" y="658" type="line"/>
    </contour>
    <component base="a"/>
    <component base="circumflex" xOffset="-29"/>
  </outline>
</glyph>
<glyph name="uni1EBB" format="1">
  <advance width="612"/>
  <unicode hex="1EBB"/>
  <outline>
    <contour>
      <point x="260" y="546" type="line"/>
      <point x="240" y="638" type="line"/>
      <point x="240" y="644" type="line"/>
      <point x="316" y="644" type="line"/>
      <point x="323" y="630"/>
      <point x="341" y="630" type="qcurve"/>
      <point x="355" y="630"/>
      <point x="376" y="650"/>
      <point x="376" y="668" type="qcurve"/>
      <point x="376" y="690"/>
      <point x="351" y="710"/>
      <point x="336" y="710" type="qcurve"/>
      <point x="314" y="710"/>
      <point x="291" y="685"/>
      <point x="288" y="670" type="qcurve"/>
      <point x="240" y="688" type="line"/>
      <point x="248" y="718"/>
      <point x="294" y="758"/>
      <point x="337" y="758" type="qcurve"/>
      <point x="376" y="758"/>
      <point x="430" y="709"/>
      <point x="430" y="667" type="qcurve"/>
      <point x="430" y="632"/>
      <point x="389" y="582"/>
      <point x="354" y="582" type="qcurve"/>
      <point x="313" y="582"/>
      <point x="300" y="614" type="qcurve"/>
      <point x="294" y="614" type="line"/>
      <point x="309" y="546" type="line"/>
    </contour>
    <component base="e" xOffset="-1"/>
  </outline>
</glyph>
<glyph name="uni1ED5" format="1">
  <advance width="612"/>
  <unicode hex="1ED5"/>
  <outline>
    <contour>
      <point x="424" y="658" type="line"/>
      <point x="404" y="750" type="line"/>
      <point x="404" y="756" type="line"/>
      <point x="480" y="756" type="line"/>
      <point x="487" y="742"/>
      <point x="505" y="742" type="qcurve"/>
      <point x="519" y="742"/>
      <point x="540" y="762"/>
      <point x="540" y="780" type="qcurve"/>
      <point x="540" y="802"/>
      <point x="515" y="822"/>
      <point x="500" y="822" type="qcurve"/>
      <point x="478" y="822"/>
      <point x="455" y="797"/>
      <point x="452" y="782" type="qcurve"/>
      <point x="404" y="800" type="line"/>
      <point x="412" y="830"/>
      <point x="458" y="870"/>
      <point x="501" y="870" type="qcurve"/>
      <point x="540" y="870"/>
      <point x="594" y="821"/>
      <point x="594" y="779" type="qcurve"/>
      <point x="594" y="744"/>
      <point x="553" y="694"/>
      <point x="518" y="694" type="qcurve"/>
      <point x="477" y="694"/>
      <point x="464" y="726" type="qcurve"/>
      <point x="458" y="726" type="line"/>
      <point x="473" y="658" type="line"/>
    </contour>
    <component base="o"/>
    <component base="circumflex"/>
  </outline>
</glyph>
<glyph name="uni1EE6" format="1">
  <advance width="612"/>
  <unicode hex="1EE6"/>
  <outline>
    <contour>
      <point x="266" y="750" type="line"/>
      <point x="246" y="842" type="line"/>
      <point x="246" y="848" type="line"/>
      <point x="322" y="848" type="line"/>
      <point x="329" y="834"/>
      <point x="347" y="834" type="qcurve"/>
      <point x="361" y="834"/>
      <point x="382" y="854"/>
      <point x="382" y="872" type="qcurve"/>
      <point x="382" y="894"/>
      <point x="357" y="914"/>
      <point x="342" y="914" type="qcurve"/>
      <point x="320" y="914"/>
      <point x="297" y="889"/>
      <point x="294" y="874" type="qcurve"/>
      <point x="246" y="892" type="line"/>
      <point x="254" y="922"/>
      <point x="300" y="962"/>
      <point x="343" y="962" type="qcurve"/>
      <point x="382" y="962"/>
      <point x="436" y="913"/>
      <point x="436" y="871" type="qcurve"/>
      <point x="436" y="836"/>
      <point x="395" y="786"/>
      <point x="360" y="786" type="qcurve"/>
      <point x="319" y="786"/>
      <point x="306" y="818" type="qcurve"/>
      <point x="300" y="818" type="line"/>
      <point x="315" y="750" type="line"/>
    </contour>
    <component base="U"/>
  </outline>
</glyph>
<glyph name="uni1EF5" format="1">
  <advance width="612"/>
  <unicode hex="1EF5"/>
  <outline>
    <contour>
      <point x="447" y="90" type="line"/>
      <point x="435" y="90" type="line"/>
      <point x="411" y="42"/>
      <point x="333" y="-14"/>
      <point x="273" y="-14" type="qcurve"/>
      <point x="232" y="-14"/>
      <point x="163" y="13"/>
      <point x="114" y="67"/>
      <point x="87" y="147"/>
      <point x="87" y="200" type="qcurve"/>
      <point x="87" y="496" type="line"/>
      <point x="165" y="496" type="line"/>
      <point x="165" y="210" type="line"/>
      <point x="165" y="132"/>
      <point x="229" y="60"/>
      <point x="295" y="60" type="qcurve"/>
      <point x="366" y="60"/>
      <point x="447" y="157"/>
      <point x="447" y="238" type="qcurve"/>
      <point x="447" y="496" type="line"/>
      <point x="525" y="496" type="line"/>
      <point x="525" y="-92" type="line"/>
      <point x="525" y="-126"/>
      <point x="482" y="-170"/>
      <point x="448" y="-170" type="qcurve"/>
      <point x="275" y="-170" type="line"/>
      <point x="275" y="-98" type="line"/>
      <point x="420" y="-98" type="line"/>
      <point x="447" y="-98"/>
      <point x="447" y="-68" type="qcurve"/>
    </contour>
    <component base="period" xOffset="-149" yOffset="-190"/>
  </outline>
</glyph>
<glyph name="uni1EF6" format="1">
  <advance width="612"/>
  <unicode hex="1EF6"/>
  <outline>
    <contour>
      <point x="278" y="750" type="line"/>
      <point x="258" y="842" type="line"/>
      <point x="258" y="848" type="line"/>
      <point x="334" y="848" type="line"/>
      <point x="341" y="834"/>
      <point x="359" y="834" type="qcurve"/>
      <point x="373" y="834"/>
      <point x="394" y="854"/>
      <point x="394" y="872" type="qcurve"/>
      <point x="394" y="894"/>
      <point x="369" y="914"/>
      <point x="354" y="914" type="qcurve"/>
      <point x="332" y="914"/>
      <point x="309" y="889"/>
      <point x="306" y="874" type="qcurve"/>
      <point x="258" y="892" type="line"/>
      <point x="266" y="922"/>
      <point x="312" y="962"/>
      <point x="355" y="962" type="qcurve"/>
      <point x="394" y="962"/>
      <point x="448" y="913"/>
      <point x="448" y="871" type="qcurve"/>
      <point x="448" y="836"/>
      <point x="407" y="786"/>
      <point x="372" y="786" type="qcurve"/>
      <point x="331" y="786"/>
      <point x="318" y="818" type="qcurve"/>
      <point x="312" y="818" type="line"/>
      <point x="327" y="750" type="line"/>
    </contour>
    <component base="Y"/>
  </outline>
</glyph>
<glyph name="uni1EF7" format="1">
  <advance width="612"/>
  <unicode hex="1EF7"/>
  <outline>
    <contour>
      <point x="267" y="546" type="line"/>
      <point x="247" y="638" type="line"/>
      <point x="247" y="644" type="line"/>
      <point x="323" y="644" type="line"/>
      <point x="330" y="630"/>
      <point x="348" y="630" type="qcurve"/>
      <point x="362" y="630"/>
      <point x="383" y="650"/>
      <point x="383" y="668" type="qcurve"/>
      <point x="383" y="690"/>
      <point x="358" y="710"/>
      <point x="343" y="710" type="qcurve"/>
      <point x="321" y="710"/>
      <point x="298" y="685"/>
      <point x="295" y="670" type="qcurve"/>
      <point x="247" y="688" type="line"/>
      <point x="255" y="718"/>
      <point x="301" y="758"/>
      <point x="344" y="758" type="qcurve"/>
      <point x="383" y="758"/>
      <point x="437" y="709"/>
      <point x="437" y="667" type="qcurve"/>
      <point x="437" y="632"/>
      <point x="396" y="582"/>
      <point x="361" y="582" type="qcurve"/>
      <point x="320" y="582"/>
      <point x="307" y="614" type="qcurve"/>
      <point x="301" y="614" type="line"/>
      <point x="316" y="546" type="line"/>
    </contour>
    <component base="y"/>
  </outline>
</glyph>
<glyph name="endash" format="1">
  <advance width="612"/>
  <unicode hex="2013"/>
  <outline>
    <contour>
      <point x="73" y="296" type="line"/>
      <point x="539" y="296" type="line"/>
      <point x="539" y="224" type="line"/>
      <point x="73" y="224" type="line"/>
    </contour>
  </outline>
</glyph>
<glyph name="quoteleft" format="1">
  <advance width="612"/>
  <unicode hex="2018"/>
  <outline>
    <contour>
      <point x="376" y="538" type="qcurve"/>
      <point x="376" y="509"/>
      <point x="335" y="468"/>
      <point x="306" y="468" type="qcurve"/>
      <point x="277" y="468"/>
      <point x="236" y="509"/>
      <point x="236" y="538" type="qcurve"/>
      <point x="236" y="636" type="line"/>
      <point x="236" y="670"/>
      <point x="279" y="714"/>
      <point x="313" y="714" type="qcurve"/>
      <point x="364" y="714" type="line"/>
      <point x="364" y="660" type="line"/>
      <point x="317" y="660" type="line"/>
      <point x="290" y="660"/>
      <point x="290" y="630" type="qcurve"/>
      <point x="290" y="605" type="line"/>
      <point x="297" y="608"/>
      <point x="307" y="608" type="qcurve"/>
      <point x="335" y="608"/>
      <point x="376" y="567"/>
    </contour>
  </outline>
</glyph>
<glyph name="quotedblleft" format="1">
  <advance width="612"/>
  <unicode hex="201C"/>
  <outline>
    <contour>
      <point x="285" y="538" type="qcurve"/>
      <point x="285" y="509"/>
      <point x="244" y="468"/>
      <point x="215" y="468" type="qcurve"/>
      <point x="186" y="468"/>
      <point x="145" y="509"/>
      <point x="145" y="538" type="qcurve"/>
      <point x="145" y="636" type="line"/>
      <point x="145" y="670"/>
      <point x="188" y="714"/>
      <point x="222" y="714" type="qcurve"/>
      <point x="273" y="714" type="line"/>
      <point x="273" y="660" type="line"/>
      <point x="226" y="660" type="line"/>
      <point x="199" y="660"/>
      <point x="199" y="630" type="qcurve"/>
      <point x="199" y="605" type="line"/>
      <point x="206" y="608"/>
      <point x="216" y="608" type="qcurve"/>
      <point x="244" y="608"/>
      <point x="285" y="567"/>
    </contour>
    <contour>
      <point x="467" y="538" type="qcurve"/>
      <point x="467" y="509"/>
      <point x="426" y="468"/>
      <point x="397" y="468" type="qcurve"/>
      <point x="368" y="468"/>
      <point x="327" y="509"/>
      <point x="327" y="538" type="qcurve"/>
      <point x="327" y="636" type="line"/>
      <point x="327" y="670"/>
      <point x="370" y="714"/>
      <point x="404" y="714" type="qcurve"/>
      <point x="455" y="714" type="line"/>
      <point x="455" y="660" type="line"/>
      <point x="408" y="660" type="line"/>
      <point x="381" y="660"/>
      <point x="381" y="630" type="qcurve"/>
      <point x="381" y="605" type="line"/>
      <point x="388" y="608"/>
      <point x="398" y="608" type="qcurve"/>
      <point x="426" y="608"/>
      <point x="467" y="567"/>
    </contour>
  </outline>
</glyph>
<glyph name="quotedblbase" format="1">
  <advance width="612"/>
  <unicode hex="201E"/>
  <outline>
    <contour>
      <point x="327" y="70" type="qcurve"/>
      <point x="327" y="99"/>
      <point x="368" y="140"/>
      <point x="397" y="140" type="qcurve"/>
      <point x="426" y="140"/>
      <point x="467" y="99"/>
      <point x="467" y="70" type="qcurve"/>
      <point x="467" y="-28" type="line"/>
      <point x="467" y="-62"/>
      <point x="424" y="-106"/>
      <point x="390" y="-106" type="qcurve"/>
      <point x="339" y="-106" type="line"/>
      <point x="339" y="-52" type="line"/>
      <point x="386" y="-52" type="line"/>
      <point x="413" y="-52"/>
      <point x="413" y="-22" type="qcurve"/>
      <point x="413" y="3" type="line"/>
      <point x="405" y="0"/>
      <point x="396" y="0" type="qcurve"/>
      <point x="368" y="0"/>
      <point x="327" y="41"/>
    </contour>
    <contour>
      <point x="145" y="70" type="qcurve"/>
      <point x="145" y="99"/>
      <point x="186" y="140"/>
      <point x="215" y="140" type="qcurve"/>
      <point x="244" y="140"/>
      <point x="285" y="99"/>
      <point x="285" y="70" type="qcurve"/>
      <point x="285" y="-28" type="line"/>
      <point x="285" y="-62"/>
      <point x="242" y="-106"/>
      <point x="208" y="-106" type="qcurve"/>
      <point x="157" y="-106" type="line"/>
      <point x="157" y="-52" type="line"/>
      <point x="204" y="-52" type="line"/>
      <point x="231" y="-52"/>
      <point x="231" y="-22" type="qcurve"/>
      <point x="231" y="3" type="line"/>
      <point x="223" y="0"/>
      <point x="214" y="0" type="qcurve"/>
      <point x="186" y="0"/>
      <point x="145" y="41"/>
    </contour>
  </outline>
</glyph>
<glyph name="dagger" format="1">
  <advance width="612"/>
  <unicode hex="2020"/>
  <outline>
    <contour>
      <point x="156" y="604" type="line"/>
      <point x="270" y="604" type="line"/>
      <point x="270" y="714" type="line"/>
      <point x="342" y="714" type="line"/>
      <point x="342" y="604" type="line"/>
      <point x="456" y="604" type="line"/>
      <point x="456" y="534" type="line"/>
      <point x="342" y="534" type="line"/>
      <point x="342" y="218" type="line"/>
      <point x="270" y="218" type="line"/>
      <point x="270" y="534" type="line"/>
      <point x="156" y="534" type="line"/>
    </contour>
  </outline>
</glyph>
<glyph name="uni2032" format="1">
  <advance width="612"/>
  <unicode hex="2032"/>
  <outline>
    <contour>
      <point x="242" y="644" type="qcurve"/>
      <point x="242" y="673"/>
      <point x="283" y="714"/>
      <point x="312" y="714" type="qcurve"/>
      <point x="341" y="714"/>
      <point x="382" y="673"/>
      <point x="382" y="644" type="qcurve"/>
      <point x="382" y="619"/>
      <point x="350" y="580"/>
      <point x="326" y="575" type="qcurve"/>
      <point x="303" y="468" type="line"/>
      <point x="250" y="479" type="line"/>
      <point x="274" y="585" type="line"/>
      <point x="260" y="595"/>
      <point x="242" y="626"/>
    </contour>
  </outline>
</glyph>
<glyph name="guilsinglleft" format="1">
  <advance width="612"/>
  <unicode hex="2039"/>
  <outline>
    <contour>
      <point x="420" y="12" type="line"/>
      <point x="186" y="170" type="line"/>
      <point x="186" y="326" type="line"/>
      <point x="420" y="484" type="line"/>
      <point x="426" y="484" type="line"/>
      <point x="426" y="396" type="line"/>
      <point x="216" y="254" type="line"/>
      <point x="216" y="242" type="line"/>
      <point x="426" y="100" type="line"/>
      <point x="426" y="12" type="line"/>
    </contour>
  </outline>
</glyph>
<glyph name="uni2070" format="1">
  <advance width="612"/>
  <unicode hex="2070"/>
  <outline>
    <contour>
      <point x="410" y="511" type="line"/>
      <point x="410" y="465"/>
      <point x="358" y="406"/>
      <point x="307" y="406" type="qcurve"/>
      <point x="257" y="406"/>
      <point x="202" y="465"/>
      <point x="202" y="511" type="qcurve"/>
      <point x="202" y="601" type="line"/>
      <point x="202" y="647"/>
      <point x="258" y="706"/>
      <point x="307" y="706" type="qcurve"/>
      <point x="358" y="706"/>
      <point x="410" y="647"/>
      <point x="410" y="601" type="qcurve"/>
    </contour>
    <contour>
      <point x="307" y="454" type="qcurve"/>
      <point x="330" y="454"/>
      <point x="356" y="483"/>
      <point x="356" y="505" type="qcurve"/>
      <point x="356" y="607" type="line"/>
      <point x="356" y="629"/>
      <point x="330" y="658"/>
      <point x="307" y="658" type="qcurve"/>
      <point x="284" y="658"/>
      <point x="256" y="629"/>
      <point x="256" y="607" type="qcurve"/>
      <point x="256" y="505" type="line"/>
      <point x="256" y="483"/>
      <point x="284" y="454"/>
    </contour>
    <contour>
      <point x="274" y="556" type="qcurve"/>
      <point x="274" y="570"/>
      <point x="293" y="588"/>
      <point x="306" y="588" type="qcurve"/>
      <point x="320" y="588"/>
      <point x="337" y="570"/>
      <point x="337" y="556" type="qcurve"/>
      <point x="337" y="542"/>
      <point x="320" y="525"/>
      <point x="306" y="525" type="qcurve"/>
      <point x="293" y="525"/>
      <point x="274" y="542"/>
    </contour>
  </outline>
</glyph>
<glyph name="uni2075" format="1">
  <advance width="612"/>
  <unicode hex="2075"/>
  <outline>
    <contour>
      <point x="212" y="539" type="line"/>
      <point x="212" y="700" type="line"/>
      <point x="400" y="700" type="line"/>
      <point x="400" y="652" type="line"/>
      <point x="266" y="652" type="line"/>
      <point x="266" y="572" type="line"/>
      <point x="272" y="572" type="line"/>
      <point x="289" y="607"/>
      <point x="334" y="607" type="qcurve"/>
      <point x="372" y="607"/>
      <point x="418" y="558"/>
      <point x="418" y="514" type="qcurve"/>
      <point x="418" y="467"/>
      <point x="366" y="406"/>
      <point x="312" y="406" type="qcurve"/>
      <point x="283" y="406"/>
      <point x="243" y="422"/>
      <point x="218" y="448"/>
      <point x="206" y="481"/>
      <point x="206" y="499" type="qcurve"/>
      <point x="206" y="505" type="line"/>
      <point x="260" y="505" type="line"/>
      <point x="260" y="454"/>
      <point x="314" y="454" type="qcurve"/>
      <point x="338" y="454"/>
      <point x="364" y="485"/>
      <point x="364" y="514" type="qcurve"/>
      <point x="364" y="537"/>
      <point x="341" y="559"/>
      <point x="326" y="559" type="qcurve"/>
      <point x="313" y="559"/>
      <point x="298" y="547"/>
      <point x="296" y="539" type="qcurve"/>
    </contour>
  </outline>
</glyph>
<glyph name="uni2076" format="1">
  <advance width="612"/>
  <unicode hex="2076"/>
  <outline>
    <contour>
      <point x="347" y="616" type="line"/>
      <point x="347" y="634"/>
      <point x="325" y="658"/>
      <point x="303" y="658" type="qcurve"/>
      <point x="282" y="658"/>
      <point x="260" y="632"/>
      <point x="260" y="610" type="qcurve"/>
      <point x="260" y="572" type="line"/>
      <point x="266" y="572" type="line"/>
      <point x="271" y="584"/>
      <point x="296" y="602"/>
      <point x="321" y="602" type="qcurve"/>
      <point x="360" y="602"/>
      <point x="406" y="547"/>
      <point x="406" y="506" type="qcurve"/>
      <point x="406" y="459"/>
      <point x="349" y="406"/>
      <point x="306" y="406" type="qcurve"/>
      <point x="261" y="406"/>
      <point x="206" y="458"/>
      <point x="206" y="502" type="qcurve"/>
      <point x="206" y="610" type="line"/>
      <point x="206" y="655"/>
      <point x="261" y="706"/>
      <point x="304" y="706" type="qcurve"/>
      <point x="348" y="706"/>
      <point x="401" y="658"/>
      <point x="401" y="616" type="qcurve"/>
    </contour>
    <contour>
      <point x="306" y="554" type="qcurve"/>
      <point x="285" y="554"/>
      <point x="260" y="527"/>
      <point x="260" y="504" type="qcurve"/>
      <point x="260" y="481"/>
      <point x="285" y="454"/>
      <point x="306" y="454" type="qcurve"/>
      <point x="327" y="454"/>
      <point x="352" y="481"/>
      <point x="352" y="504" type="qcurve"/>
      <point x="352" y="527"/>
      <point x="327" y="554"/>
    </contour>
  </outline>
</glyph>
<glyph name="uni2077" format="1">
  <advance width="612"/>
  <unicode hex="2077"/>
  <outline>
    <contour>
      <point x="220" y="700" type="line"/>
      <point x="412" y="700" type="line"/>
      <point x="412" y="612" type="line"/>
      <point x="314" y="463" type="line"/>
      <point x="306" y="452"/>
      <point x="298" y="435"/>
      <point x="298" y="424" type="qcurve"/>
      <point x="298" y="412" type="line"/>
      <point x="239" y="412" type="line"/>
      <point x="239" y="427" type="line"/>
      <point x="239" y="443"/>
      <point x="252" y="468"/>
      <point x="264" y="486" type="qcurve"/>
      <point x="370" y="644" type="line"/>
      <point x="370" y="650" type="line"/>
      <point x="220" y="650" type="line"/>
    </contour>
  </outline>
</glyph>
<glyph name="uni2078" format="1">
  <advance width="612"/>
  <unicode hex="2078"/>
  <outline>
    <contour>
      <point x="306" y="406" type="qcurve"/>
      <point x="286" y="406"/>
      <point x="250" y="416"/>
      <point x="223" y="437"/>
      <point x="206" y="468"/>
      <point x="206" y="490" type="qcurve"/>
      <point x="206" y="520"/>
      <point x="239" y="553"/>
      <point x="259" y="558" type="qcurve"/>
      <point x="259" y="564" type="line"/>
      <point x="242" y="569"/>
      <point x="212" y="600"/>
      <point x="212" y="630" type="qcurve"/>
      <point x="212" y="665"/>
      <point x="265" y="706"/>
      <point x="306" y="706" type="qcurve"/>
      <point x="347" y="706"/>
      <point x="400" y="665"/>
      <point x="400" y="630" type="qcurve"/>
      <point x="400" y="600"/>
      <point x="370" y="569"/>
      <point x="353" y="564" type="qcurve"/>
      <point x="353" y="558" type="line"/>
      <point x="373" y="553"/>
      <point x="406" y="520"/>
      <point x="406" y="490" type="qcurve"/>
      <point x="406" y="468"/>
      <point x="389" y="437"/>
      <point x="362" y="416"/>
      <point x="325" y="406"/>
    </contour>
    <contour>
      <point x="306" y="454" type="qcurve"/>
      <point x="326" y="454"/>
      <point x="352" y="476"/>
      <point x="352" y="496" type="qcurve"/>
      <point x="352" y="516"/>
      <point x="326" y="538"/>
      <point x="306" y="538" type="qcurve"/>
      <point x="286" y="538"/>
      <point x="260" y="516"/>
      <point x="260" y="496" type="qcurve"/>
      <point x="260" y="476"/>
      <point x="286" y="454"/>
    </contour>
    <contour>
      <point x="306" y="586" type="qcurve"/>
      <point x="325" y="586"/>
      <point x="352" y="604"/>
      <point x="352" y="622" type="qcurve"/>
      <point x="352" y="640"/>
      <point x="325" y="658"/>
      <point x="306" y="658" type="qcurve"/>
      <point x="287" y="658"/>
      <point x="260" y="640"/>
      <point x="260" y="622" type="qcurve"/>
      <point x="260" y="604"/>
      <point x="287" y="586"/>
    </contour>
  </outline>
</glyph>
<glyph name="uni207E" format="1">
  <advance width="612"/>
  <unicode hex="207E"/>
  <outline>
    <contour>
      <point x="226" y="351" type="line"/>
      <point x="253" y="351"/>
      <point x="300" y="372"/>
      <point x="336" y="410"/>
      <point x="356" y="463"/>
      <point x="356" y="495" type="qcurve"/>
      <point x="356" y="617" type="line"/>
      <point x="356" y="649"/>
      <point x="336" y="702"/>
      <point x="300" y="740"/>
      <point x="253" y="761"/>
      <point x="226" y="761" type="qcurve"/>
      <point x="208" y="761" type="line"/>
      <point x="208" y="809" type="line"/>
      <point x="226" y="809" type="line"/>
      <point x="262" y="809"/>
      <point x="327" y="783"/>
      <point x="375" y="734"/>
      <point x="404" y="664"/>
      <point x="404" y="619" type="qcurve"/>
      <point x="404" y="493" type="line"/>
      <point x="404" y="448"/>
      <point x="375" y="378"/>
      <point x="327" y="329"/>
      <point x="262" y="303"/>
      <point x="226" y="303" type="qcurve"/>
      <point x="208" y="303" type="line"/>
      <point x="208" y="351" type="line"/>
    </contour>
  </outline>
</glyph>
<glyph name="uni20A1" format="1">
  <advance width="612"/>
  <unicode hex="20A1"/>
  <outline>
    <contour>
      <point x="546" y="278" type="line"/>
      <point x="532" y="200"/>
      <point x="423" y="96"/>
      <point x="335" y="89" type="qcurve"/>
      <point x="322" y="28" type="line"/>
      <point x="252" y="43" type="line"/>
      <point x="262" y="91" type="line"/>
      <point x="254" y="93"/>
      <point x="236" y="97"/>
      <point x="228" y="99" type="qcurve"/>
      <point x="213" y="28" type="line"/>
      <point x="143" y="43" type="line"/>
      <point x="161" y="130" type="line"/>
      <point x="113" y="162"/>
      <point x="54" y="268"/>
      <point x="54" y="342" type="qcurve"/>
      <point x="54" y="354" type="line"/>
      <point x="54" y="407"/>
      <point x="86" y="494"/>
      <point x="143" y="559"/>
      <point x="219" y="600"/>
      <point x="263" y="608" type="qcurve"/>
      <point x="277" y="672" type="line"/>
      <point x="347" y="657" type="line"/>
      <point x="337" y="610" type="line"/>
      <point x="346" y="609"/>
      <point x="364" y="607"/>
      <point x="372" y="605" type="qcurve"/>
      <point x="386" y="672" type="line"/>
      <point x="456" y="657" type="line"/>
      <point x="439" y="578" type="line"/>
      <point x="481" y="552"/>
      <point x="536" y="473"/>
      <point x="544" y="422" type="qcurve"/>
      <point x="466" y="404" type="line"/>
      <point x="463" y="430"/>
      <point x="441" y="478"/>
      <point x="422" y="496" type="qcurve"/>
      <point x="351" y="166" type="line"/>
      <point x="404" y="178"/>
      <point x="461" y="252"/>
      <point x="468" y="296" type="qcurve"/>
    </contour>
    <contour>
      <point x="134" y="342" type="line"/>
      <point x="134" y="302"/>
      <point x="158" y="238"/>
      <point x="180" y="215" type="qcurve"/>
      <point x="246" y="527" type="line"/>
      <point x="196" y="508"/>
      <point x="134" y="417"/>
      <point x="134" y="354" type="qcurve"/>
    </contour>
    <contour>
      <point x="244" y="173" type="line"/>
      <point x="258" y="167"/>
      <point x="278" y="164" type="qcurve"/>
      <point x="356" y="532" type="line"/>
      <point x="348" y="534"/>
      <point x="331" y="536"/>
      <point x="321" y="537" type="qcurve"/>
    </contour>
  </outline>
</glyph>
<glyph name="uni20A4" format="1">
  <advance width="612"/>
  <unicode hex="20A4"/>
  <outline>
    <contour>
      <point x="110" y="294" type="line"/>
      <point x="170" y="294" type="line"/>
      <point x="170" y="330" type="line"/>
      <point x="110" y="330" type="line"/>
      <point x="110" y="402" type="line"/>
      <point x="170" y="402" type="line"/>
      <point x="170" y="440" type="line"/>
      <point x="170" y="523"/>
      <point x="258" y="612"/>
      <point x="336" y="612" type="qcurve"/>
      <point x="411" y="612"/>
      <point x="502" y="523"/>
      <point x="502" y="440" type="qcurve"/>
      <point x="502" y="416" type="line"/>
      <point x="424" y="416" type="line"/>
      <point x="424" y="440" type="line"/>
      <point x="424" y="491"/>
      <point x="374" y="540"/>
      <point x="336" y="540" type="qcurve"/>
      <point x="298" y="540"/>
      <point x="248" y="491"/>
      <point x="248" y="440" type="qcurve"/>
      <point x="248" y="402" type="line"/>
      <point x="338" y="402" type="line"/>
      <point x="338" y="330" type="line"/>
      <point x="248" y="330" type="line"/>
      <point x="248" y="294" type="line"/>
      <point x="337" y="294" type="line"/>
      <point x="337" y="222" type="line"/>
      <point x="248" y="222" type="line"/>
      <point x="248" y="174" type="line"/>
      <point x="490" y="174" type="line"/>
      <point x="490" y="102" type="line"/>
      <point x="110" y="102" type="line"/>
      <point x="110" y="174" type="line"/>
      <point x="170" y="174" type="line"/>
      <point x="170" y="222" type="line"/>
      <point x="110" y="222" type="line"/>
    </contour>
  </outline>
</glyph>
<glyph name="uni20AB" format="1">
  <advance width="612"/>
  <unicode hex="20AB"/>
  <outline>
    <contour>
      <point x="278" y="562" type="line"/>
      <point x="386" y="562" type="line"/>
      <point x="386" y="598" type="line"/>
      <point x="464" y="598" type="line"/>
      <point x="464" y="562" type="line"/>
      <point x="518" y="562" type="line"/>
      <point x="518" y="496" type="line"/>
      <point x="464" y="496" type="line"/>
      <point x="464" y="102" type="line"/>
      <point x="386" y="102" type="line"/>
      <point x="386" y="146" type="line"/>
      <point x="377" y="146" type="line"/>
      <point x="366" y="120"/>
      <point x="310" y="90"/>
      <point x="274" y="90" type="qcurve"/>
      <point x="239" y="90"/>
      <point x="179" y="114"/>
      <point x="135" y="161"/>
      <point x="110" y="230"/>
      <point x="110" y="275" type="qcurve"/>
      <point x="110" y="281" type="line"/>
      <point x="110" y="324"/>
      <point x="137" y="392"/>
      <point x="182" y="439"/>
      <point x="243" y="464"/>
      <point x="278" y="464" type="qcurve"/>
      <point x="316" y="464"/>
      <point x="366" y="435"/>
      <point x="377" y="412" type="qcurve"/>
      <point x="386" y="412" type="line"/>
      <point x="386" y="496" type="line"/>
      <point x="278" y="496" type="line"/>
    </contour>
    <contour>
      <point x="287" y="392" type="qcurve"/>
      <point x="242" y="392"/>
      <point x="188" y="330"/>
      <point x="188" y="277" type="qcurve"/>
      <point x="188" y="224"/>
      <point x="242" y="162"/>
      <point x="287" y="162" type="qcurve"/>
      <point x="332" y="162"/>
      <point x="386" y="224"/>
      <point x="386" y="277" type="qcurve"/>
      <point x="386" y="330"/>
      <point x="332" y="392"/>
    </contour>
    <contour>
      <point x="188" y="66" type="line"/>
      <point x="464" y="66" type="line"/>
      <point x="464" y="0" type="line"/>
      <point x="188" y="0" type="line"/>
    </contour>
  </outline>
</glyph>
<glyph name="uni20B2" format="1">
  <advance width="612"/>
  <unicode hex="20B2"/>
  <outline>
    <contour>
      <point x="338" y="609" type="line"/>
      <point x="373" y="603"/>
      <point x="425" y="572"/>
      <point x="460" y="525"/>
      <point x="478" y="465"/>
      <point x="478" y="432" type="qcurve"/>
      <point x="478" y="420" type="line"/>
      <point x="400" y="420" type="line"/>
      <point x="400" y="432" type="line"/>
      <point x="400" y="466"/>
      <point x="370" y="523"/>
      <point x="338" y="534" type="qcurve"/>
      <point x="338" y="348" type="line"/>
      <point x="478" y="348" type="line"/>
      <point x="478" y="102" type="line"/>
      <point x="406" y="102" type="line"/>
      <point x="406" y="158" type="line"/>
      <point x="394" y="158" type="line"/>
      <point x="383" y="115"/>
      <point x="338" y="96" type="qcurve"/>
      <point x="338" y="28" type="line"/>
      <point x="266" y="28" type="line"/>
      <point x="266" y="89" type="line"/>
      <point x="196" y="97"/>
      <point x="123" y="198"/>
      <point x="123" y="292" type="qcurve"/>
      <point x="123" y="408" type="line"/>
      <point x="123" y="493"/>
      <point x="198" y="598"/>
      <point x="266" y="609" type="qcurve"/>
      <point x="266" y="672" type="line"/>
      <point x="338" y="672" type="line"/>
    </contour>
    <contour>
      <point x="201" y="286" type="line"/>
      <point x="201" y="239"/>
      <point x="233" y="176"/>
      <point x="266" y="165" type="qcurve"/>
      <point x="266" y="534" type="line"/>
      <point x="231" y="523"/>
      <point x="201" y="460"/>
      <point x="201" y="412" type="qcurve"/>
    </contour>
    <contour>
      <point x="338" y="276" type="line"/>
      <point x="338" y="165" type="line"/>
      <point x="368" y="174"/>
      <point x="405" y="227"/>
      <point x="405" y="270" type="qcurve"/>
      <point x="405" y="276" type="line"/>
    </contour>
  </outline>
</glyph>
<glyph name="uni20B5" format="1">
  <advance width="612"/>
  <unicode hex="20B5"/>
  <outline>
    <contour>
      <point x="344" y="609" type="line"/>
      <point x="379" y="603"/>
      <point x="431" y="572"/>
      <point x="466" y="527"/>
      <point x="483" y="469"/>
      <point x="483" y="438" type="qcurve"/>
      <point x="483" y="420" type="line"/>
      <point x="405" y="420" type="line"/>
      <point x="405" y="438" type="line"/>
      <point x="405" y="471"/>
      <point x="375" y="524"/>
      <point x="344" y="535" type="qcurve"/>
      <point x="344" y="165" type="line"/>
      <point x="375" y="175"/>
      <point x="405" y="228"/>
      <point x="405" y="262" type="qcurve"/>
      <point x="405" y="280" type="line"/>
      <point x="483" y="280" type="line"/>
      <point x="483" y="262" type="line"/>
      <point x="483" y="230"/>
      <point x="466" y="173"/>
      <point x="431" y="128"/>
      <point x="379" y="97"/>
      <point x="344" y="91" type="qcurve"/>
      <point x="344" y="28" type="line"/>
      <point x="272" y="28" type="line"/>
      <point x="272" y="90" type="line"/>
      <point x="203" y="101"/>
      <point x="129" y="203"/>
      <point x="129" y="294" type="qcurve"/>
      <point x="129" y="406" type="line"/>
      <point x="129" y="493"/>
      <point x="204" y="598"/>
      <point x="272" y="609" type="qcurve"/>
      <point x="272" y="672" type="line"/>
      <point x="344" y="672" type="line"/>
    </contour>
    <contour>
      <point x="206" y="292" type="line"/>
      <point x="206" y="184"/>
      <point x="272" y="165" type="qcurve"/>
      <point x="272" y="534" type="line"/>
      <point x="206" y="511"/>
      <point x="206" y="408" type="qcurve"/>
    </contour>
  </outline>
</glyph>
<glyph name="uni2113" format="1">
  <advance width="612"/>
  <unicode hex="2113"/>
  <outline>
    <contour>
      <point x="308" y="102" type="line"/>
      <point x="308" y="72"/>
      <point x="335" y="72" type="qcurve"/>
      <point x="488" y="72" type="line"/>
      <point x="488" y="0" type="line"/>
      <point x="307" y="0" type="line"/>
      <point x="273" y="0"/>
      <point x="230" y="44"/>
      <point x="230" y="78" type="qcurve"/>
      <point x="230" y="210" type="line"/>
      <point x="213" y="208"/>
      <point x="177" y="206"/>
      <point x="158" y="206" type="qcurve"/>
      <point x="74" y="206" type="line"/>
      <point x="74" y="278" type="line"/>
      <point x="158" y="278" type="line"/>
      <point x="177" y="278"/>
      <point x="213" y="281"/>
      <point x="230" y="283" type="qcurve"/>
      <point x="230" y="576" type="line"/>
      <point x="230" y="605"/>
      <point x="248" y="656"/>
      <point x="281" y="693"/>
      <point x="330" y="714"/>
      <point x="362" y="714" type="qcurve"/>
      <point x="400" y="714"/>
      <point x="457" y="684"/>
      <point x="494" y="633"/>
      <point x="512" y="562"/>
      <point x="512" y="522" type="qcurve"/>
      <point x="512" y="464"/>
      <point x="483" y="370"/>
      <point x="429" y="296"/>
      <point x="354" y="244"/>
      <point x="308" y="228" type="qcurve"/>
    </contour>
    <contour>
      <point x="308" y="306" type="line"/>
      <point x="370" y="334"/>
      <point x="436" y="438"/>
      <point x="436" y="510" type="qcurve"/>
      <point x="436" y="578"/>
      <point x="398" y="642"/>
      <point x="362" y="642" type="qcurve"/>
      <point x="337" y="642"/>
      <point x="308" y="606"/>
      <point x="308" y="570" type="qcurve"/>
    </contour>
  </outline>
</glyph>
<glyph name="uni2120" format="1">
  <advance width="612"/>
  <unicode hex="2120"/>
  <outline>
    <contour>
      <point x="304" y="700" type="line"/>
      <point x="408" y="700" type="line"/>
      <point x="423" y="448" type="line"/>
      <point x="429" y="448" type="line"/>
      <point x="445" y="700" type="line"/>
      <point x="549" y="700" type="line"/>
      <point x="549" y="412" type="line"/>
      <point x="495" y="412" type="line"/>
      <point x="495" y="670" type="line"/>
      <point x="489" y="670" type="line"/>
      <point x="471" y="412" type="line"/>
      <point x="381" y="412" type="line"/>
      <point x="364" y="670" type="line"/>
      <point x="358" y="670" type="line"/>
      <point x="358" y="412" type="line"/>
      <point x="304" y="412" type="line"/>
    </contour>
    <contour>
      <point x="217" y="614" type="line"/>
      <point x="217" y="635"/>
      <point x="191" y="658"/>
      <point x="170" y="658" type="qcurve"/>
      <point x="151" y="658"/>
      <point x="128" y="639"/>
      <point x="128" y="624" type="qcurve"/>
      <point x="128" y="607"/>
      <point x="151" y="589"/>
      <point x="188" y="582" type="qcurve"/>
      <point x="235" y="574"/>
      <point x="274" y="531"/>
      <point x="274" y="496" type="qcurve"/>
      <point x="274" y="454"/>
      <point x="226" y="406"/>
      <point x="175" y="406" type="qcurve"/>
      <point x="120" y="406"/>
      <point x="62" y="467"/>
      <point x="62" y="512" type="qcurve"/>
      <point x="62" y="522" type="line"/>
      <point x="116" y="522" type="line"/>
      <point x="116" y="514" type="line"/>
      <point x="116" y="487"/>
      <point x="144" y="454"/>
      <point x="174" y="454" type="qcurve"/>
      <point x="198" y="454"/>
      <point x="220" y="477"/>
      <point x="220" y="492" type="qcurve"/>
      <point x="220" y="511"/>
      <point x="197" y="530"/>
      <point x="168" y="535" type="qcurve"/>
      <point x="127" y="542"/>
      <point x="74" y="579"/>
      <point x="74" y="624" type="qcurve"/>
      <point x="74" y="660"/>
      <point x="127" y="706"/>
      <point x="169" y="706" type="qcurve"/>
      <point x="219" y="706"/>
      <point x="271" y="656"/>
      <point x="271" y="618" type="qcurve"/>
      <point x="271" y="604" type="line"/>
      <point x="217" y="604" type="line"/>
    </contour>
  </outline>
</glyph>
<glyph name="partialdiff" format="1">
  <advance width="612"/>
  <unicode hex="2202"/>
  <outline>
    <contour>
      <point x="448" y="440" type="line"/>
      <point x="436" y="486"/>
      <point x="377" y="556"/>
      <point x="298" y="606"/>
      <point x="205" y="635"/>
      <point x="160" y="640" type="qcurve"/>
      <point x="178" y="714" type="line"/>
      <point x="267" y="702"/>
      <point x="407" y="633"/>
      <point x="504" y="522"/>
      <point x="555" y="370"/>
      <point x="555" y="275" type="qcurve"/>
      <point x="555" y="201"/>
      <point x="516" y="93"/>
      <point x="448" y="21"/>
      <point x="358" y="-14"/>
      <point x="306" y="-14" type="qcurve"/>
      <point x="256" y="-14"/>
      <point x="166" y="20"/>
      <point x="98" y="85"/>
      <point x="57" y="180"/>
      <point x="57" y="242" type="qcurve"/>
      <point x="57" y="254" type="line"/>
      <point x="57" y="315"/>
      <point x="97" y="410"/>
      <point x="164" y="476"/>
      <point x="249" y="510"/>
      <point x="294" y="510" type="qcurve"/>
      <point x="345" y="510"/>
      <point x="418" y="470"/>
      <point x="436" y="440" type="qcurve"/>
    </contour>
    <contour>
      <point x="306" y="60" type="qcurve"/>
      <point x="342" y="60"/>
      <point x="403" y="86"/>
      <point x="449" y="135"/>
      <point x="475" y="207"/>
      <point x="475" y="254" type="qcurve"/>
      <point x="475" y="294"/>
      <point x="449" y="361"/>
      <point x="403" y="409"/>
      <point x="341" y="436"/>
      <point x="306" y="436" type="qcurve"/>
      <point x="271" y="436"/>
      <point x="209" y="409"/>
      <point x="163" y="361"/>
      <point x="137" y="294"/>
      <point x="137" y="254" type="qcurve"/>
      <point x="137" y="242" type="line"/>
      <point x="137" y="200"/>
      <point x="163" y="133"/>
      <point x="209" y="85"/>
      <point x="270" y="60"/>
    </contour>
  </outline>
</glyph>
<glyph name="integral" format="1">
  <advance width="612"/>
  <unicode hex="222B"/>
  <outline>
    <contour>
      <point x="345" y="-122" type="line"/>
      <point x="345" y="-156"/>
      <point x="302" y="-200"/>
      <point x="268" y="-200" type="qcurve"/>
      <point x="147" y="-200" type="line"/>
      <point x="147" y="-128" type="line"/>
      <point x="240" y="-128" type="line"/>
      <point x="267" y="-128"/>
      <point x="267" y="-98" type="qcurve"/>
      <point x="267" y="622" type="line"/>
      <point x="267" y="656"/>
      <point x="310" y="700"/>
      <point x="344" y="700" type="qcurve"/>
      <point x="465" y="700" type="line"/>
      <point x="465" y="628" type="line"/>
      <point x="372" y="628" type="line"/>
      <point x="345" y="628"/>
      <point x="345" y="598" type="qcurve"/>
    </contour>
  </outline>
</glyph>
<glyph name="notequal" format="1">
  <advance width="612"/>
  <unicode hex="2260"/>
  <outline>
    <contour>
      <point x="97" y="458" type="line"/>
      <point x="303" y="458" type="line"/>
      <point x="338" y="564" type="line"/>
      <point x="408" y="542" type="line"/>
      <point x="380" y="458" type="line"/>
      <point x="515" y="458" type="line"/>
      <point x="515" y="386" type="line"/>
      <point x="357" y="386" type="line"/>
      <point x="333" y="314" type="line"/>
      <point x="515" y="314" type="line"/>
      <point x="515" y="242" type="line"/>
      <point x="310" y="242" type="line"/>
      <point x="272" y="126" type="line"/>
      <point x="201" y="148" type="line"/>
      <point x="232" y="242" type="line"/>
      <point x="97" y="242" type="line"/>
      <point x="97" y="314" type="line"/>
      <point x="255" y="314" type="line"/>
      <point x="279" y="386" type="line"/>
      <point x="97" y="386" type="line"/>
    </contour>
  </outline>
</glyph>
<glyph name="lessequal" format="1">
  <advance width="612"/>
  <unicode hex="2264"/>
  <outline>
    <contour>
      <point x="97" y="274" type="line"/>
      <point x="97" y="426" type="line"/>
      <point x="515" y="570" type="line"/>
      <point x="515" y="486" type="line"/>
      <point x="127" y="356" type="line"/>
      <point x="127" y="344" type="line"/>
      <point x="515" y="214" type="line"/>
      <point x="515" y="130" type="line"/>
    </contour>
    <contour>
      <point x="97" y="72" type="line"/>
      <point x="515" y="72" type="line"/>
      <point x="515" y="0" type="line"/>
      <point x="97" y="0" type="line"/>
    </contour>
  </outline>
</glyph>
<glyph name="lozenge" format="1">
  <advance width="612"/>
  <unicode hex="25CA"/>
  <outline>
    <contour>
      <point x="54" y="350" type="line"/>
      <point x="228" y="700" type="line"/>
      <point x="384" y="700" type="line"/>
      <point x="558" y="350" type="line"/>
      <point x="384" y="0" type="line"/>
      <point x="228" y="0" type="line"/>
    </contour>
    <contour>
      <point x="312" y="36" type="line"/>
      <point x="468" y="350" type="line"/>
      <point x="312" y="664" type="line"/>
      <point x="300" y="664" type="line"/>
      <point x="144" y="350" type="line"/>
      <point x="300" y="36" type="line"/>
    </contour>
  </outline>
</glyph>
<glyph name="fi" format="1">
  <advance width="612"/>
  <unicode hex="FB01"/>
  <outline>
    <contour>
      <point x="384" y="644" type="qcurve"/>
      <point x="384" y="673"/>
      <point x="425" y="714"/>
      <point x="454" y="714" type="qcurve"/>
      <point x="483" y="714"/>
      <point x="524" y="673"/>
      <point x="524" y="644" type="qcurve"/>
      <point x="524" y="615"/>
      <point x="483" y="574"/>
      <point x="454" y="574" type="qcurve"/>
      <point x="425" y="574"/>
      <point x="384" y="615"/>
    </contour>
    <contour>
      <point x="416" y="0" type="line"/>
      <point x="416" y="424" type="line"/>
      <point x="243" y="424" type="line"/>
      <point x="243" y="0" type="line"/>
      <point x="165" y="0" type="line"/>
      <point x="165" y="424" type="line"/>
      <point x="48" y="424" type="line"/>
      <point x="48" y="496" type="line"/>
      <point x="165" y="496" type="line"/>
      <point x="165" y="602" type="line"/>
      <point x="165" y="636"/>
      <point x="208" y="680"/>
      <point x="242" y="680" type="qcurve"/>
      <point x="348" y="680" type="line"/>
      <point x="348" y="608" type="line"/>
      <point x="270" y="608" type="line"/>
      <point x="243" y="608"/>
      <point x="243" y="578" type="qcurve"/>
      <point x="243" y="496" type="line"/>
      <point x="494" y="496" type="line"/>
      <point x="494" y="0" type="line"/>
    </contour>
  </outline>
</glyph>
<glyph name="B.alt" format="1">
  <advance width="612"/>
  <outline>
    <contour>
      <point x="90" y="700" type="line"/>
      <point x="325" y="700" type="line"/>
      <point x="375" y="700"/>
      <point x="452" y="672"/>
      <point x="505" y="624"/>
      <point x="532" y="557"/>
      <point x="532" y="518" type="qcurve"/>
      <point x="532" y="506" type="line"/>
      <point x="532" y="477"/>
      <point x="514" y="429"/>
      <point x="482" y="391"/>
      <point x="439" y="364"/>
      <point x="414" y="357" type="qcurve"/>
      <point x="414" y="345" type="line"/>
      <point x="464" y="331"/>
      <point x="532" y="252"/>
      <point x="532" y="195" type="qcurve"/>
      <point x="532" y="183" type="line"/>
      <point x="532" y="144"/>
      <point x="505" y="77"/>
      <point x="452" y="28"/>
      <point x="375" y="0"/>
      <point x="325" y="0" type="qcurve"/>
      <point x="90" y="0" type="line"/>
    </contour>
    <contour>
      <point x="174" y="78" type="line"/>
      <point x="319" y="78" type="line"/>
      <point x="378" y="78"/>
      <point x="452" y="137"/>
      <point x="452" y="189" type="qcurve"/>
      <point x="452" y="195" type="line"/>
      <point x="452" y="249"/>
      <point x="382" y="312"/>
      <point x="322" y="312" type="qcurve"/>
      <point x="174" y="312" type="line"/>
    </contour>
    <contour>
      <point x="174" y="390" type="line"/>
      <point x="322" y="390" type="line"/>
      <point x="382" y="390"/>
      <point x="452" y="452"/>
      <point x="452" y="506" type="qcurve"/>
      <point x="452" y="512" type="line"/>
      <point x="452" y="563"/>
      <point x="378" y="622"/>
      <point x="319" y="622" type="qcurve"/>
      <point x="174" y="622" type="line"/>
    </contour>
  </outline>
</glyph>
<glyph name="Eth.alt" format="1">
  <advance width="612"/>
  <outline>
    <contour>
      <point x="48" y="389" type="line"/>
      <point x="108" y="389" type="line"/>
      <point x="108" y="700" type="line"/>
      <point x="290" y="700" type="line"/>
      <point x="420" y="700"/>
      <point x="540" y="576"/>
      <point x="540" y="440" type="qcurve"/>
      <point x="540" y="260" type="line"/>
      <point x="540" y="124"/>
      <point x="420" y="0"/>
      <point x="290" y="0" type="qcurve"/>
      <point x="108" y="0" type="line"/>
      <point x="108" y="311" type="line"/>
      <point x="48" y="311" type="line"/>
    </contour>
    <contour>
      <point x="278" y="78" type="line"/>
      <point x="324" y="78"/>
      <point x="391" y="96"/>
      <point x="435" y="139"/>
      <point x="456" y="211"/>
      <point x="456" y="266" type="qcurve"/>
      <point x="456" y="434" type="line"/>
      <point x="456" y="489"/>
      <point x="435" y="561"/>
      <point x="391" y="604"/>
      <point x="324" y="622"/>
      <point x="278" y="622" type="qcurve"/>
      <point x="192" y="622" type="line"/>
      <point x="192" y="389" type="line"/>
      <point x="300" y="389" type="line"/>
      <point x="300" y="311" type="line"/>
      <point x="192" y="311" type="line"/>
      <point x="192" y="78" type="line"/>
    </contour>
  </outline>
</glyph>
<glyph name="Euro.cap" format="1">
  <advance width="612"/>
  <outline>
    <contour>
      <point x="80" y="444" type="line"/>
      <point x="84" y="572"/>
      <point x="213" y="714"/>
      <point x="326" y="714" type="qcurve"/>
      <point x="386" y="714"/>
      <point x="478" y="675"/>
      <point x="540" y="606"/>
      <point x="572" y="513"/>
      <point x="572" y="460" type="qcurve"/>
      <point x="488" y="448" type="line"/>
      <point x="488" y="460" type="line"/>
      <point x="487" y="494"/>
      <point x="468" y="558"/>
      <point x="429" y="607"/>
      <point x="369" y="636"/>
      <point x="326" y="636" type="qcurve"/>
      <point x="249" y="636"/>
      <point x="169" y="532"/>
      <point x="164" y="444" type="qcurve"/>
      <point x="322" y="444" type="line"/>
      <point x="322" y="366" type="line"/>
      <point x="164" y="366" type="line"/>
      <point x="164" y="330" type="line"/>
      <point x="322" y="330" type="line"/>
      <point x="322" y="252" type="line"/>
      <point x="165" y="252" type="line"/>
      <point x="170" y="161"/>
      <point x="250" y="64"/>
      <point x="326" y="64" type="qcurve"/>
      <point x="369" y="64"/>
      <point x="430" y="93"/>
      <point x="469" y="142"/>
      <point x="488" y="205"/>
      <point x="488" y="240" type="qcurve"/>
      <point x="488" y="252" type="line"/>
      <point x="572" y="240" type="line"/>
      <point x="572" y="187"/>
      <point x="540" y="94"/>
      <point x="478" y="25"/>
      <point x="386" y="-14"/>
      <point x="326" y="-14" type="qcurve"/>
      <point x="214" y="-14"/>
      <point x="85" y="121"/>
      <point x="80" y="252" type="qcurve"/>
      <point x="20" y="252" type="line"/>
      <point x="20" y="330" type="line"/>
      <point x="80" y="330" type="line"/>
      <point x="80" y="366" type="line"/>
      <point x="20" y="366" type="line"/>
      <point x="20" y="444" type="line"/>
    </contour>
  </outline>
</glyph>
<glyph name="IJacute" format="1">
  <advance width="612"/>
  <outline>
    <contour>
      <point x="73" y="700" type="line"/>
      <point x="157" y="700" type="line"/>
      <point x="157" y="342" type="line"/>
      <point x="73" y="342" type="line"/>
    </contour>
    <contour>
      <point x="505" y="210" type="line"/>
      <point x="505" y="101"/>
      <point x="398" y="-14"/>
      <point x="295" y="-14" type="qcurve"/>
      <point x="192" y="-14"/>
      <point x="73" y="101"/>
      <point x="73" y="210" type="qcurve"/>
      <point x="73" y="264" type="line"/>
      <point x="157" y="264" type="line"/>
      <point x="157" y="210" type="line"/>
      <point x="157" y="144"/>
      <point x="225" y="64"/>
      <point x="295" y="64" type="qcurve"/>
      <point x="365" y="64"/>
      <point x="421" y="144"/>
      <point x="421" y="210" type="qcurve"/>
      <point x="421" y="622" type="line"/>
      <point x="349" y="622" type="line"/>
      <point x="349" y="700" type="line"/>
      <point x="565" y="700" type="line"/>
      <point x="565" y="622" type="line"/>
      <point x="505" y="622" type="line"/>
    </contour>
    <component base="acute" xOffset="-151" yOffset="204"/>
    <component base="acute" xOffset="197" yOffset="204"/>
  </outline>
</glyph>
<glyph name="J.alt" format="1">
  <advance width="612"/>
  <outline>
    <contour>
      <point x="514" y="210" type="line"/>
      <point x="514" y="101"/>
      <point x="407" y="-14"/>
      <point x="304" y="-14" type="qcurve"/>
      <point x="201" y="-14"/>
      <point x="82" y="101"/>
      <point x="82" y="210" type="qcurve"/>
      <point x="82" y="264" type="line"/>
      <point x="166" y="264" type="line"/>
      <point x="166" y="210" type="line"/>
      <point x="166" y="144"/>
      <point x="234" y="62"/>
      <point x="304" y="62" type="qcurve"/>
      <point x="339" y="62"/>
      <point x="387" y="83"/>
      <point x="417" y="122"/>
      <point x="430" y="177"/>
      <point x="430" y="210" type="qcurve"/>
      <point x="430" y="700" type="line"/>
      <point x="514" y="700" type="line"/>
    </contour>
  </outline>
</glyph>
<glyph name="Omega" format="1">
  <advance width="612"/>
  <outline>
    <contour>
      <point x="564" y="0" type="line"/>
      <point x="348" y="0" type="line"/>
      <point x="348" y="84" type="line"/>
      <point x="378" y="94"/>
      <point x="423" y="125"/>
      <point x="453" y="174"/>
      <point x="468" y="243"/>
      <point x="468" y="290" type="qcurve"/>
      <point x="468" y="426" type="line"/>
      <point x="468" y="472"/>
      <point x="448" y="549"/>
      <point x="407" y="605"/>
      <point x="346" y="636"/>
      <point x="306" y="636" type="qcurve"/>
      <point x="265" y="636"/>
      <point x="205" y="605"/>
      <point x="164" y="549"/>
      <point x="144" y="472"/>
      <point x="144" y="426" type="qcurve"/>
      <point x="144" y="290" type="line"/>
      <point x="144" y="243"/>
      <point x="159" y="174"/>
      <point x="189" y="125"/>
      <point x="234" y="94"/>
      <point x="264" y="84" type="qcurve"/>
      <point x="264" y="0" type="line"/>
      <point x="48" y="0" type="line"/>
      <point x="48" y="78" type="line"/>
      <point x="146" y="78" type="line"/>
      <point x="146" y="90" type="line"/>
      <point x="107" y="110"/>
      <point x="60" y="207"/>
      <point x="60" y="284" type="qcurve"/>
      <point x="60" y="434" type="line"/>
      <point x="60" y="499"/>
      <point x="95" y="603"/>
      <point x="160" y="675"/>
      <point x="250" y="714"/>
      <point x="306" y="714" type="qcurve"/>
      <point x="361" y="714"/>
      <point x="452" y="675"/>
      <point x="517" y="603"/>
      <point x="552" y="499"/>
      <point x="552" y="434" type="qcurve"/>
      <point x="552" y="284" type="line"/>
      <point x="552" y="207"/>
      <point x="505" y="110"/>
      <point x="466" y="90" type="qcurve"/>
      <point x="466" y="78" type="line"/>
      <point x="564" y="78" type="line"/>
    </contour>
  </outline>
</glyph>
<glyph name="aogonek.alt" format="1">
  <advance width="612"/>
  <outline>
    <contour>
      <point x="420" y="84" type="line"/>
      <point x="408" y="84" type="line"/>
      <point x="388" y="39"/>
      <point x="312" y="-14"/>
      <point x="255" y="-14" type="qcurve"/>
      <point x="214" y="-14"/>
      <point x="149" y="10"/>
      <point x="104" y="51"/>
      <point x="81" y="105"/>
      <point x="81" y="136" type="qcurve"/>
      <point x="81" y="148" type="line"/>
      <point x="81" y="183"/>
      <point x="108" y="240"/>
      <point x="155" y="279"/>
      <point x="219" y="300"/>
      <point x="257" y="300" type="qcurve"/>
      <point x="420" y="300" type="line"/>
      <point x="420" y="320" type="line"/>
      <point x="420" y="342"/>
      <point x="405" y="384"/>
      <point x="374" y="417"/>
      <point x="326" y="438"/>
      <point x="292" y="438" type="qcurve"/>
      <point x="240" y="438"/>
      <point x="175" y="383"/>
      <point x="167" y="330" type="qcurve"/>
      <point x="93" y="348" type="line"/>
      <point x="99" y="381"/>
      <point x="129" y="439"/>
      <point x="179" y="484"/>
      <point x="248" y="510"/>
      <point x="292" y="510" type="qcurve"/>
      <point x="338" y="510"/>
      <point x="414" y="482"/>
      <point x="468" y="431"/>
      <point x="498" y="362"/>
      <point x="498" y="321" type="qcurve"/>
      <point x="498" y="102" type="line"/>
      <point x="498" y="72"/>
      <point x="525" y="72" type="qcurve"/>
      <point x="550" y="72" type="line"/>
      <point x="550" y="0" type="line"/>
      <point x="502" y="0" type="line"/>
      <point x="486" y="-68" type="line"/>
      <point x="485" y="-73"/>
      <point x="485" y="-76" type="qcurve"/>
      <point x="485" y="-98"/>
      <point x="508" y="-98" type="qcurve"/>
      <point x="550" y="-98" type="line"/>
      <point x="550" y="-164" type="line"/>
      <point x="494" y="-164" type="line"/>
      <point x="465" y="-164"/>
      <point x="416" y="-127"/>
      <point x="416" y="-90" type="qcurve"/>
      <point x="416" y="-81"/>
      <point x="419" y="-66" type="qcurve"/>
      <point x="439" y="25" type="line"/>
      <point x="420" y="46"/>
      <point x="420" y="78" type="qcurve"/>
    </contour>
    <contour>
      <point x="262" y="58" type="qcurve"/>
      <point x="339" y="58"/>
      <point x="419" y="145"/>
      <point x="419" y="216" type="qcurve"/>
      <point x="419" y="228" type="line"/>
      <point x="266" y="228" type="line"/>
      <point x="215" y="228"/>
      <point x="158" y="186"/>
      <point x="158" y="142" type="qcurve"/>
      <point x="158" y="105"/>
      <point x="212" y="58"/>
    </contour>
  </outline>
</glyph>
<glyph name="asterisk.cap" format="1">
  <advance width="612"/>
  <outline>
    <contour>
      <point x="507" y="616" type="line"/>
      <point x="419" y="528" type="line"/>
      <point x="369" y="500" type="line"/>
      <point x="374" y="488" type="line"/>
      <point x="419" y="502" type="line"/>
      <point x="554" y="502" type="line"/>
      <point x="554" y="430" type="line"/>
      <point x="419" y="430" type="line"/>
      <point x="374" y="444" type="line"/>
      <point x="369" y="432" type="line"/>
      <point x="419" y="404" type="line"/>
      <point x="507" y="316" type="line"/>
      <point x="456" y="265" type="line"/>
      <point x="368" y="353" type="line"/>
      <point x="340" y="403" type="line"/>
      <point x="328" y="398" type="line"/>
      <point x="342" y="353" type="line"/>
      <point x="342" y="218" type="line"/>
      <point x="270" y="218" type="line"/>
      <point x="270" y="353" type="line"/>
      <point x="284" y="398" type="line"/>
      <point x="272" y="403" type="line"/>
      <point x="244" y="353" type="line"/>
      <point x="156" y="265" type="line"/>
      <point x="105" y="316" type="line"/>
      <point x="193" y="404" type="line"/>
      <point x="243" y="432" type="line"/>
      <point x="238" y="444" type="line"/>
      <point x="193" y="430" type="line"/>
      <point x="58" y="430" type="line"/>
      <point x="58" y="502" type="line"/>
      <point x="193" y="502" type="line"/>
      <point x="238" y="488" type="line"/>
      <point x="243" y="500" type="line"/>
      <point x="193" y="528" type="line"/>
      <point x="105" y="616" type="line"/>
      <point x="156" y="667" type="line"/>
      <point x="244" y="579" type="line"/>
      <point x="272" y="529" type="line"/>
      <point x="284" y="534" type="line"/>
      <point x="270" y="579" type="line"/>
      <point x="270" y="714" type="line"/>
      <point x="342" y="714" type="line"/>
      <point x="342" y="579" type="line"/>
      <point x="328" y="534" type="line"/>
      <point x="340" y="529" type="line"/>
      <point x="368" y="579" type="line"/>
      <point x="456" y="667" type="line"/>
    </contour>
  </outline>
</glyph>
<glyph name="daggerdbl.cap" format="1">
  <advance width="612"/>
  <outline>
    <contour>
      <point x="96" y="262" type="line"/>
      <point x="271" y="262" type="line"/>
      <point x="271" y="438" type="line"/>
      <point x="96" y="438" type="line"/>
      <point x="96" y="510" type="line"/>
      <point x="271" y="510" type="line"/>
      <point x="271" y="700" type="line"/>
      <point x="343" y="700" type="line"/>
      <point x="343" y="510" type="line"/>
      <point x="516" y="510" type="line"/>
      <point x="516" y="438" type="line"/>
      <point x="343" y="438" type="line"/>
      <point x="343" y="262" type="line"/>
      <point x="516" y="262" type="line"/>
      <point x="516" y="190" type="line"/>
      <point x="343" y="190" type="line"/>
      <point x="343" y="0" type="line"/>
      <point x="271" y="0" type="line"/>
      <point x="271" y="190" type="line"/>
      <point x="96" y="190" type="line"/>
    </contour>
  </outline>
</glyph>
<glyph name="dollar.cap" format="1">
  <advance width="612"/>
  <outline>
    <contour>
      <point x="471" y="498" type="line"/>
      <point x="471" y="554"/>
      <point x="403" y="620"/>
      <point x="352" y="631" type="qcurve"/>
      <point x="352" y="393" type="line"/>
      <point x="459" y="376"/>
      <point x="561" y="281"/>
      <point x="561" y="202" type="qcurve"/>
      <point x="561" y="190" type="line"/>
      <point x="561" y="105"/>
      <point x="455" y="-4"/>
      <point x="352" y="-12" type="qcurve"/>
      <point x="352" y="-92" type="line"/>
      <point x="274" y="-92" type="line"/>
      <point x="274" y="-11" type="line"/>
      <point x="218" y="-5"/>
      <point x="132" y="39"/>
      <point x="74" y="105"/>
      <point x="45" y="192"/>
      <point x="45" y="242" type="qcurve"/>
      <point x="45" y="272" type="line"/>
      <point x="129" y="272" type="line"/>
      <point x="129" y="248" type="line"/>
      <point x="129" y="168"/>
      <point x="205" y="78"/>
      <point x="274" y="67" type="qcurve"/>
      <point x="274" y="327" type="line"/>
      <point x="182" y="344"/>
      <point x="75" y="433"/>
      <point x="75" y="516" type="qcurve"/>
      <point x="75" y="528" type="line"/>
      <point x="75" y="565"/>
      <point x="104" y="629"/>
      <point x="156" y="677"/>
      <point x="229" y="708"/>
      <point x="274" y="712" type="qcurve"/>
      <point x="274" y="792" type="line"/>
      <point x="352" y="792" type="line"/>
      <point x="352" y="711" type="line"/>
      <point x="400" y="705"/>
      <point x="476" y="667"/>
      <point x="528" y="611"/>
      <point x="555" y="542"/>
      <point x="555" y="504" type="qcurve"/>
      <point x="555" y="462" type="line"/>
      <point x="471" y="462" type="line"/>
    </contour>
    <contour>
      <point x="477" y="196" type="line"/>
      <point x="477" y="243"/>
      <point x="418" y="299"/>
      <point x="352" y="313" type="qcurve"/>
      <point x="352" y="66" type="line"/>
      <point x="414" y="73"/>
      <point x="477" y="139"/>
      <point x="477" y="190" type="qcurve"/>
    </contour>
    <contour>
      <point x="159" y="519" type="line"/>
      <point x="159" y="474"/>
      <point x="216" y="423"/>
      <point x="274" y="408" type="qcurve"/>
      <point x="274" y="634" type="line"/>
      <point x="250" y="630"/>
      <point x="209" y="612"/>
      <point x="177" y="585"/>
      <point x="159" y="548"/>
      <point x="159" y="525" type="qcurve"/>
    </contour>
  </outline>
</glyph>
<glyph name="eight.tosn" format="1">
  <advance width="612"/>
  <outline>
    <contour>
      <point x="297" y="-14" type="line"/>
      <point x="245" y="-14"/>
      <point x="161" y="15"/>
      <point x="101" y="66"/>
      <point x="69" y="135"/>
      <point x="69" y="176" type="qcurve"/>
      <point x="69" y="188" type="line"/>
      <point x="69" y="224"/>
      <point x="91" y="280"/>
      <point x="127" y="322"/>
      <point x="174" y="350"/>
      <point x="199" y="357" type="qcurve"/>
      <point x="199" y="369" type="line"/>
      <point x="176" y="376"/>
      <point x="136" y="404"/>
      <point x="105" y="442"/>
      <point x="87" y="491"/>
      <point x="87" y="520" type="qcurve"/>
      <point x="87" y="532" type="line"/>
      <point x="87" y="572"/>
      <point x="118" y="639"/>
      <point x="175" y="687"/>
      <point x="254" y="714"/>
      <point x="303" y="714" type="qcurve"/>
      <point x="309" y="714" type="line"/>
      <point x="358" y="714"/>
      <point x="437" y="687"/>
      <point x="494" y="639"/>
      <point x="525" y="572"/>
      <point x="525" y="532" type="qcurve"/>
      <point x="525" y="520" type="line"/>
      <point x="525" y="491"/>
      <point x="507" y="442"/>
      <point x="476" y="404"/>
      <point x="435" y="376"/>
      <point x="413" y="369" type="qcurve"/>
      <point x="413" y="357" type="line"/>
      <point x="438" y="350"/>
      <point x="485" y="322"/>
      <point x="521" y="280"/>
      <point x="543" y="224"/>
      <point x="543" y="188" type="qcurve"/>
      <point x="543" y="176" type="line"/>
      <point x="543" y="135"/>
      <point x="511" y="66"/>
      <point x="451" y="15"/>
      <point x="367" y="-14"/>
      <point x="315" y="-14" type="qcurve"/>
    </contour>
    <contour>
      <point x="312" y="62" type="line"/>
      <point x="377" y="62"/>
      <point x="459" y="132"/>
      <point x="459" y="188" type="qcurve"/>
      <point x="459" y="194" type="line"/>
      <point x="459" y="256"/>
      <point x="376" y="324"/>
      <point x="309" y="324" type="qcurve"/>
      <point x="303" y="324" type="line"/>
      <point x="236" y="324"/>
      <point x="153" y="256"/>
      <point x="153" y="194" type="qcurve"/>
      <point x="153" y="188" type="line"/>
      <point x="153" y="132"/>
      <point x="233" y="62"/>
      <point x="300" y="62" type="qcurve"/>
    </contour>
    <contour>
      <point x="306" y="402" type="qcurve"/>
      <point x="368" y="402"/>
      <point x="441" y="468"/>
      <point x="441" y="518" type="qcurve"/>
      <point x="441" y="524" type="line"/>
      <point x="441" y="575"/>
      <point x="368" y="638"/>
      <point x="306" y="638" type="qcurve"/>
      <point x="244" y="638"/>
      <point x="171" y="575"/>
      <point x="171" y="524" type="qcurve"/>
      <point x="171" y="518" type="line"/>
      <point x="171" y="468"/>
      <point x="244" y="402"/>
    </contour>
  </outline>
</glyph>
<glyph name="five.tosn" format="1">
  <advance width="612"/>
  <outline>
    <contour>
      <point x="84" y="156" type="line"/>
      <point x="84" y="496" type="line"/>
      <point x="516" y="496" type="line"/>
      <point x="516" y="418" type="line"/>
      <point x="166" y="418" type="line"/>
      <point x="166" y="198" type="line"/>
      <point x="178" y="198" type="line"/>
      <point x="187" y="219"/>
      <point x="216" y="256"/>
      <point x="257" y="284"/>
      <point x="311" y="300"/>
      <point x="345" y="300" type="qcurve"/>
      <point x="393" y="300"/>
      <point x="472" y="265"/>
      <point x="528" y="202"/>
      <point x="558" y="117"/>
      <point x="558" y="68" type="qcurve"/>
      <point x="558" y="56" type="line"/>
      <point x="558" y="5"/>
      <point x="529" y="-88"/>
      <point x="469" y="-158"/>
      <point x="379" y="-200"/>
      <point x="318" y="-200" type="qcurve"/>
      <point x="258" y="-200"/>
      <point x="167" y="-165"/>
      <point x="105" y="-103"/>
      <point x="72" y="-19"/>
      <point x="70" y="30" type="qcurve"/>
      <point x="154" y="42" type="line"/>
      <point x="157" y="-38"/>
      <point x="243" y="-122"/>
      <point x="320" y="-122" type="qcurve"/>
      <point x="360" y="-122"/>
      <point x="419" y="-92"/>
      <point x="456" y="-41"/>
      <point x="474" y="25"/>
      <point x="474" y="60" type="qcurve"/>
      <point x="474" y="94"/>
      <point x="457" y="154"/>
      <point x="423" y="197"/>
      <point x="374" y="222"/>
      <point x="341" y="222" type="qcurve"/>
      <point x="319" y="222"/>
      <point x="285" y="210"/>
      <point x="261" y="190"/>
      <point x="245" y="167"/>
      <point x="242" y="156" type="qcurve"/>
    </contour>
  </outline>
</glyph>
<glyph name="g.alt" format="1">
  <advance width="612"/>
  <outline>
    <contour>
      <point x="378" y="72" type="line"/>
      <point x="455" y="72"/>
      <point x="533" y="-5"/>
      <point x="533" y="-62" type="qcurve"/>
      <point x="533" y="-68" type="line"/>
      <point x="533" y="-95"/>
      <point x="513" y="-143"/>
      <point x="474" y="-179"/>
      <point x="416" y="-200"/>
      <point x="378" y="-200" type="qcurve"/>
      <point x="251" y="-200" type="line"/>
      <point x="175" y="-200"/>
      <point x="98" y="-132"/>
      <point x="98" y="-77" type="qcurve"/>
      <point x="98" y="-44"/>
      <point x="131" y="7"/>
      <point x="154" y="17" type="qcurve"/>
      <point x="154" y="29" type="line"/>
      <point x="136" y="37"/>
      <point x="106" y="71"/>
      <point x="106" y="103" type="qcurve"/>
      <point x="106" y="121"/>
      <point x="118" y="148"/>
      <point x="135" y="168"/>
      <point x="155" y="181"/>
      <point x="163" y="184" type="qcurve"/>
      <point x="163" y="196" type="line"/>
      <point x="143" y="216"/>
      <point x="113" y="280"/>
      <point x="113" y="318" type="qcurve"/>
      <point x="113" y="330" type="line"/>
      <point x="113" y="370"/>
      <point x="143" y="436"/>
      <point x="194" y="484"/>
      <point x="264" y="510"/>
      <point x="305" y="510" type="qcurve"/>
      <point x="324" y="510"/>
      <point x="364" y="502"/>
      <point x="378" y="496" type="qcurve"/>
      <point x="533" y="496" type="line"/>
      <point x="533" y="423" type="line"/>
      <point x="449" y="423" type="line"/>
      <point x="449" y="411" type="line"/>
      <point x="472" y="398"/>
      <point x="496" y="343"/>
      <point x="496" y="310" type="qcurve"/>
      <point x="496" y="273"/>
      <point x="468" y="210"/>
      <point x="418" y="164"/>
      <point x="349" y="138"/>
      <point x="307" y="138" type="qcurve"/>
      <point x="271" y="138"/>
      <point x="222" y="152"/>
      <point x="199" y="165" type="qcurve"/>
      <point x="191" y="160"/>
      <point x="180" y="138"/>
      <point x="180" y="126" type="qcurve"/>
      <point x="180" y="96"/>
      <point x="220" y="72"/>
      <point x="256" y="72" type="qcurve"/>
    </contour>
    <contour>
      <point x="305" y="437" type="qcurve"/>
      <point x="282" y="437"/>
      <point x="239" y="422"/>
      <point x="207" y="394"/>
      <point x="188" y="353"/>
      <point x="188" y="327" type="qcurve"/>
      <point x="188" y="321" type="line"/>
      <point x="188" y="270"/>
      <point x="255" y="211"/>
      <point x="305" y="211" type="qcurve"/>
      <point x="356" y="211"/>
      <point x="422" y="270"/>
      <point x="422" y="321" type="qcurve"/>
      <point x="422" y="327" type="line"/>
      <point x="422" y="353"/>
      <point x="403" y="394"/>
      <point x="371" y="422"/>
      <point x="329" y="437"/>
    </contour>
    <contour>
      <point x="251" y="0" type="line"/>
      <point x="218" y="0"/>
      <point x="176" y="-33"/>
      <point x="176" y="-64" type="qcurve"/>
      <point x="176" y="-95"/>
      <point x="218" y="-128"/>
      <point x="251" y="-128" type="qcurve"/>
      <point x="380" y="-128" type="line"/>
      <point x="413" y="-128"/>
      <point x="455" y="-95"/>
      <point x="455" y="-64" type="qcurve"/>
      <point x="455" y="-33"/>
      <point x="413" y="0"/>
      <point x="380" y="0" type="qcurve"/>
    </contour>
  </outline>
</glyph>
<glyph name="i.alt" format="1">
  <advance width="612"/>
  <outline>
    <contour>
      <point x="258" y="644" type="qcurve"/>
      <point x="258" y="673"/>
      <point x="299" y="714"/>
      <point x="328" y="714" type="qcurve"/>
      <point x="357" y="714"/>
      <point x="398" y="673"/>
      <point x="398" y="644" type="qcurve"/>
      <point x="398" y="615"/>
      <point x="357" y="574"/>
      <point x="328" y="574" type="qcurve"/>
      <point x="299" y="574"/>
      <point x="258" y="615"/>
    </contour>
    <contour>
      <point x="290" y="0" type="line"/>
      <point x="290" y="424" type="line"/>
      <point x="120" y="424" type="line"/>
      <point x="120" y="496" type="line"/>
      <point x="368" y="496" type="line"/>
      <point x="368" y="0" type="line"/>
    </contour>
  </outline>
</glyph>
<glyph name="j.alt" format="1">
  <advance width="612"/>
  <outline>
    <contour>
      <point x="307" y="644" type="qcurve"/>
      <point x="307" y="673"/>
      <point x="348" y="714"/>
      <point x="377" y="714" type="qcurve"/>
      <point x="406" y="714"/>
      <point x="447" y="673"/>
      <point x="447" y="644" type="qcurve"/>
      <point x="447" y="615"/>
      <point x="406" y="574"/>
      <point x="377" y="574" type="qcurve"/>
      <point x="348" y="574"/>
      <point x="307" y="615"/>
    </contour>
    <contour>
      <point x="129" y="496" type="line"/>
      <point x="417" y="496" type="line"/>
      <point x="417" y="-200" type="line"/>
      <point x="339" y="-200" type="line"/>
      <point x="339" y="424" type="line"/>
      <point x="129" y="424" type="line"/>
    </contour>
  </outline>
</glyph>
<glyph name="lslash.alt" format="1">
  <advance width="612"/>
  <outline>
    <contour>
      <point x="270" y="0" type="line"/>
      <point x="270" y="275" type="line"/>
      <point x="207" y="243" type="line"/>
      <point x="172" y="311" type="line"/>
      <point x="270" y="360" type="line"/>
      <point x="270" y="628" type="line"/>
      <point x="100" y="628" type="line"/>
      <point x="100" y="700" type="line"/>
      <point x="348" y="700" type="line"/>
      <point x="348" y="400" type="line"/>
      <point x="413" y="433" type="line"/>
      <point x="447" y="366" type="line"/>
      <point x="348" y="315" type="line"/>
      <point x="348" y="0" type="line"/>
    </contour>
  </outline>
</glyph>
<glyph name="nine.tosn" format="1">
  <advance width="612"/>
  <outline>
    <contour>
      <point x="163" y="0" type="line"/>
      <point x="170" y="-59"/>
      <point x="242" y="-126"/>
      <point x="310" y="-126" type="qcurve"/>
      <point x="379" y="-126"/>
      <point x="465" y="-41"/>
      <point x="465" y="36" type="qcurve"/>
      <point x="465" y="128" type="line"/>
      <point x="453" y="128" type="line"/>
      <point x="430" y="84"/>
      <point x="344" y="34"/>
      <point x="287" y="34" type="qcurve"/>
      <point x="238" y="34"/>
      <point x="156" y="64"/>
      <point x="96" y="123"/>
      <point x="63" y="207"/>
      <point x="63" y="261" type="qcurve"/>
      <point x="63" y="273" type="line"/>
      <point x="63" y="325"/>
      <point x="99" y="412"/>
      <point x="164" y="475"/>
      <point x="253" y="510"/>
      <point x="306" y="510" type="qcurve"/>
      <point x="359" y="510"/>
      <point x="448" y="475"/>
      <point x="513" y="413"/>
      <point x="549" y="327"/>
      <point x="549" y="276" type="qcurve"/>
      <point x="549" y="36" type="line"/>
      <point x="549" y="-20"/>
      <point x="514" y="-107"/>
      <point x="450" y="-168"/>
      <point x="362" y="-200"/>
      <point x="310" y="-200" type="qcurve"/>
      <point x="260" y="-200"/>
      <point x="180" y="-173"/>
      <point x="123" y="-123"/>
      <point x="89" y="-55"/>
      <point x="84" y="-13" type="qcurve"/>
    </contour>
    <contour>
      <point x="306" y="436" type="qcurve"/>
      <point x="270" y="436"/>
      <point x="211" y="412"/>
      <point x="169" y="368"/>
      <point x="147" y="309"/>
      <point x="147" y="275" type="qcurve"/>
      <point x="147" y="263" type="line"/>
      <point x="147" y="228"/>
      <point x="171" y="171"/>
      <point x="213" y="130"/>
      <point x="271" y="108"/>
      <point x="306" y="108" type="qcurve"/>
      <point x="340" y="108"/>
      <point x="398" y="131"/>
      <point x="441" y="171"/>
      <point x="465" y="227"/>
      <point x="465" y="259" type="qcurve"/>
      <point x="465" y="278" type="line"/>
      <point x="465" y="311"/>
      <point x="443" y="369"/>
      <point x="401" y="412"/>
      <point x="342" y="436"/>
    </contour>
  </outline>
</glyph>
<glyph name="paragraph.cap" format="1">
  <advance width="612"/>
  <outline>
    <contour>
      <point x="500" y="700" type="line"/>
      <point x="500" y="0" type="line"/>
      <point x="422" y="0" type="line"/>
      <point x="422" y="628" type="line"/>
      <point x="380" y="628" type="line"/>
      <point x="380" y="0" type="line"/>
      <point x="302" y="0" type="line"/>
      <point x="302" y="296" type="line"/>
      <point x="290" y="296" type="line"/>
      <point x="237" y="296"/>
      <point x="155" y="327"/>
      <point x="100" y="381"/>
      <point x="72" y="452"/>
      <point x="72" y="492" type="qcurve"/>
      <point x="72" y="504" type="line"/>
      <point x="72" y="544"/>
      <point x="100" y="615"/>
      <point x="155" y="669"/>
      <point x="237" y="700"/>
      <point x="290" y="700" type="qcurve"/>
    </contour>
    <contour>
      <point x="150" y="495" type="line"/>
      <point x="150" y="440"/>
      <point x="221" y="368"/>
      <point x="292" y="368" type="qcurve"/>
      <point x="302" y="368" type="line"/>
      <point x="302" y="628" type="line"/>
      <point x="292" y="628" type="line"/>
      <point x="221" y="628"/>
      <point x="150" y="556"/>
      <point x="150" y="501" type="qcurve"/>
    </contour>
  </outline>
</glyph>
<glyph name="r.alt" format="1">
  <advance width="612"/>
  <outline>
    <contour>
      <point x="44" y="496" type="line"/>
      <point x="224" y="496" type="line"/>
      <point x="224" y="430" type="line"/>
      <point x="236" y="430" type="line"/>
      <point x="255" y="471"/>
      <point x="325" y="510"/>
      <point x="370" y="510" type="qcurve"/>
      <point x="445" y="510"/>
      <point x="537" y="412"/>
      <point x="540" y="318" type="qcurve"/>
      <point x="458" y="306" type="line"/>
      <point x="458" y="375"/>
      <point x="392" y="436"/>
      <point x="344" y="436" type="qcurve"/>
      <point x="313" y="436"/>
      <point x="268" y="412"/>
      <point x="238" y="370"/>
      <point x="224" y="314"/>
      <point x="224" y="282" type="qcurve"/>
      <point x="224" y="0" type="line"/>
      <point x="146" y="0" type="line"/>
      <point x="146" y="424" type="line"/>
      <point x="44" y="424" type="line"/>
    </contour>
  </outline>
</glyph>
<glyph name="sterling.cap" format="1">
  <advance width="612"/>
  <outline>
    <contour>
      <point x="120" y="366" type="line"/>
      <point x="120" y="490" type="line"/>
      <point x="120" y="543"/>
      <point x="150" y="627"/>
      <point x="206" y="684"/>
      <point x="284" y="714"/>
      <point x="332" y="714" type="qcurve"/>
      <point x="433" y="714"/>
      <point x="552" y="596"/>
      <point x="552" y="490" type="qcurve"/>
      <point x="552" y="436" type="line"/>
      <point x="468" y="436" type="line"/>
      <point x="468" y="490" type="line"/>
      <point x="468" y="556"/>
      <point x="402" y="636"/>
      <point x="332" y="636" type="qcurve"/>
      <point x="268" y="636"/>
      <point x="204" y="555"/>
      <point x="204" y="490" type="qcurve"/>
      <point x="204" y="366" type="line"/>
      <point x="324" y="366" type="line"/>
      <point x="324" y="288" type="line"/>
      <point x="204" y="288" type="line"/>
      <point x="204" y="78" type="line"/>
      <point x="552" y="78" type="line"/>
      <point x="552" y="0" type="line"/>
      <point x="60" y="0" type="line"/>
      <point x="60" y="78" type="line"/>
      <point x="120" y="78" type="line"/>
      <point x="120" y="288" type="line"/>
      <point x="60" y="288" type="line"/>
      <point x="60" y="366" type="line"/>
    </contour>
  </outline>
</glyph>
<glyph name="three.tosn" format="1">
  <advance width="612"/>
  <outline>
    <contour>
      <point x="228" y="162" type="line"/>
      <point x="228" y="278" type="line"/>
      <point x="438" y="406" type="line"/>
      <point x="438" y="418" type="line"/>
      <point x="76" y="418" type="line"/>
      <point x="76" y="496" type="line"/>
      <point x="510" y="496" type="line"/>
      <point x="510" y="368" type="line"/>
      <point x="300" y="240" type="line"/>
      <point x="300" y="228" type="line"/>
      <point x="334" y="228" type="line"/>
      <point x="373" y="228"/>
      <point x="443" y="202"/>
      <point x="496" y="151"/>
      <point x="528" y="78"/>
      <point x="528" y="30" type="qcurve"/>
      <point x="528" y="18" type="line"/>
      <point x="528" y="-28"/>
      <point x="496" y="-107"/>
      <point x="438" y="-166"/>
      <point x="355" y="-200"/>
      <point x="304" y="-200" type="qcurve"/>
      <point x="244" y="-200"/>
      <point x="154" y="-164"/>
      <point x="94" y="-102"/>
      <point x="61" y="-19"/>
      <point x="58" y="28" type="qcurve"/>
      <point x="142" y="42" type="line"/>
      <point x="147" y="-36"/>
      <point x="226" y="-122"/>
      <point x="300" y="-122" type="qcurve"/>
      <point x="366" y="-122"/>
      <point x="444" y="-42"/>
      <point x="444" y="25" type="qcurve"/>
      <point x="444" y="91"/>
      <point x="376" y="162"/>
      <point x="316" y="162" type="qcurve"/>
    </contour>
  </outline>
</glyph>
<glyph name="two.tosn" format="1">
  <advance width="612"/>
  <outline>
    <contour>
      <point x="172" y="78" type="line"/>
      <point x="526" y="78" type="line"/>
      <point x="526" y="0" type="line"/>
      <point x="88" y="0" type="line"/>
      <point x="88" y="86" type="line"/>
      <point x="88" y="165"/>
      <point x="184" y="246"/>
      <point x="292" y="261" type="qcurve"/>
      <point x="336" y="267"/>
      <point x="396" y="282"/>
      <point x="432" y="303"/>
      <point x="448" y="331"/>
      <point x="448" y="351" type="qcurve"/>
      <point x="448" y="365"/>
      <point x="434" y="394"/>
      <point x="404" y="417"/>
      <point x="354" y="432"/>
      <point x="318" y="432" type="qcurve"/>
      <point x="252" y="432"/>
      <point x="173" y="371"/>
      <point x="164" y="312" type="qcurve"/>
      <point x="84" y="330" type="line"/>
      <point x="90" y="367"/>
      <point x="124" y="432"/>
      <point x="182" y="481"/>
      <point x="264" y="510"/>
      <point x="318" y="510" type="qcurve"/>
      <point x="373" y="510"/>
      <point x="454" y="483"/>
      <point x="507" y="438"/>
      <point x="532" y="379"/>
      <point x="532" y="348" type="qcurve"/>
      <point x="532" y="315"/>
      <point x="512" y="263"/>
      <point x="465" y="224"/>
      <point x="389" y="197"/>
      <point x="334" y="189" type="qcurve"/>
      <point x="286" y="182"/>
      <point x="223" y="166"/>
      <point x="187" y="143"/>
      <point x="172" y="110"/>
      <point x="172" y="88" type="qcurve"/>
    </contour>
  </outline>
</glyph>
<glyph name="uni1E39.alt" format="1">
  <advance width="612"/>
  <outline>
    <contour>
      <point x="348" y="774" type="line"/>
      <point x="100" y="774" type="line"/>
      <point x="100" y="840" type="line"/>
      <point x="348" y="840" type="line"/>
    </contour>
    <component base="l.alt"/>
  </outline>
</glyph>
<glyph name="uni20A4.cap" format="1">
  <advance width="612"/>
  <outline>
    <contour>
      <point x="60" y="294" type="line"/>
      <point x="120" y="294" type="line"/>
      <point x="120" y="330" type="line"/>
      <point x="60" y="330" type="line"/>
      <point x="60" y="408" type="line"/>
      <point x="120" y="408" type="line"/>
      <point x="120" y="490" type="line"/>
      <point x="120" y="543"/>
      <point x="150" y="627"/>
      <point x="206" y="684"/>
      <point x="284" y="714"/>
      <point x="332" y="714" type="qcurve"/>
      <point x="433" y="714"/>
      <point x="552" y="596"/>
      <point x="552" y="490" type="qcurve"/>
      <point x="552" y="436" type="line"/>
      <point x="468" y="436" type="line"/>
      <point x="468" y="490" type="line"/>
      <point x="468" y="556"/>
      <point x="402" y="636"/>
      <point x="332" y="636" type="qcurve"/>
      <point x="268" y="636"/>
      <point x="204" y="555"/>
      <point x="204" y="490" type="qcurve"/>
      <point x="204" y="408" type="line"/>
      <point x="324" y="408" type="line"/>
      <point x="324" y="330" type="line"/>
      <point x="204" y="330" type="line"/>
      <point x="204" y="294" type="line"/>
      <point x="323" y="294" type="line"/>
      <point x="323" y="216" type="line"/>
      <point x="204" y="216" type="line"/>
      <point x="204" y="78" type="line"/>
      <point x="552" y="78" type="line"/>
      <point x="552" y="0" type="line"/>
      <point x="60" y="0" type="line"/>
      <point x="60" y="78" type="line"/>
      <point x="120" y="78" type="line"/>
      <point x="120" y="216" type="line"/>
      <point x="60" y="216" type="line"/>
    </contour>
  </outline>
</glyph>
<glyph name="uni20AB.cap" format="1">
  <advance width="612"/>
  <outline>
    <contour>
      <point x="272" y="634" type="line"/>
      <point x="448" y="634" type="line"/>
      <point x="448" y="700" type="line"/>
      <point x="532" y="700" type="line"/>
      <point x="532" y="634" type="line"/>
      <point x="592" y="634" type="line"/>
      <point x="592" y="556" type="line"/>
      <point x="532" y="556" type="line"/>
      <point x="532" y="0" type="line"/>
      <point x="448" y="0" type="line"/>
      <point x="448" y="70" type="line"/>
      <point x="436" y="70" type="line"/>
      <point x="424" y="47"/>
      <point x="387" y="15"/>
      <point x="343" y="-5"/>
      <point x="296" y="-14"/>
      <point x="274" y="-14" type="qcurve"/>
      <point x="224" y="-14"/>
      <point x="138" y="20"/>
      <point x="73" y="84"/>
      <point x="36" y="179"/>
      <point x="36" y="240" type="qcurve"/>
      <point x="36" y="256" type="line"/>
      <point x="36" y="316"/>
      <point x="74" y="411"/>
      <point x="138" y="476"/>
      <point x="224" y="510"/>
      <point x="272" y="510" type="qcurve"/>
      <point x="323" y="510"/>
      <point x="411" y="471"/>
      <point x="436" y="424" type="qcurve"/>
      <point x="448" y="424" type="line"/>
      <point x="448" y="556" type="line"/>
      <point x="272" y="556" type="line"/>
    </contour>
    <contour>
      <point x="285" y="64" type="qcurve"/>
      <point x="320" y="64"/>
      <point x="380" y="89"/>
      <point x="423" y="135"/>
      <point x="448" y="201"/>
      <point x="448" y="242" type="qcurve"/>
      <point x="448" y="254" type="line"/>
      <point x="448" y="294"/>
      <point x="423" y="359"/>
      <point x="379" y="406"/>
      <point x="319" y="432"/>
      <point x="285" y="432" type="qcurve"/>
      <point x="250" y="432"/>
      <point x="189" y="407"/>
      <point x="145" y="361"/>
      <point x="120" y="296"/>
      <point x="120" y="256" type="qcurve"/>
      <point x="120" y="240" type="line"/>
      <point x="120" y="198"/>
      <point x="145" y="133"/>
      <point x="189" y="88"/>
      <point x="249" y="64"/>
    </contour>
    <contour>
      <point x="120" y="-50" type="line"/>
      <point x="532" y="-50" type="line"/>
      <point x="532" y="-128" type="line"/>
      <point x="120" y="-128" type="line"/>
    </contour>
  </outline>
</glyph>
<glyph name="uni20B1.cap" format="1">
  <advance width="612"/>
  <outline>
    <contour>
      <point x="26" y="533" type="line"/>
      <point x="86" y="533" type="line"/>
      <point x="86" y="700" type="line"/>
      <point x="312" y="700" type="line"/>
      <point x="361" y="700"/>
      <point x="438" y="673"/>
      <point x="491" y="628"/>
      <point x="521" y="567"/>
      <point x="525" y="533" type="qcurve"/>
      <point x="586" y="533" type="line"/>
      <point x="586" y="455" type="line"/>
      <point x="524" y="455" type="line"/>
      <point x="518" y="406"/>
      <point x="478" y="378" type="qcurve"/>
      <point x="478" y="366" type="line"/>
      <point x="586" y="366" type="line"/>
      <point x="586" y="288" type="line"/>
      <point x="170" y="288" type="line"/>
      <point x="170" y="0" type="line"/>
      <point x="86" y="0" type="line"/>
      <point x="86" y="288" type="line"/>
      <point x="26" y="288" type="line"/>
      <point x="26" y="366" type="line"/>
      <point x="86" y="366" type="line"/>
      <point x="86" y="455" type="line"/>
      <point x="26" y="455" type="line"/>
    </contour>
    <contour>
      <point x="309" y="366" type="line"/>
      <point x="424" y="368"/>
      <point x="439" y="455" type="qcurve"/>
      <point x="170" y="455" type="line"/>
      <point x="170" y="366" type="line"/>
    </contour>
    <contour>
      <point x="170" y="533" type="line"/>
      <point x="439" y="533" type="line"/>
      <point x="430" y="574"/>
      <point x="362" y="622"/>
      <point x="302" y="622" type="qcurve"/>
      <point x="170" y="622" type="line"/>
    </contour>
  </outline>
</glyph>
<glyph name="uni20B2.cap" format="1">
  <advance width="612"/>
  <outline>
    <contour>
      <point x="344" y="711" type="line"/>
      <point x="395" y="705"/>
      <point x="472" y="661"/>
      <point x="524" y="595"/>
      <point x="551" y="509"/>
      <point x="551" y="460" type="qcurve"/>
      <point x="551" y="448" type="line"/>
      <point x="467" y="448" type="line"/>
      <point x="467" y="460" type="line"/>
      <point x="467" y="490"/>
      <point x="453" y="546"/>
      <point x="423" y="592"/>
      <point x="376" y="625"/>
      <point x="344" y="632" type="qcurve"/>
      <point x="344" y="336" type="line"/>
      <point x="551" y="336" type="line"/>
      <point x="551" y="0" type="line"/>
      <point x="473" y="0" type="line"/>
      <point x="473" y="84" type="line"/>
      <point x="461" y="84" type="line"/>
      <point x="447" y="49"/>
      <point x="386" y="-1"/>
      <point x="344" y="-9" type="qcurve"/>
      <point x="344" y="-92" type="line"/>
      <point x="266" y="-92" type="line"/>
      <point x="266" y="-12" type="line"/>
      <point x="168" y="-1"/>
      <point x="59" y="143"/>
      <point x="59" y="272" type="qcurve"/>
      <point x="59" y="428" type="line"/>
      <point x="59" y="552"/>
      <point x="167" y="699"/>
      <point x="266" y="711" type="qcurve"/>
      <point x="266" y="792" type="line"/>
      <point x="344" y="792" type="line"/>
    </contour>
    <contour>
      <point x="143" y="278" type="line"/>
      <point x="143" y="189"/>
      <point x="203" y="82"/>
      <point x="266" y="68" type="qcurve"/>
      <point x="266" y="631" type="line"/>
      <point x="204" y="617"/>
      <point x="143" y="506"/>
      <point x="143" y="422" type="qcurve"/>
    </contour>
    <contour>
      <point x="344" y="258" type="line"/>
      <point x="344" y="67" type="line"/>
      <point x="402" y="79"/>
      <point x="467" y="171"/>
      <point x="467" y="246" type="qcurve"/>
      <point x="467" y="258" type="line"/>
    </contour>
  </outline>
</glyph>
<glyph name="uni20B9.cap" format="1">
  <advance width="612"/>
  <outline>
    <contour>
      <point x="56" y="533" type="line"/>
      <point x="409" y="533" type="line"/>
      <point x="400" y="574"/>
      <point x="332" y="622"/>
      <point x="272" y="622" type="qcurve"/>
      <point x="56" y="622" type="line"/>
      <point x="56" y="700" type="line"/>
      <point x="568" y="700" type="line"/>
      <point x="568" y="622" type="line"/>
      <point x="449" y="622" type="line"/>
      <point x="449" y="610" type="line"/>
      <point x="489" y="582"/>
      <point x="495" y="533" type="qcurve"/>
      <point x="568" y="533" type="line"/>
      <point x="568" y="455" type="line"/>
      <point x="494" y="455" type="line"/>
      <point x="488" y="421"/>
      <point x="446" y="359"/>
      <point x="408" y="342" type="qcurve"/>
      <point x="408" y="330" type="line"/>
      <point x="438" y="325"/>
      <point x="472" y="287"/>
      <point x="472" y="252" type="qcurve"/>
      <point x="472" y="0" type="line"/>
      <point x="388" y="0" type="line"/>
      <point x="388" y="234" type="line"/>
      <point x="388" y="260"/>
      <point x="364" y="288"/>
      <point x="334" y="288" type="qcurve"/>
      <point x="56" y="288" type="line"/>
      <point x="56" y="366" type="line"/>
      <point x="272" y="366" type="line"/>
      <point x="392" y="366"/>
      <point x="409" y="455" type="qcurve"/>
      <point x="56" y="455" type="line"/>
    </contour>
  </outline>
</glyph>
<glyph name="y.alt" format="1">
  <advance width="612"/>
  <outline>
    <contour>
      <point x="375" y="0" type="line"/>
      <point x="345" y="0" type="line"/>
      <point x="345" y="-122" type="line"/>
      <point x="345" y="-156"/>
      <point x="302" y="-200"/>
      <point x="268" y="-200" type="qcurve"/>
      <point x="74" y="-200" type="line"/>
      <point x="74" y="-128" type="line"/>
      <point x="240" y="-128" type="line"/>
      <point x="267" y="-128"/>
      <point x="267" y="-98" type="qcurve"/>
      <point x="267" y="0" type="line"/>
      <point x="237" y="0" type="line"/>
      <point x="56" y="496" type="line"/>
      <point x="148" y="496" type="line"/>
      <point x="300" y="60" type="line"/>
      <point x="312" y="60" type="line"/>
      <point x="464" y="496" type="line"/>
      <point x="556" y="496" type="line"/>
    </contour>
  </outline>
</glyph>
